if (_typeface_js && _typeface_js.loadFace) _typeface_js.loadFace({"glyphs":{"⌐":{"x_min":78,"x_max":754,"ha":834,"o":"m 178 412 l 178 122 l 78 122 l 78 511 l 754 511 l 754 412 l 178 412 "},"♀":{"x_min":214,"x_max":618,"ha":834,"o":"m 233 255 l 392 255 l 392 392 q 322 414 354 396 q 265 458 289 431 q 227 519 241 484 q 214 592 214 554 q 229 671 214 634 q 273 735 245 708 q 337 779 300 763 q 416 795 374 795 q 494 779 458 795 q 558 735 531 763 q 602 671 586 708 q 618 592 618 634 q 604 519 618 554 q 566 458 590 484 q 510 414 543 431 q 441 392 478 396 l 441 255 l 599 255 l 599 206 l 441 206 l 441 47 l 392 47 l 392 206 l 233 206 l 233 255 m 263 592 q 274 532 263 560 q 307 483 286 504 q 356 450 328 462 q 416 439 384 439 q 475 450 447 439 q 523 483 503 462 q 556 532 544 504 q 569 592 569 560 q 556 652 569 624 q 523 700 544 680 q 475 733 503 721 q 416 746 447 746 q 356 733 384 746 q 307 700 328 721 q 274 652 286 680 q 263 592 263 624 "},"ǻ":{"x_min":87,"x_max":787,"ha":834,"o":"m 574 851 q 556 786 574 816 q 503 736 539 755 q 634 656 590 716 q 678 500 678 596 l 678 184 q 692 102 678 129 q 746 74 706 74 q 767 76 757 74 q 787 79 777 77 l 787 3 q 741 -4 763 -1 q 692 -7 718 -7 q 633 1 658 -7 q 592 29 608 11 q 569 75 577 48 q 559 139 561 103 l 555 139 q 512 76 536 104 q 460 27 489 47 q 391 -3 430 7 q 302 -14 352 -14 q 141 44 195 -14 q 87 204 87 102 q 113 323 87 276 q 183 396 140 369 q 282 433 227 422 q 394 444 337 443 l 555 447 l 555 487 q 545 564 555 532 q 518 616 536 597 q 471 645 499 636 q 404 655 442 655 q 343 649 371 655 q 296 631 316 644 q 264 595 277 618 q 248 538 252 572 l 120 549 q 138 615 125 584 q 174 671 151 646 q 231 713 197 695 q 311 739 264 730 q 262 788 278 758 q 246 851 246 817 q 256 902 246 877 q 286 945 266 926 q 337 974 306 963 q 410 986 368 986 q 482 974 451 986 q 533 945 513 963 q 563 902 553 926 q 574 851 574 877 m 333 79 q 431 100 390 79 q 500 154 472 121 q 541 226 527 186 q 555 301 555 265 l 555 362 l 426 359 q 351 353 388 358 q 283 332 313 348 q 234 284 253 315 q 215 202 215 254 q 245 112 215 146 q 333 79 275 79 m 345 1014 l 345 1027 l 499 1156 l 633 1156 l 633 1136 l 429 1014 l 345 1014 m 492 851 q 487 871 492 861 q 473 888 483 880 q 447 901 463 896 q 409 907 432 907 q 371 901 387 907 q 346 888 356 896 q 331 871 335 880 q 327 851 327 861 q 331 831 327 841 q 346 813 335 821 q 371 800 356 805 q 409 795 387 795 q 447 800 432 795 q 473 813 463 805 q 487 831 483 821 q 492 851 492 841 "},"Á":{"x_min":0,"x_max":833,"ha":834,"o":"m 701 0 l 607 259 l 226 259 l 132 0 l 0 0 l 346 915 l 493 915 l 833 0 l 701 0 m 475 647 q 457 699 466 672 q 439 749 447 725 q 426 791 432 773 q 417 817 420 809 q 409 790 415 809 q 396 748 404 772 q 380 698 388 725 q 362 647 371 672 l 260 360 l 574 360 l 475 647 m 336 980 l 336 993 l 490 1156 l 624 1156 l 624 1136 l 420 980 l 336 980 "},"ĥ":{"x_min":125,"x_max":712,"ha":834,"o":"m 125 915 l 247 915 l 247 701 q 245 633 247 667 q 241 567 243 599 l 243 567 q 281 625 259 599 q 331 669 303 651 q 394 697 359 687 q 474 707 430 707 q 574 692 530 707 q 649 645 618 677 q 696 565 680 614 q 712 448 712 517 l 712 0 l 589 0 l 589 431 q 577 520 589 485 q 546 576 566 555 q 499 604 526 596 q 439 613 472 613 q 364 597 399 613 q 303 553 329 582 q 261 482 276 524 q 247 384 247 439 l 247 0 l 125 0 l 125 915 m 641 993 l 641 980 l 570 980 l 421 1074 l 419 1074 l 263 980 l 192 980 l 192 993 l 364 1156 l 475 1156 l 641 993 "},"Κ":{"x_min":110,"x_max":833.25,"ha":834,"o":"m 681 0 l 350 432 l 240 318 l 240 0 l 110 0 l 110 915 l 240 915 l 240 458 l 628 915 l 781 915 l 438 527 l 833 0 l 681 0 "},"»":{"x_min":73,"x_max":747,"ha":834,"o":"m 518 96 l 397 96 l 397 115 l 626 364 l 398 616 l 398 638 l 517 638 l 747 386 l 747 343 l 518 96 m 195 96 l 73 96 l 73 115 l 302 364 l 74 616 l 74 638 l 195 638 l 422 386 l 422 343 l 195 96 "},"∆":{"x_min":8,"x_max":825,"ha":834,"o":"m 8 0 l 8 99 l 331 956 l 497 956 l 825 100 l 825 0 l 8 0 m 481 676 q 458 739 470 707 q 437 798 447 772 q 422 843 428 825 q 415 864 416 861 q 408 843 414 861 q 392 798 401 825 q 371 739 382 772 q 348 676 359 707 l 138 106 l 694 106 l 481 676 "},"♥":{"x_min":69,"x_max":764,"ha":834,"o":"m 398 -1 q 382 68 398 30 q 341 144 366 105 q 286 222 316 184 q 228 294 256 260 q 164 377 193 336 q 113 457 134 418 q 80 530 92 495 q 69 596 69 566 q 83 667 69 636 q 121 720 98 698 q 174 753 145 741 q 235 765 204 765 q 295 752 267 765 q 347 718 324 739 q 387 669 370 697 q 414 608 404 640 l 418 608 q 445 669 428 640 q 485 718 462 697 q 537 752 508 739 q 597 765 565 765 q 658 753 628 765 q 711 720 687 741 q 749 667 734 698 q 764 596 764 636 q 752 530 764 566 q 719 457 740 495 q 668 377 698 418 q 604 294 639 336 q 547 222 577 260 q 491 144 516 184 q 450 68 466 105 q 434 -1 434 30 l 398 -1 "},"ў":{"x_min":44.75,"x_max":788.25,"ha":834,"o":"m 478 0 q 426 -119 453 -66 q 365 -210 399 -172 q 291 -267 332 -247 q 198 -288 251 -288 q 155 -286 175 -288 q 114 -280 135 -285 l 114 -188 q 143 -191 126 -190 q 171 -193 159 -193 q 271 -152 224 -193 q 351 -25 319 -112 l 363 8 l 44 734 l 174 734 l 354 298 q 372 253 361 280 q 393 200 383 227 q 411 153 403 174 q 420 126 419 132 q 430 154 422 134 q 448 200 438 175 q 469 253 458 226 q 488 299 480 279 l 659 734 l 788 734 l 478 0 m 417 814 q 302 826 349 814 q 226 863 255 839 q 182 918 196 886 q 168 990 169 951 l 279 990 q 291 941 281 960 q 318 910 301 921 q 360 893 336 898 q 417 889 385 889 q 473 893 448 889 q 515 910 497 898 q 542 941 532 921 q 555 990 552 960 l 666 990 q 651 918 664 951 q 607 863 637 886 q 531 826 578 839 q 417 814 484 814 "},"ţ":{"x_min":129,"x_max":690,"ha":834,"o":"m 129 638 l 129 734 l 244 734 l 283 925 l 365 925 l 365 734 l 658 734 l 658 638 l 365 638 l 365 195 q 393 115 365 141 q 488 90 422 90 q 544 92 515 90 q 600 98 573 94 q 650 105 626 101 q 690 113 673 109 l 690 20 q 651 10 675 16 q 598 0 627 5 q 533 -7 568 -4 q 462 -11 499 -11 q 297 35 352 -11 q 243 182 243 82 l 243 638 l 129 638 m 326 -286 l 326 -263 l 379 -66 l 513 -66 l 513 -91 l 397 -286 l 326 -286 "},"«":{"x_min":86,"x_max":759,"ha":834,"o":"m 637 96 l 408 343 l 408 386 l 637 638 l 758 638 l 758 616 l 529 364 l 759 115 l 759 96 l 637 96 m 314 96 l 86 343 l 86 386 l 314 638 l 434 638 l 434 616 l 207 364 l 435 115 l 435 96 l 314 96 "},"í":{"x_min":97,"x_max":763,"ha":834,"o":"m 505 96 l 763 96 l 763 0 l 97 0 l 97 96 l 383 96 l 383 638 l 167 638 l 167 734 l 505 734 l 505 96 m 343 815 l 343 828 l 497 991 l 631 991 l 631 971 l 427 815 l 343 815 "},"◦":{"x_min":248,"x_max":584,"ha":834,"o":"m 584 432 q 571 366 584 396 q 533 312 558 337 q 479 276 508 289 q 416 264 450 264 q 296 312 347 264 q 260 366 273 337 q 248 432 248 396 q 296 549 248 501 q 416 600 346 600 q 533 549 485 600 q 584 432 584 501 m 532 432 q 497 513 532 479 q 416 548 463 548 q 334 513 368 548 q 300 432 300 479 q 334 349 300 385 q 416 316 367 316 q 497 349 464 316 q 532 432 532 385 "},"ņ":{"x_min":120.9375,"x_max":712,"ha":834,"o":"m 589 0 l 589 471 q 577 560 589 525 q 546 616 566 595 q 499 644 526 636 q 439 653 472 653 q 364 637 399 653 q 303 593 329 622 q 261 522 276 564 q 247 425 247 480 l 247 0 l 125 0 l 125 577 q 124 625 125 600 q 123 673 124 651 q 122 712 122 696 q 120 734 121 729 l 236 734 q 237 715 236 730 q 239 681 238 700 q 240 641 240 661 q 241 607 241 621 l 243 607 q 282 665 259 639 q 333 709 304 691 q 397 737 361 727 q 478 747 433 747 q 578 732 535 747 q 651 685 622 717 q 696 606 681 654 q 712 488 712 557 l 712 0 l 589 0 m 304 -286 l 304 -263 l 357 -66 l 491 -66 l 491 -91 l 375 -286 l 304 -286 "},"µ":{"x_min":98,"x_max":736.0625,"ha":834,"o":"m 621 0 q 620 20 621 4 q 618 58 619 37 q 616 100 617 79 q 615 134 615 121 l 612 134 q 519 23 576 60 q 385 -14 462 -14 q 286 7 329 -14 q 221 68 242 29 l 218 68 q 220 25 220 47 q 221 -14 221 4 l 221 -267 l 98 -267 l 98 734 l 221 734 l 221 297 q 230 210 221 250 q 260 142 239 171 q 316 97 282 113 q 400 82 350 82 q 483 99 445 82 q 549 148 522 117 q 593 221 577 179 q 609 315 609 264 l 609 734 l 732 734 l 732 158 q 732 109 732 135 q 733 60 732 83 q 734 21 734 37 q 736 0 735 4 l 621 0 "},"ỳ":{"x_min":44.75,"x_max":788.25,"ha":834,"o":"m 478 0 q 426 -119 453 -66 q 365 -210 399 -172 q 291 -267 332 -247 q 198 -288 251 -288 q 155 -286 175 -288 q 114 -280 135 -285 l 114 -188 q 143 -191 126 -190 q 171 -193 159 -193 q 271 -152 224 -193 q 351 -25 319 -112 l 363 8 l 44 734 l 174 734 l 354 298 q 372 253 361 280 q 393 200 383 227 q 411 153 403 174 q 420 126 419 132 q 430 154 422 134 q 448 200 438 175 q 469 253 458 226 q 488 299 480 279 l 659 734 l 788 734 l 478 0 m 436 815 l 233 971 l 233 991 l 366 991 l 521 828 l 521 815 l 436 815 "},"Ι":{"x_min":138,"x_max":696,"ha":834,"o":"m 138 915 l 696 915 l 696 809 l 482 809 l 482 106 l 696 106 l 696 0 l 138 0 l 138 106 l 352 106 l 352 809 l 138 809 l 138 915 "},"Ύ":{"x_min":0,"x_max":814,"ha":834,"o":"m 574 396 l 574 0 l 446 0 l 446 396 l 206 915 l 342 915 l 510 507 l 677 915 l 814 915 l 574 396 m 0 695 l 0 717 l 53 915 l 187 915 l 187 889 l 71 695 l 0 695 "},"ѕ":{"x_min":113,"x_max":719,"ha":834,"o":"m 719 209 q 698 116 719 157 q 640 46 678 74 q 547 1 602 17 q 421 -14 492 -14 q 306 -4 357 -14 q 216 25 254 4 q 151 81 177 46 q 113 167 125 116 l 221 189 q 247 129 229 151 q 290 96 265 107 q 349 80 315 84 q 420 77 382 77 q 493 82 460 77 q 551 102 527 88 q 590 138 576 116 q 604 192 604 160 q 586 247 604 226 q 539 282 569 268 q 468 306 509 296 q 379 329 427 317 q 293 354 336 341 q 216 390 250 368 q 162 446 183 412 q 142 532 142 480 q 213 688 142 632 q 422 745 285 745 q 522 735 475 745 q 606 703 569 725 q 667 648 642 682 q 702 568 692 615 l 592 555 q 571 604 587 585 q 533 634 556 623 q 482 649 510 645 q 422 654 453 654 q 256 551 256 654 q 270 501 256 520 q 311 468 285 481 q 374 446 338 456 q 455 426 411 437 q 546 401 499 415 q 631 363 592 386 q 694 302 669 339 q 719 209 719 265 "},"Ш":{"x_min":60,"x_max":773,"ha":834,"o":"m 60 0 l 60 915 l 170 915 l 170 95 l 362 95 l 362 915 l 472 915 l 472 95 l 663 95 l 663 915 l 773 915 l 773 0 l 60 0 "},"M":{"x_min":87,"x_max":746,"ha":834,"o":"m 636 0 l 636 588 q 636 659 636 623 q 638 725 636 695 q 640 792 639 759 q 616 719 628 755 q 596 655 607 689 q 575 595 585 621 l 463 298 l 371 298 l 258 595 q 249 619 254 605 q 239 649 244 633 q 229 681 234 665 q 218 714 223 698 q 193 792 206 752 q 194 725 193 760 q 195 658 195 694 q 196 588 196 623 l 196 0 l 87 0 l 87 915 l 248 915 l 373 583 q 387 541 379 567 q 402 489 395 515 q 419 426 411 459 q 437 487 429 458 q 453 538 445 512 q 467 582 461 565 l 593 915 l 746 915 l 746 0 l 636 0 "},"╗":{"x_min":-7,"x_max":588,"ha":834,"o":"m 588 597 l 588 -417 l 490 -417 l 490 499 l -7 499 l -7 597 l 588 597 m 344 -417 l 246 -417 l 246 255 l -7 255 l -7 353 l 344 353 l 344 -417 "},"Ψ":{"x_min":33,"x_max":800,"ha":834,"o":"m 364 0 l 364 269 l 324 269 q 192 297 247 269 q 101 374 136 326 q 49 486 66 423 q 33 621 33 550 l 33 915 l 142 915 l 142 618 q 152 516 142 564 q 185 435 163 469 q 244 380 208 400 q 329 361 279 361 l 364 361 l 364 915 l 469 915 l 469 361 l 503 361 q 588 380 553 361 q 646 435 623 400 q 680 516 669 469 q 691 618 691 564 l 691 915 l 800 915 l 800 621 q 783 486 800 550 q 731 374 766 423 q 640 297 695 326 q 508 269 585 269 l 469 269 l 469 0 l 364 0 "},"ũ":{"x_min":125,"x_max":716.078125,"ha":834,"o":"m 247 734 l 247 268 q 254 178 247 214 q 280 120 262 142 q 327 89 298 98 q 399 80 356 80 q 477 95 442 80 q 537 139 512 110 q 575 210 562 168 q 589 308 589 253 l 589 734 l 712 734 l 712 156 q 712 108 712 133 q 713 60 712 82 q 714 21 714 37 q 716 0 715 4 l 600 0 q 599 18 599 3 q 597 52 598 33 q 595 91 596 71 q 595 125 595 111 l 593 125 q 554 67 575 93 q 505 23 533 41 q 441 -4 477 5 q 358 -14 405 -14 q 252 0 296 -14 q 180 47 208 15 q 138 127 151 78 q 125 244 125 176 l 125 734 l 247 734 m 523 815 q 466 827 494 815 q 410 855 437 840 q 357 883 383 870 q 307 896 331 896 q 281 890 291 896 q 265 874 272 885 q 255 849 259 864 q 249 815 252 834 l 174 815 q 184 875 177 845 q 206 929 190 905 q 246 968 221 953 q 311 983 271 983 q 369 970 341 983 q 425 942 398 957 q 477 914 452 927 q 525 902 502 902 q 550 907 540 902 q 567 923 560 912 q 577 948 574 933 q 584 983 581 963 l 660 983 q 649 923 656 953 q 628 869 643 893 q 588 830 613 845 q 523 815 563 815 "},"ŭ":{"x_min":125,"x_max":716.078125,"ha":834,"o":"m 247 734 l 247 268 q 254 178 247 214 q 280 120 262 142 q 327 89 298 98 q 399 80 356 80 q 477 95 442 80 q 537 139 512 110 q 575 210 562 168 q 589 308 589 253 l 589 734 l 712 734 l 712 156 q 712 108 712 133 q 713 60 712 82 q 714 21 714 37 q 716 0 715 4 l 600 0 q 599 18 599 3 q 597 52 598 33 q 595 91 596 71 q 595 125 595 111 l 593 125 q 554 67 575 93 q 505 23 533 41 q 441 -4 477 5 q 358 -14 405 -14 q 252 0 296 -14 q 180 47 208 15 q 138 127 151 78 q 125 244 125 176 l 125 734 l 247 734 m 415 815 q 328 830 365 815 q 265 872 290 846 q 224 929 239 897 q 204 991 209 960 l 290 991 q 330 923 301 947 q 415 900 360 900 q 502 923 473 900 q 543 991 531 947 l 629 991 q 607 929 622 960 q 567 872 593 897 q 504 830 542 846 q 415 815 467 815 "},"―":{"x_min":-7,"x_max":840,"ha":834,"o":"m -7 306 l -7 399 l 840 399 l 840 306 l -7 306 "},"{":{"x_min":153,"x_max":720,"ha":834,"o":"m 539 -288 q 458 -273 495 -288 q 395 -231 422 -258 q 354 -166 369 -204 q 340 -82 340 -128 l 340 154 q 324 227 340 197 q 281 274 308 256 q 221 301 255 293 q 153 312 187 310 l 153 405 q 221 415 187 406 q 281 442 255 424 q 324 490 308 461 q 340 561 340 519 l 340 800 q 354 885 340 847 q 395 950 369 923 q 458 991 422 977 q 539 1006 495 1006 l 720 1006 l 720 912 l 575 912 q 522 904 544 912 q 486 882 500 897 q 465 841 471 866 q 459 779 459 816 l 459 544 q 445 474 459 506 q 408 420 431 443 q 358 381 386 396 q 301 360 329 366 l 301 358 q 359 336 331 352 q 409 298 387 321 q 445 244 431 275 q 459 173 459 212 l 459 -61 q 486 -163 459 -133 q 575 -194 513 -194 l 720 -194 l 720 -288 l 539 -288 "},"¼":{"x_min":19,"x_max":834,"ha":834,"o":"m 43 399 l 43 472 l 135 472 l 135 820 q 110 789 126 802 q 77 769 94 777 q 43 758 59 761 q 19 755 27 755 l 19 836 q 47 840 31 836 q 81 853 63 844 q 114 877 98 862 q 141 915 130 892 l 224 915 l 224 472 l 303 472 l 303 399 l 43 399 m 217 0 l 137 0 l 615 915 l 693 915 l 217 0 m 751 110 l 751 1 l 665 1 l 665 110 l 411 110 l 411 177 l 655 518 l 751 518 l 751 179 l 834 179 l 834 110 l 751 110 m 665 431 q 654 414 661 425 q 639 392 647 404 q 623 370 631 381 q 610 352 615 359 l 486 179 l 665 179 l 665 355 q 665 374 665 364 q 665 396 665 385 q 665 415 665 406 q 665 431 665 425 "},"▄":{"x_min":0,"x_max":834,"ha":834,"o":"m 834 -417 l 0 -417 l 0 425 l 834 425 l 834 -417 "},"ι":{"x_min":102,"x_max":758,"ha":834,"o":"m 440 234 q 467 124 440 158 q 551 90 494 90 q 630 111 595 90 q 694 162 665 132 l 758 80 q 668 11 718 37 q 550 -14 617 -14 q 444 1 488 -14 q 371 48 400 17 q 330 126 343 79 q 318 236 318 173 l 318 638 l 102 638 l 102 734 l 440 734 l 440 234 "},"Ĳ":{"x_min":66,"x_max":785,"ha":834,"o":"m 66 915 l 196 915 l 196 0 l 66 0 l 66 915 m 520 91 q 623 139 591 91 q 656 281 656 188 l 656 809 l 472 809 l 472 915 l 785 915 l 785 284 q 768 161 785 216 q 719 67 752 106 q 636 7 686 28 q 520 -14 586 -14 q 417 0 462 -14 q 341 46 373 15 q 288 124 309 76 q 255 236 267 171 l 381 258 q 429 130 394 170 q 520 91 464 91 "},"Ê":{"x_min":110,"x_max":761,"ha":834,"o":"m 110 0 l 110 915 l 733 915 l 733 809 l 240 809 l 240 523 l 693 523 l 693 419 l 240 419 l 240 106 l 761 106 l 761 0 l 110 0 m 641 993 l 641 980 l 569 980 l 421 1074 l 419 1074 l 262 980 l 192 980 l 192 993 l 364 1156 l 475 1156 l 641 993 "},"Ά":{"x_min":0,"x_max":833,"ha":834,"o":"m 701 0 l 607 259 l 226 259 l 132 0 l 0 0 l 346 915 l 493 915 l 833 0 l 701 0 m 475 647 q 457 699 466 672 q 439 749 447 725 q 426 791 432 773 q 417 817 420 809 q 409 790 415 809 q 396 748 404 772 q 380 698 388 725 q 362 647 371 672 l 260 360 l 574 360 l 475 647 m 1 696 l 1 718 l 54 916 l 188 916 l 188 890 l 72 696 l 1 696 "},")":{"x_min":228,"x_max":600,"ha":834,"o":"m 600 360 q 585 178 600 263 q 541 15 571 92 q 466 -137 511 -62 q 358 -288 420 -211 l 228 -288 q 339 -131 293 -208 q 416 22 386 -55 q 460 183 446 100 q 475 359 475 265 q 460 534 475 452 q 416 695 446 617 q 339 849 386 773 q 228 1006 293 926 l 358 1006 q 466 855 420 929 q 541 704 511 782 q 585 542 571 627 q 600 360 600 458 "},"ε":{"x_min":119,"x_max":739,"ha":834,"o":"m 421 77 q 507 87 468 77 q 577 114 546 97 q 630 149 608 130 q 667 186 653 169 l 739 118 q 687 67 717 91 q 617 25 656 43 q 527 -3 577 7 q 413 -14 476 -14 q 279 1 335 -14 q 188 45 224 17 q 135 113 152 74 q 119 199 119 152 q 134 271 119 238 q 174 326 149 303 q 234 364 200 350 q 304 381 267 378 l 304 383 q 240 400 269 387 q 188 436 210 414 q 153 487 166 457 q 141 550 141 516 q 159 628 141 592 q 215 691 178 664 q 306 732 251 717 q 431 747 360 747 q 603 717 532 747 q 721 621 675 688 l 634 562 q 552 633 602 610 q 432 656 503 656 q 304 627 344 656 q 264 548 264 598 q 288 485 264 509 q 353 449 312 462 q 446 433 393 437 q 555 429 498 429 l 555 337 q 482 335 519 337 q 410 329 445 334 q 346 316 376 324 q 294 291 316 307 q 258 254 271 276 q 246 201 246 232 q 290 108 246 139 q 421 77 335 77 "},"э":{"x_min":84,"x_max":736,"ha":834,"o":"m 736 367 q 717 216 736 285 q 658 95 699 146 q 553 15 618 44 q 395 -14 488 -14 q 272 5 327 -14 q 178 56 217 24 q 114 130 138 88 q 84 217 90 172 l 213 226 q 235 161 218 189 q 276 116 251 134 q 332 89 301 98 q 401 80 364 80 q 491 96 453 80 q 553 144 529 113 q 590 221 578 176 q 606 326 603 267 l 347 326 l 347 415 l 606 415 q 590 516 603 471 q 552 589 577 560 q 490 635 528 619 q 399 651 453 651 q 272 615 319 651 q 215 518 225 579 l 85 527 q 118 613 94 573 q 182 683 143 653 q 274 730 221 713 q 394 747 328 747 q 520 729 459 747 q 629 667 581 711 q 706 550 677 624 q 736 367 736 477 "},"ш":{"x_min":69,"x_max":765,"ha":834,"o":"m 69 0 l 69 734 l 178 734 l 178 89 l 362 89 l 362 734 l 471 734 l 471 89 l 656 89 l 656 734 l 765 734 l 765 0 l 69 0 "},"Я":{"x_min":34.75,"x_max":724,"ha":834,"o":"m 34 0 l 306 404 q 200 440 244 415 q 127 501 156 466 q 86 578 99 536 q 73 662 73 619 q 93 767 73 721 q 153 847 113 814 q 254 897 193 880 q 396 915 315 915 l 724 915 l 724 0 l 594 0 l 594 390 l 432 390 l 183 0 l 34 0 m 203 659 q 213 595 203 625 q 247 541 224 564 q 309 505 270 519 q 403 492 348 492 l 594 492 l 594 811 l 409 811 q 203 659 203 811 "},"a":{"x_min":87,"x_max":787,"ha":834,"o":"m 746 75 q 767 76 757 75 q 787 79 777 77 l 787 3 q 741 -4 763 -1 q 692 -7 718 -7 q 633 2 658 -7 q 592 29 608 11 q 569 75 577 48 q 559 139 561 103 l 555 139 q 512 76 536 104 q 460 27 489 47 q 391 -3 430 7 q 302 -14 352 -14 q 141 44 195 -14 q 87 204 87 102 q 113 323 87 276 q 183 396 140 369 q 282 433 227 422 q 394 444 337 443 l 555 447 l 555 487 q 545 564 555 532 q 518 615 536 596 q 471 644 499 635 q 404 654 442 654 q 343 648 371 654 q 296 630 316 643 q 264 594 276 617 q 247 537 251 571 l 119 548 q 145 628 126 592 q 197 691 163 664 q 282 732 231 717 q 406 747 333 747 q 609 683 541 747 q 678 500 678 620 l 678 184 q 692 102 678 129 q 746 75 706 75 m 333 79 q 431 100 390 79 q 500 154 472 121 q 541 226 527 186 q 555 301 555 265 l 555 362 l 426 359 q 351 353 388 358 q 283 332 313 348 q 234 284 253 315 q 215 202 215 254 q 245 112 215 146 q 333 79 275 79 "},"Ę":{"x_min":110,"x_max":761,"ha":834,"o":"m 110 0 l 110 915 l 733 915 l 733 809 l 240 809 l 240 523 l 693 523 l 693 419 l 240 419 l 240 106 l 761 106 l 761 0 l 110 0 m 761 -271 q 718 -284 742 -279 q 666 -290 693 -290 q 559 -255 595 -290 q 524 -163 524 -220 q 535 -104 524 -131 q 563 -56 547 -77 q 597 -21 579 -36 q 629 0 616 -7 l 719 0 q 684 -24 702 -9 q 652 -60 667 -40 q 629 -103 638 -80 q 620 -153 620 -127 q 636 -198 620 -182 q 683 -215 653 -215 q 722 -210 702 -215 q 761 -198 742 -206 l 761 -271 "},"Z":{"x_min":50,"x_max":784,"ha":834,"o":"m 784 0 l 50 0 l 50 97 l 604 809 l 100 809 l 100 915 l 752 915 l 752 820 l 196 106 l 784 106 l 784 0 "},"k":{"x_min":160,"x_max":763.25,"ha":834,"o":"m 620 0 l 371 338 l 282 272 l 282 0 l 160 0 l 160 1006 l 282 1006 l 282 377 l 605 734 l 748 734 l 449 418 l 763 0 l 620 0 "},"Ù":{"x_min":96,"x_max":736,"ha":834,"o":"m 736 332 q 716 173 736 239 q 656 65 696 107 q 554 5 615 24 q 410 -14 493 -14 q 272 3 331 -14 q 174 61 213 21 q 115 164 135 101 q 96 319 96 228 l 96 915 l 226 915 l 226 337 q 234 224 226 271 q 263 148 242 177 q 319 104 284 118 q 409 91 355 91 q 503 104 465 91 q 564 148 541 118 q 597 227 587 178 q 607 346 607 276 l 607 915 l 736 915 l 736 332 m 410 980 l 207 1136 l 207 1156 l 340 1156 l 495 993 l 495 980 l 410 980 "},"Ů":{"x_min":96,"x_max":736,"ha":834,"o":"m 736 332 q 716 173 736 239 q 656 65 696 107 q 554 5 615 24 q 410 -14 493 -14 q 272 3 331 -14 q 174 61 213 21 q 115 164 135 101 q 96 319 96 228 l 96 915 l 226 915 l 226 337 q 234 224 226 271 q 263 148 242 177 q 319 104 284 118 q 409 91 355 91 q 503 104 465 91 q 564 148 541 118 q 597 227 587 178 q 607 346 607 276 l 607 915 l 736 915 l 736 332 m 580 1021 q 569 970 580 995 q 539 927 559 946 q 488 897 519 908 q 416 886 457 886 q 343 897 374 886 q 292 927 312 908 q 262 970 272 946 q 252 1021 252 995 q 262 1072 252 1048 q 292 1115 272 1097 q 343 1145 312 1134 q 416 1157 374 1157 q 488 1145 457 1157 q 539 1115 519 1134 q 569 1072 559 1097 q 580 1021 580 1048 m 498 1021 q 493 1041 498 1031 q 479 1059 489 1051 q 453 1072 469 1067 q 415 1078 438 1078 q 377 1072 393 1078 q 352 1059 362 1067 q 337 1041 341 1051 q 333 1021 333 1031 q 337 1001 333 1011 q 352 983 341 991 q 377 970 362 975 q 415 965 393 965 q 453 970 438 965 q 479 983 469 975 q 493 1001 489 991 q 498 1021 498 1011 "},"¢":{"x_min":90,"x_max":742,"ha":834,"o":"m 430 183 q 500 192 468 183 q 556 220 532 201 q 596 265 580 238 q 619 330 612 293 l 742 321 q 716 240 735 279 q 662 169 696 201 q 581 117 629 138 q 473 91 534 96 l 473 -41 l 386 -41 l 386 91 q 255 124 311 96 q 163 199 200 152 q 108 307 126 245 q 90 444 90 370 q 109 589 90 524 q 167 700 129 654 q 260 775 205 747 q 386 810 315 803 l 386 935 l 473 935 l 473 810 q 576 786 531 805 q 654 738 621 767 q 708 671 687 709 q 738 591 729 634 l 613 582 q 556 680 601 643 q 429 717 512 717 q 268 648 323 717 q 214 453 214 580 q 271 251 214 319 q 430 183 328 183 "},"В":{"x_min":110,"x_max":782,"ha":834,"o":"m 782 257 q 753 139 782 187 q 676 59 724 90 q 564 14 628 28 q 430 0 500 0 l 110 0 l 110 915 l 389 915 q 531 902 468 915 q 637 862 593 889 q 703 793 680 835 q 726 693 726 751 q 714 620 726 655 q 680 559 703 586 q 624 511 658 531 q 544 482 590 491 q 646 457 602 476 q 720 408 691 438 q 766 340 750 379 q 782 257 782 302 m 596 676 q 544 780 596 749 q 391 811 493 811 l 240 811 l 240 529 l 392 529 q 486 539 447 529 q 549 569 524 550 q 584 615 573 588 q 596 676 596 642 m 651 269 q 633 341 651 312 q 584 391 616 371 q 509 419 553 410 q 410 428 465 428 l 240 428 l 240 104 l 420 104 q 512 111 469 104 q 585 138 554 119 q 633 189 616 157 q 651 269 651 221 "},"І":{"x_min":138,"x_max":696,"ha":834,"o":"m 138 915 l 696 915 l 696 809 l 482 809 l 482 106 l 696 106 l 696 0 l 138 0 l 138 106 l 352 106 l 352 809 l 138 809 l 138 915 "},"ē":{"x_min":90,"x_max":742,"ha":834,"o":"m 218 341 q 230 234 218 283 q 269 151 243 186 q 333 97 295 116 q 422 78 372 78 q 491 86 459 78 q 547 109 522 94 q 589 145 572 124 q 615 190 606 165 l 722 159 q 689 98 711 129 q 631 42 667 67 q 544 1 595 17 q 422 -14 492 -14 q 282 10 344 -14 q 178 82 220 34 q 112 203 135 131 q 90 371 90 275 q 116 548 90 477 q 189 664 143 620 q 293 728 234 709 q 418 747 353 747 q 568 718 507 747 q 668 638 630 690 q 724 515 707 587 q 742 357 742 444 l 742 341 l 218 341 m 419 657 q 354 647 388 657 q 290 612 319 637 q 241 544 261 587 q 219 435 221 501 l 616 435 q 592 541 610 498 q 549 609 575 583 q 489 646 522 635 q 419 657 456 657 m 604 838 l 230 838 l 230 924 l 604 924 l 604 838 "},"β":{"x_min":117,"x_max":765,"ha":834,"o":"m 765 274 q 747 162 765 214 q 691 70 729 109 q 594 8 653 30 q 454 -14 536 -14 q 331 4 385 -14 q 239 49 277 23 l 234 49 q 237 -20 236 11 q 239 -87 239 -51 l 239 -288 l 117 -288 l 117 696 q 194 931 117 856 q 424 1006 271 1006 q 543 990 491 1006 q 629 943 594 974 q 682 869 664 913 q 700 769 700 825 q 688 682 700 720 q 655 617 676 644 q 607 570 635 589 q 549 539 580 551 q 626 513 587 531 q 696 462 665 494 q 745 384 726 431 q 765 274 765 338 m 583 767 q 573 823 583 797 q 545 869 564 849 q 496 899 526 888 q 426 910 466 910 q 343 898 378 910 q 285 860 308 886 q 250 792 262 834 q 239 691 239 751 l 239 138 q 282 113 257 125 q 333 93 306 102 q 390 80 361 85 q 449 76 420 76 q 535 89 498 76 q 597 129 572 103 q 635 191 622 155 q 648 272 648 227 q 632 353 648 316 q 583 418 616 391 q 499 461 551 446 q 375 477 447 477 l 375 573 q 469 592 429 577 q 533 633 508 608 q 571 692 559 658 q 583 767 583 726 "},"≠":{"x_min":79,"x_max":754,"ha":834,"o":"m 338 233 l 235 37 l 137 37 l 239 233 l 79 233 l 79 333 l 289 333 l 418 581 l 79 581 l 79 681 l 467 681 l 572 879 l 669 879 l 565 681 l 754 681 l 754 581 l 516 581 l 386 333 l 754 333 l 754 233 l 338 233 "},"‼":{"x_min":161,"x_max":673.71875,"ha":834,"o":"m 279 269 l 178 269 l 162 914 l 295 914 l 279 269 m 161 0 l 161 136 l 293 136 l 293 0 l 161 0 m 657 269 l 556 269 l 540 914 l 673 914 l 657 269 m 539 0 l 539 136 l 671 136 l 671 0 l 539 0 "},"¥":{"x_min":36,"x_max":798,"ha":834,"o":"m 519 461 l 736 461 l 736 365 l 477 365 l 477 271 l 736 271 l 736 173 l 477 173 l 477 0 l 356 0 l 356 173 l 98 173 l 98 271 l 356 271 l 357 365 l 98 365 l 98 461 l 314 461 l 36 915 l 170 915 l 415 496 l 663 915 l 798 915 l 519 461 "},"Ĥ":{"x_min":110,"x_max":724,"ha":834,"o":"m 594 0 l 594 422 l 240 422 l 240 0 l 110 0 l 110 915 l 240 915 l 240 531 l 594 531 l 594 915 l 724 915 l 724 0 l 594 0 m 642 994 l 642 981 l 570 981 l 422 1075 l 420 1075 l 263 981 l 193 981 l 193 994 l 365 1157 l 476 1157 l 642 994 "},"U":{"x_min":96,"x_max":736,"ha":834,"o":"m 736 332 q 716 173 736 239 q 656 65 696 107 q 554 5 615 24 q 410 -14 493 -14 q 272 3 331 -14 q 174 61 213 21 q 115 164 135 101 q 96 319 96 228 l 96 915 l 226 915 l 226 337 q 234 224 226 271 q 263 148 242 177 q 319 104 284 118 q 409 91 355 91 q 503 104 465 91 q 564 148 541 118 q 597 227 587 178 q 607 346 607 276 l 607 915 l 736 915 l 736 332 "},"Ñ":{"x_min":110,"x_max":724,"ha":834,"o":"m 567 0 l 214 766 q 219 706 216 737 q 223 650 221 681 q 225 594 225 620 l 225 0 l 110 0 l 110 915 l 260 915 l 619 143 q 613 201 615 170 q 608 261 610 227 q 607 328 607 294 l 607 915 l 724 915 l 724 0 l 567 0 m 523 981 q 466 993 494 981 q 410 1021 437 1006 q 357 1049 383 1036 q 307 1062 331 1062 q 281 1056 291 1062 q 265 1040 272 1051 q 255 1015 259 1030 q 249 981 252 1000 l 174 981 q 184 1041 177 1011 q 206 1095 190 1071 q 246 1134 221 1119 q 311 1149 271 1149 q 369 1136 341 1149 q 425 1108 398 1123 q 477 1080 452 1093 q 525 1068 502 1068 q 550 1073 540 1068 q 567 1089 560 1078 q 577 1114 574 1099 q 584 1149 581 1129 l 660 1149 q 649 1089 656 1119 q 628 1035 643 1059 q 588 996 613 1011 q 523 981 563 981 "},"F":{"x_min":132,"x_max":736,"ha":834,"o":"m 262 809 l 262 474 l 720 474 l 720 367 l 262 367 l 262 0 l 132 0 l 132 915 l 736 915 l 736 809 l 262 809 "},"╤":{"x_min":-7,"x_max":841,"ha":834,"o":"m -7 255 l -7 353 l 841 353 l 841 255 l 466 255 l 466 -417 l 368 -417 l 368 255 l -7 255 m -7 499 l -7 597 l 841 597 l 841 499 l -7 499 "},"Ќ":{"x_min":114,"x_max":801,"ha":834,"o":"m 114 915 l 244 915 l 244 516 q 300 523 272 516 q 355 547 328 530 q 410 591 383 564 q 463 658 436 618 l 632 915 l 770 915 l 569 623 q 530 570 547 591 q 499 535 512 549 q 474 513 485 521 q 456 499 464 505 l 801 0 l 650 0 l 361 439 q 334 430 349 434 q 302 421 318 425 q 270 416 286 418 q 244 414 255 414 l 244 0 l 114 0 l 114 915 m 331 981 l 331 994 l 485 1157 l 619 1157 l 619 1137 l 415 981 l 331 981 "},"∕":{"x_min":137.75,"x_max":693.25,"ha":834,"o":"m 217 0 l 137 0 l 615 915 l 693 915 l 217 0 "},"å":{"x_min":87,"x_max":787,"ha":834,"o":"m 746 75 q 767 76 757 75 q 787 79 777 77 l 787 3 q 741 -4 763 -1 q 692 -7 718 -7 q 633 2 658 -7 q 592 29 608 11 q 569 75 577 48 q 559 139 561 103 l 555 139 q 512 76 536 104 q 460 27 489 47 q 391 -3 430 7 q 302 -14 352 -14 q 141 44 195 -14 q 87 204 87 102 q 113 323 87 276 q 183 396 140 369 q 282 433 227 422 q 394 444 337 443 l 555 447 l 555 487 q 545 564 555 532 q 518 615 536 596 q 471 644 499 635 q 404 654 442 654 q 343 648 371 654 q 296 630 316 643 q 264 594 276 617 q 247 537 251 571 l 119 548 q 145 628 126 592 q 197 691 163 664 q 282 732 231 717 q 406 747 333 747 q 609 683 541 747 q 678 500 678 620 l 678 184 q 692 102 678 129 q 746 75 706 75 m 333 79 q 431 100 390 79 q 500 154 472 121 q 541 226 527 186 q 555 301 555 265 l 555 362 l 426 359 q 351 353 388 358 q 283 332 313 348 q 234 284 253 315 q 215 202 215 254 q 245 112 215 146 q 333 79 275 79 m 575 914 q 564 863 575 888 q 534 820 554 839 q 483 790 514 801 q 411 779 452 779 q 338 790 369 779 q 287 820 307 801 q 257 863 267 839 q 247 914 247 888 q 257 965 247 941 q 287 1008 267 990 q 338 1038 307 1027 q 411 1050 369 1050 q 483 1038 452 1050 q 534 1008 514 1027 q 564 965 554 990 q 575 914 575 941 m 493 914 q 488 934 493 924 q 474 952 484 944 q 448 965 464 960 q 410 971 433 971 q 372 965 388 971 q 347 952 357 960 q 332 934 336 944 q 328 914 328 924 q 332 894 328 904 q 347 876 336 884 q 372 863 357 868 q 410 858 388 858 q 448 863 433 858 q 474 876 464 868 q 488 894 484 884 q 493 914 493 904 "},"Ϋ":{"x_min":25,"x_max":809,"ha":834,"o":"m 481 396 l 481 0 l 353 0 l 353 396 l 25 915 l 164 915 l 417 500 l 669 915 l 809 915 l 481 396 m 507 1008 l 507 1133 l 618 1133 l 618 1008 l 507 1008 m 240 1008 l 240 1133 l 352 1133 l 352 1008 l 240 1008 "},"0":{"x_min":84,"x_max":748,"ha":834,"o":"m 748 457 q 721 235 748 325 q 650 89 695 145 q 544 10 605 34 q 414 -14 483 -14 q 284 10 344 -14 q 179 89 223 34 q 109 234 134 144 q 84 457 84 325 q 109 686 84 595 q 179 831 134 777 q 285 907 224 885 q 418 929 346 929 q 546 907 486 929 q 651 831 606 885 q 722 686 696 777 q 748 457 748 595 m 624 457 q 610 637 624 565 q 570 752 596 709 q 505 812 543 794 q 418 830 467 830 q 327 812 366 830 q 260 751 287 794 q 220 637 234 708 q 207 457 207 565 q 220 282 207 353 q 261 167 234 210 q 327 104 288 123 q 415 86 365 86 q 502 104 463 86 q 567 167 541 123 q 609 282 594 210 q 624 457 624 353 m 336 376 l 336 545 l 496 545 l 496 376 l 336 376 "},"ō":{"x_min":88,"x_max":744,"ha":834,"o":"m 744 367 q 721 199 744 270 q 655 80 698 127 q 551 9 613 32 q 412 -14 490 -14 q 278 9 339 -14 q 176 79 218 32 q 111 198 134 127 q 88 367 88 270 q 173 651 88 556 q 417 747 259 747 q 663 652 582 747 q 744 367 744 558 m 616 367 q 601 508 616 452 q 560 597 586 564 q 498 643 534 630 q 419 657 462 657 q 337 643 374 657 q 273 595 300 629 q 231 506 246 561 q 216 367 216 450 q 231 225 216 281 q 274 136 247 169 q 337 89 301 103 q 411 76 372 76 q 493 89 455 76 q 558 135 531 102 q 600 225 585 168 q 616 367 616 281 m 604 838 l 230 838 l 230 924 l 604 924 l 604 838 "},"”":{"x_min":121,"x_max":712,"ha":834,"o":"m 418 584 l 532 1006 l 712 1006 l 501 584 l 418 584 m 121 584 l 235 1006 l 415 1006 l 204 584 l 121 584 "},"ö":{"x_min":88,"x_max":744,"ha":834,"o":"m 744 367 q 721 199 744 270 q 655 80 698 127 q 551 9 613 32 q 412 -14 490 -14 q 278 9 339 -14 q 176 79 218 32 q 111 198 134 127 q 88 367 88 270 q 173 651 88 556 q 417 747 259 747 q 663 652 582 747 q 744 367 744 558 m 616 367 q 601 508 616 452 q 560 597 586 564 q 498 643 534 630 q 419 657 462 657 q 337 643 374 657 q 273 595 300 629 q 231 506 246 561 q 216 367 216 450 q 231 225 216 281 q 274 136 247 169 q 337 89 301 103 q 411 76 372 76 q 493 89 455 76 q 558 135 531 102 q 600 225 585 168 q 616 367 616 281 m 494 827 l 494 952 l 605 952 l 605 827 l 494 827 m 227 827 l 227 952 l 339 952 l 339 827 l 227 827 "},"☺":{"x_min":18,"x_max":814,"ha":834,"o":"m 18 399 q 32 504 18 453 q 72 599 46 555 q 134 680 98 643 q 215 742 171 717 q 310 782 259 768 q 416 797 361 797 q 570 765 498 797 q 697 680 643 734 q 782 553 751 626 q 814 399 814 481 q 799 293 814 344 q 759 198 785 242 q 697 117 734 154 q 616 55 660 81 q 521 15 572 29 q 416 1 470 1 q 310 15 361 1 q 215 55 259 29 q 134 117 171 81 q 72 198 98 154 q 32 293 46 242 q 18 399 18 344 m 61 399 q 88 261 61 326 q 165 148 116 196 q 278 71 213 99 q 416 44 343 44 q 554 71 489 44 q 666 148 618 99 q 743 261 715 196 q 771 399 771 326 q 743 537 771 472 q 666 649 715 601 q 554 726 618 698 q 416 754 489 754 q 278 726 343 754 q 165 649 213 698 q 88 537 116 601 q 61 399 61 472 m 221 501 q 234 535 221 521 q 268 550 248 550 q 302 535 288 550 q 317 501 317 521 q 302 467 317 481 q 268 454 288 454 q 234 467 248 454 q 221 501 221 481 m 515 501 q 528 535 515 521 q 562 550 542 550 q 596 535 582 550 q 611 501 611 521 q 596 467 611 481 q 562 454 582 454 q 528 467 542 454 q 515 501 515 481 m 239 299 q 266 266 251 282 q 301 237 281 250 q 350 215 322 223 q 416 207 378 207 q 481 215 453 207 q 530 237 509 223 q 565 266 550 250 q 592 299 580 282 l 632 265 q 600 224 619 245 q 556 185 582 202 q 496 157 530 168 q 416 146 462 146 q 336 157 370 146 q 275 185 301 168 q 231 224 249 202 q 199 265 213 245 l 239 299 "},"╧":{"x_min":-7,"x_max":841,"ha":834,"o":"m -7 499 l -7 597 l 368 597 l 368 1156 l 466 1156 l 466 597 l 841 597 l 841 499 l -7 499 m -7 255 l -7 353 l 841 353 l 841 255 l -7 255 "},"ć":{"x_min":88,"x_max":733,"ha":834,"o":"m 88 367 q 117 550 88 477 q 194 667 146 624 q 303 729 242 711 q 429 747 364 747 q 547 730 495 747 q 637 683 600 713 q 699 613 675 653 q 732 527 723 573 l 602 518 q 547 615 591 579 q 423 651 503 651 q 325 632 365 651 q 261 578 285 613 q 226 489 237 542 q 216 369 216 437 q 226 247 216 301 q 261 156 237 193 q 325 99 285 119 q 422 80 364 80 q 544 115 495 80 q 604 226 592 151 l 733 217 q 703 130 726 172 q 642 56 680 88 q 549 5 603 24 q 428 -14 496 -14 q 270 15 335 -14 q 165 95 205 44 q 106 216 124 146 q 88 367 88 285 m 342 815 l 342 828 l 496 991 l 630 991 l 630 971 l 426 815 l 342 815 "},"þ":{"x_min":125,"x_max":739,"ha":834,"o":"m 613 370 q 604 491 613 438 q 576 580 596 544 q 523 635 556 616 q 441 655 490 655 q 366 642 401 655 q 304 596 330 629 q 263 505 278 563 q 248 355 248 447 q 260 223 248 277 q 297 137 273 170 q 357 90 321 104 q 440 76 393 76 q 522 95 489 76 q 576 152 556 114 q 604 244 596 189 q 613 370 613 299 m 249 613 q 287 674 266 648 q 336 716 309 700 q 397 741 363 733 q 473 749 431 749 q 598 721 547 749 q 680 644 649 694 q 725 524 711 594 q 739 370 739 455 q 725 216 739 286 q 680 94 711 145 q 598 14 649 43 q 473 -14 547 -14 q 401 -7 435 -14 q 338 14 368 0 q 287 53 309 29 q 248 110 264 76 l 245 110 q 246 98 245 109 q 246 72 246 88 q 247 37 247 57 q 248 -1 248 18 l 248 -288 l 125 -288 l 125 1006 l 247 1006 l 247 719 q 246 680 247 700 q 245 646 246 661 q 244 613 245 628 l 249 613 "},"]":{"x_min":183,"x_max":554,"ha":834,"o":"m 183 -288 l 183 -194 l 432 -194 l 432 912 l 183 912 l 183 1006 l 554 1006 l 554 -288 l 183 -288 "},"А":{"x_min":0,"x_max":833,"ha":834,"o":"m 701 0 l 607 259 l 226 259 l 132 0 l 0 0 l 346 915 l 493 915 l 833 0 l 701 0 m 475 647 q 457 699 466 672 q 439 749 447 725 q 426 791 432 773 q 417 817 420 809 q 409 790 415 809 q 396 748 404 772 q 380 698 388 725 q 362 647 371 672 l 260 360 l 574 360 l 475 647 "},"′":{"x_min":341,"x_max":493,"ha":834,"o":"m 464 573 l 368 573 l 341 1006 l 493 1006 l 464 573 "},"Ы":{"x_min":71,"x_max":762,"ha":834,"o":"m 567 266 q 545 158 567 207 q 483 74 524 109 q 380 19 441 39 q 237 0 318 0 l 71 0 l 71 915 l 187 915 l 187 524 l 229 524 q 481 456 396 524 q 567 266 567 388 m 457 265 q 233 429 457 429 l 187 429 l 187 96 l 239 96 q 404 138 351 96 q 457 265 457 180 m 646 0 l 646 915 l 762 915 l 762 0 l 646 0 "},"ẁ":{"x_min":14,"x_max":820,"ha":834,"o":"m 690 0 l 552 0 l 455 319 q 443 361 449 337 q 430 406 436 384 q 416 456 422 431 q 403 407 410 431 q 390 362 396 386 q 376 316 383 337 l 276 0 l 138 0 l 14 734 l 134 734 l 197 322 q 203 277 200 305 q 211 215 207 248 q 217 151 214 183 q 220 101 220 120 q 235 159 227 131 q 248 207 241 183 q 259 246 255 232 l 351 534 l 482 533 l 570 245 q 581 207 574 232 q 593 160 587 183 q 608 101 601 132 q 610 151 608 121 q 617 214 613 182 q 625 276 621 246 q 631 322 629 305 l 700 734 l 820 734 l 690 0 m 395 815 l 192 971 l 192 991 l 325 991 l 480 828 l 480 815 l 395 815 "},"ĭ":{"x_min":97,"x_max":763,"ha":834,"o":"m 505 96 l 763 96 l 763 0 l 97 0 l 97 96 l 383 96 l 383 638 l 167 638 l 167 734 l 505 734 l 505 96 m 429 815 q 342 830 379 815 q 279 872 304 846 q 238 929 253 897 q 218 991 223 960 l 304 991 q 344 923 315 947 q 429 900 374 900 q 516 923 487 900 q 557 991 545 947 l 643 991 q 621 929 636 960 q 581 872 607 897 q 518 830 556 846 q 429 815 481 815 "},"8":{"x_min":90,"x_max":742,"ha":834,"o":"m 742 255 q 722 149 742 198 q 663 63 703 100 q 562 6 623 27 q 416 -14 501 -14 q 270 6 332 -14 q 169 63 209 27 q 109 149 128 99 q 90 254 90 198 q 105 341 90 302 q 148 409 121 380 q 209 455 175 437 q 280 478 243 472 l 280 481 q 208 512 240 491 q 155 561 177 533 q 123 624 134 590 q 112 694 112 658 q 131 782 112 740 q 188 857 150 825 q 283 909 226 890 q 413 929 339 929 q 548 909 491 929 q 643 857 606 889 q 699 781 681 824 q 718 692 718 738 q 706 623 718 657 q 674 561 695 589 q 621 511 652 532 q 548 483 589 491 l 548 480 q 625 455 589 473 q 686 409 660 437 q 727 342 712 380 q 742 255 742 304 m 591 686 q 581 745 591 717 q 551 793 572 773 q 496 826 530 814 q 413 838 462 838 q 332 826 365 838 q 277 793 298 814 q 246 745 255 773 q 237 686 237 717 q 244 633 237 660 q 271 581 251 605 q 325 543 291 558 q 414 528 360 528 q 507 543 473 528 q 560 582 542 559 q 585 633 579 606 q 591 686 591 661 m 615 267 q 605 328 615 297 q 572 382 596 358 q 510 421 549 406 q 413 436 471 436 q 322 421 359 436 q 261 381 284 406 q 226 327 237 357 q 216 264 216 296 q 226 190 216 224 q 261 131 237 156 q 323 92 285 106 q 417 78 362 78 q 511 91 473 78 q 572 131 549 105 q 605 191 595 156 q 615 267 615 226 "},"R":{"x_min":110,"x_max":798.25,"ha":834,"o":"m 649 0 l 400 390 l 240 390 l 240 0 l 110 0 l 110 915 l 436 915 q 578 897 518 915 q 679 847 639 880 q 740 767 720 814 q 760 662 760 721 q 746 578 760 619 q 705 501 733 536 q 632 440 676 466 q 527 404 588 415 l 798 0 l 649 0 m 630 659 q 424 811 630 811 l 240 811 l 240 492 l 429 492 q 524 505 485 492 q 585 541 562 519 q 619 595 609 564 q 630 659 630 625 "},"Ż":{"x_min":50,"x_max":784,"ha":834,"o":"m 784 0 l 50 0 l 50 97 l 604 809 l 100 809 l 100 915 l 752 915 l 752 820 l 196 106 l 784 106 l 784 0 m 359 980 l 359 1110 l 495 1110 l 495 980 l 359 980 "},"ħ":{"x_min":35,"x_max":712,"ha":834,"o":"m 125 1006 l 247 1006 l 247 900 l 451 900 l 451 811 l 247 811 l 247 721 q 245 653 247 687 q 241 587 243 619 l 243 587 q 281 645 259 619 q 331 689 303 671 q 394 717 359 707 q 474 727 430 727 q 574 712 530 727 q 649 665 618 697 q 696 585 680 634 q 712 468 712 537 l 712 0 l 589 0 l 589 451 q 577 540 589 505 q 546 596 566 575 q 499 624 526 616 q 439 633 472 633 q 364 617 399 633 q 303 573 329 602 q 261 502 276 544 q 247 405 247 460 l 247 0 l 125 0 l 125 811 l 35 811 l 35 900 l 125 900 l 125 1006 "},"õ":{"x_min":88,"x_max":744,"ha":834,"o":"m 744 367 q 721 199 744 270 q 655 80 698 127 q 551 9 613 32 q 412 -14 490 -14 q 278 9 339 -14 q 176 79 218 32 q 111 198 134 127 q 88 367 88 270 q 173 651 88 556 q 417 747 259 747 q 663 652 582 747 q 744 367 744 558 m 616 367 q 601 508 616 452 q 560 597 586 564 q 498 643 534 630 q 419 657 462 657 q 337 643 374 657 q 273 595 300 629 q 231 506 246 561 q 216 367 216 450 q 231 225 216 281 q 274 136 247 169 q 337 89 301 103 q 411 76 372 76 q 493 89 455 76 q 558 135 531 102 q 600 225 585 168 q 616 367 616 281 m 522 815 q 465 827 493 815 q 409 855 436 840 q 356 883 382 870 q 306 896 330 896 q 280 890 290 896 q 264 874 271 885 q 254 849 258 864 q 248 815 251 834 l 173 815 q 183 875 176 845 q 205 929 189 905 q 245 968 220 953 q 310 983 270 983 q 368 970 340 983 q 424 942 397 957 q 476 914 451 927 q 524 902 501 902 q 549 907 539 902 q 566 923 559 912 q 576 948 573 933 q 583 983 580 963 l 659 983 q 648 923 655 953 q 627 869 642 893 q 587 830 612 845 q 522 815 562 815 "},"─":{"x_min":-7,"x_max":841,"ha":834,"o":"m -7 377 l -7 475 l 841 475 l 841 377 l -7 377 "},"˙":{"x_min":349,"x_max":485,"ha":834,"o":"m 349 876 l 349 1006 l 485 1006 l 485 876 l 349 876 "},"ê":{"x_min":90,"x_max":742,"ha":834,"o":"m 218 341 q 230 234 218 283 q 269 151 243 186 q 333 97 295 116 q 422 78 372 78 q 491 86 459 78 q 547 109 522 94 q 589 145 572 124 q 615 190 606 165 l 722 159 q 689 98 711 129 q 631 42 667 67 q 544 1 595 17 q 422 -14 492 -14 q 282 10 344 -14 q 178 82 220 34 q 112 203 135 131 q 90 371 90 275 q 116 548 90 477 q 189 664 143 620 q 293 728 234 709 q 418 747 353 747 q 568 718 507 747 q 668 638 630 690 q 724 515 707 587 q 742 357 742 444 l 742 341 l 218 341 m 419 657 q 354 647 388 657 q 290 612 319 637 q 241 544 261 587 q 219 435 221 501 l 616 435 q 592 541 610 498 q 549 609 575 583 q 489 646 522 635 q 419 657 456 657 m 645 828 l 645 815 l 573 815 l 425 909 l 423 909 l 266 815 l 196 815 l 196 828 l 368 991 l 479 991 l 645 828 "},"″":{"x_min":188,"x_max":645,"ha":834,"o":"m 616 573 l 520 573 l 493 1006 l 645 1006 l 616 573 m 311 573 l 215 573 l 188 1006 l 340 1006 l 311 573 "},"„":{"x_min":121,"x_max":712,"ha":834,"o":"m 418 -247 l 532 175 l 712 175 l 501 -247 l 418 -247 m 121 -247 l 235 175 l 415 175 l 204 -247 l 121 -247 "},"ч":{"x_min":104,"x_max":693,"ha":834,"o":"m 226 734 l 226 461 q 233 417 226 437 q 256 382 240 397 q 297 359 272 367 q 360 351 323 351 q 411 353 384 351 q 464 361 437 356 q 518 373 492 366 q 571 386 545 379 l 571 734 l 693 734 l 693 0 l 571 0 l 571 315 q 514 294 545 305 q 448 274 483 283 q 377 259 413 265 q 303 254 340 254 q 154 307 204 254 q 104 454 104 361 l 104 734 l 226 734 "},"δ":{"x_min":76,"x_max":752,"ha":834,"o":"m 624 318 q 605 425 624 376 q 561 513 587 474 q 509 582 536 552 q 464 629 482 611 q 368 584 415 611 q 284 518 321 556 q 226 430 248 479 q 204 318 204 380 q 217 222 204 267 q 257 145 231 178 q 323 94 284 113 q 415 76 363 76 q 509 94 469 76 q 574 144 549 112 q 612 221 600 177 q 624 318 624 265 m 439 909 q 416 909 430 909 q 387 911 402 910 q 357 913 372 912 q 334 914 343 913 l 549 702 q 622 626 586 665 q 687 541 659 586 q 734 442 716 495 q 752 321 752 388 q 728 185 752 247 q 661 79 705 123 q 556 10 618 34 q 415 -14 493 -14 q 275 9 337 -14 q 168 75 212 32 q 100 180 124 118 q 76 320 76 242 q 102 455 76 396 q 173 561 128 515 q 277 640 218 607 q 401 695 336 672 l 185 917 l 185 1006 l 692 1006 l 692 909 l 439 909 "},"Â":{"x_min":0,"x_max":833,"ha":834,"o":"m 701 0 l 607 259 l 226 259 l 132 0 l 0 0 l 346 915 l 493 915 l 833 0 l 701 0 m 475 647 q 457 699 466 672 q 439 749 447 725 q 426 791 432 773 q 417 817 420 809 q 409 790 415 809 q 396 748 404 772 q 380 698 388 725 q 362 647 371 672 l 260 360 l 574 360 l 475 647 m 641 993 l 641 980 l 569 980 l 421 1074 l 419 1074 l 262 980 l 192 980 l 192 993 l 364 1156 l 475 1156 l 641 993 "},"Į":{"x_min":138,"x_max":696,"ha":834,"o":"m 138 915 l 696 915 l 696 809 l 482 809 l 482 106 l 696 106 l 696 0 l 138 0 l 138 106 l 352 106 l 352 809 l 138 809 l 138 915 m 546 -271 q 503 -284 527 -279 q 451 -290 478 -290 q 344 -255 380 -290 q 309 -163 309 -220 q 320 -104 309 -131 q 348 -56 332 -77 q 382 -21 364 -36 q 414 0 401 -7 l 504 0 q 469 -24 487 -9 q 437 -60 452 -40 q 414 -103 423 -80 q 405 -153 405 -127 q 421 -198 405 -182 q 468 -215 438 -215 q 507 -210 487 -215 q 546 -198 527 -206 l 546 -271 "},"ω":{"x_min":36,"x_max":799,"ha":834,"o":"m 472 304 q 480 209 472 251 q 503 137 488 166 q 538 91 518 107 q 583 76 558 76 q 627 95 609 76 q 658 150 646 114 q 676 235 670 185 q 683 346 683 285 q 675 454 683 402 q 652 547 668 505 q 610 618 636 589 q 547 657 585 646 l 568 748 q 670 697 627 735 q 742 605 714 659 q 785 484 771 550 q 799 350 799 418 q 784 195 799 263 q 742 81 769 127 q 677 10 715 34 q 592 -14 639 -14 q 530 -1 558 -14 q 480 35 501 11 q 442 93 458 59 q 419 167 427 126 l 416 167 q 392 93 408 126 q 355 35 376 59 q 304 -1 333 11 q 242 -14 276 -14 q 157 10 195 -14 q 92 81 119 34 q 50 195 65 127 q 36 350 36 263 q 49 484 36 418 q 92 605 63 550 q 164 697 120 659 q 266 748 207 735 l 288 657 q 223 618 249 646 q 181 547 197 589 q 158 454 165 505 q 152 346 152 402 q 158 235 152 285 q 176 150 164 185 q 207 95 188 114 q 251 76 226 76 q 300 94 279 76 q 335 143 321 112 q 356 215 349 174 q 364 304 364 257 l 364 475 l 472 475 l 472 304 "},"Ţ":{"x_min":52,"x_max":781,"ha":834,"o":"m 481 809 l 481 0 l 352 0 l 352 809 l 52 809 l 52 915 l 781 915 l 781 809 l 481 809 m 303 -286 l 303 -263 l 356 -66 l 490 -66 l 490 -91 l 374 -286 l 303 -286 "},"´":{"x_min":273,"x_max":561,"ha":834,"o":"m 273 815 l 273 828 l 427 991 l 561 991 l 561 971 l 357 815 l 273 815 "},"Ĉ":{"x_min":77,"x_max":775,"ha":834,"o":"m 213 461 q 226 303 213 372 q 268 187 240 234 q 341 115 297 139 q 448 91 386 91 q 525 107 491 91 q 586 149 559 123 q 633 210 613 176 q 667 282 652 245 l 775 237 q 728 145 756 190 q 661 64 700 100 q 569 7 621 29 q 447 -14 516 -14 q 282 20 351 -14 q 166 116 212 54 q 99 266 121 179 q 77 461 77 354 q 98 661 77 574 q 165 807 120 748 q 278 898 210 867 q 440 929 347 929 q 560 910 509 929 q 650 860 612 891 q 713 787 687 828 q 757 702 740 746 l 643 658 q 615 718 632 689 q 572 771 597 748 q 514 808 547 794 q 441 823 482 823 q 337 799 380 823 q 266 731 294 776 q 225 617 238 685 q 213 461 213 550 m 655 994 l 655 981 l 583 981 l 435 1075 l 433 1075 l 276 981 l 206 981 l 206 994 l 378 1157 l 489 1157 l 655 994 "},"И":{"x_min":110,"x_max":723,"ha":834,"o":"m 110 0 l 110 915 l 227 915 l 227 328 q 225 261 227 294 q 220 201 223 227 q 214 143 218 170 l 572 915 l 723 915 l 723 0 l 608 0 l 608 594 q 609 650 608 620 q 613 706 611 681 q 618 766 616 737 l 266 0 l 110 0 "},"⌡":{"x_min":138,"x_max":466,"ha":834,"o":"m 368 1156 l 466 1156 l 466 -79 q 453 -212 466 -150 q 415 -319 441 -273 q 349 -390 389 -364 q 253 -417 309 -417 q 211 -410 232 -417 q 173 -393 190 -404 q 147 -366 157 -382 q 138 -329 138 -349 q 154 -286 138 -303 q 195 -270 171 -270 q 236 -282 222 -270 q 261 -309 251 -294 q 280 -335 270 -323 q 304 -348 289 -348 q 333 -336 321 -348 q 352 -300 344 -325 q 364 -233 360 -274 q 368 -132 368 -192 l 368 1156 "},"○":{"x_min":111,"x_max":723,"ha":834,"o":"m 111 414 q 134 534 111 478 q 199 632 158 590 q 296 697 241 673 q 415 722 352 722 q 535 697 479 722 q 633 632 591 673 q 698 534 674 590 q 723 414 723 478 q 698 295 723 351 q 633 198 674 240 q 535 133 591 157 q 415 110 479 110 q 296 133 352 110 q 199 198 241 157 q 134 295 158 240 q 111 414 111 351 m 169 414 q 188 318 169 363 q 240 240 207 273 q 319 187 274 206 q 415 168 364 168 q 513 187 467 168 q 592 240 558 206 q 645 318 625 273 q 665 414 665 363 q 645 512 665 466 q 592 591 625 557 q 513 644 558 624 q 415 664 467 664 q 319 644 364 664 q 240 591 274 624 q 188 512 207 557 q 169 414 169 466 "},"Љ":{"x_min":0,"x_max":815,"ha":834,"o":"m 815 266 q 797 162 815 210 q 748 77 780 113 q 670 20 716 41 q 567 0 624 0 l 415 0 l 415 820 l 291 820 l 271 529 q 255 331 263 415 q 234 186 246 246 q 207 88 223 126 q 170 28 192 50 q 120 -2 148 5 q 54 -11 92 -11 q 23 -9 37 -11 q 0 -4 9 -7 l 0 85 q 17 82 7 83 q 34 81 27 81 q 68 85 53 81 q 95 106 83 90 q 118 151 108 121 q 136 233 127 182 q 153 360 145 285 q 169 542 161 435 l 197 915 l 531 915 l 531 524 l 559 524 q 665 505 618 524 q 746 453 713 486 q 797 372 779 419 q 815 266 815 324 m 705 265 q 694 333 705 303 q 664 384 683 363 q 619 417 645 405 q 564 429 593 429 l 531 429 l 531 96 l 569 96 q 624 107 600 96 q 667 141 649 119 q 695 195 685 163 q 705 265 705 226 "},"р":{"x_min":120.9375,"x_max":739,"ha":834,"o":"m 739 370 q 725 216 739 286 q 680 94 711 145 q 598 14 649 43 q 473 -14 547 -14 q 401 -7 435 -14 q 338 14 368 0 q 287 53 309 29 q 248 110 264 76 l 245 110 q 246 98 245 109 q 246 72 246 88 q 247 37 247 57 q 248 -1 248 18 l 248 -288 l 125 -288 l 125 582 q 124 634 125 609 q 123 679 124 659 q 122 713 122 699 q 120 734 121 727 l 239 734 q 241 719 240 731 q 243 689 242 706 q 245 651 244 671 q 246 613 246 630 l 249 613 q 287 674 266 648 q 336 716 309 700 q 397 741 363 733 q 473 749 431 749 q 598 721 547 749 q 680 644 649 694 q 725 524 711 594 q 739 370 739 455 m 613 370 q 604 491 613 438 q 576 580 596 544 q 523 635 556 616 q 441 655 490 655 q 366 642 401 655 q 304 596 330 629 q 263 505 278 563 q 248 355 248 447 q 260 223 248 277 q 297 137 273 170 q 357 90 321 104 q 440 76 393 76 q 522 95 489 76 q 576 152 556 114 q 604 244 596 189 q 613 370 613 299 "},"Ω":{"x_min":40,"x_max":794,"ha":834,"o":"m 417 929 q 567 900 501 929 q 681 818 634 871 q 753 690 728 764 q 778 522 778 615 q 762 397 778 458 q 718 282 747 337 q 647 181 690 228 q 550 98 604 135 q 591 102 571 100 q 627 104 609 103 q 658 106 645 106 l 794 106 l 794 0 l 467 0 l 467 152 q 552 231 517 189 q 607 320 587 274 q 637 414 628 366 q 646 513 646 463 q 632 642 646 585 q 591 739 619 698 q 519 801 563 779 q 417 823 476 823 q 314 801 357 823 q 243 739 270 779 q 201 642 215 698 q 188 513 188 585 q 196 414 188 463 q 226 320 205 366 q 282 231 247 274 q 368 152 316 189 l 368 0 l 40 0 l 40 106 l 175 106 q 206 104 188 106 q 242 102 225 103 q 285 98 263 100 q 187 181 229 135 q 115 282 144 228 q 71 397 86 337 q 56 522 56 458 q 80 690 56 615 q 152 818 105 764 q 266 900 199 871 q 417 929 332 929 "},"т":{"x_min":89,"x_max":745,"ha":834,"o":"m 89 734 l 745 734 l 745 638 l 478 638 l 478 0 l 356 0 l 356 638 l 89 638 l 89 734 "},"П":{"x_min":110,"x_max":724,"ha":834,"o":"m 594 0 l 594 806 l 240 806 l 240 0 l 110 0 l 110 915 l 724 915 l 724 0 l 594 0 "},"Ö":{"x_min":69,"x_max":764,"ha":834,"o":"m 764 461 q 740 255 764 344 q 671 106 716 166 q 562 16 626 46 q 415 -14 497 -14 q 264 17 329 -14 q 155 110 199 49 q 90 259 112 171 q 69 461 69 348 q 92 666 69 578 q 159 812 115 753 q 268 899 203 870 q 417 929 333 929 q 674 811 584 929 q 764 461 764 693 m 628 461 q 574 733 628 644 q 417 823 520 823 q 258 733 311 823 q 205 461 205 644 q 258 184 205 278 q 416 91 312 91 q 577 185 527 91 q 628 461 628 280 m 496 980 l 496 1105 l 607 1105 l 607 980 l 496 980 m 229 980 l 229 1105 l 341 1105 l 341 980 l 229 980 "},"z":{"x_min":100,"x_max":725,"ha":834,"o":"m 100 0 l 100 92 l 562 640 l 127 640 l 127 734 l 700 734 l 700 641 l 236 94 l 725 94 l 725 0 l 100 0 "},"™":{"x_min":3,"x_max":831,"ha":834,"o":"m 760 571 l 760 809 l 760 918 q 755 906 758 912 q 752 896 753 900 q 749 887 750 891 l 619 571 l 559 571 l 467 803 q 459 824 465 805 q 444 863 452 842 q 423 918 434 887 l 423 889 l 423 571 l 352 571 l 352 1006 l 457 1006 l 582 690 q 585 684 584 688 q 588 676 587 680 q 591 666 590 672 q 612 718 603 695 q 619 737 616 728 q 626 754 623 747 q 631 767 629 762 q 633 773 633 773 l 728 1006 l 831 1006 l 831 571 l 760 571 m 194 944 l 194 571 l 119 571 l 119 944 l 3 944 l 3 1006 l 313 1006 l 313 944 l 194 944 "},"╦":{"x_min":-7,"x_max":841,"ha":834,"o":"m 344 -417 l 246 -417 l 246 255 l -7 255 l -7 353 l 344 353 l 344 -417 m 490 353 l 841 353 l 841 255 l 588 255 l 588 -417 l 490 -417 l 490 353 m 841 597 l 841 499 l -7 499 l -7 597 l 841 597 "},"Θ":{"x_min":69,"x_max":764,"ha":834,"o":"m 764 461 q 740 255 764 344 q 671 106 716 166 q 562 16 626 46 q 415 -14 497 -14 q 264 17 329 -14 q 155 110 199 49 q 90 259 112 171 q 69 461 69 348 q 92 666 69 578 q 159 812 115 753 q 268 899 203 870 q 417 929 333 929 q 674 811 584 929 q 764 461 764 693 m 628 461 q 574 733 628 644 q 417 823 520 823 q 258 733 311 823 q 205 461 205 644 q 258 184 205 278 q 416 91 312 91 q 577 185 527 91 q 628 461 628 280 m 531 513 l 531 409 l 303 409 l 303 513 l 531 513 "},"Ř":{"x_min":110,"x_max":798.25,"ha":834,"o":"m 649 0 l 400 390 l 240 390 l 240 0 l 110 0 l 110 915 l 436 915 q 578 897 518 915 q 679 847 639 880 q 740 767 720 814 q 760 662 760 721 q 746 578 760 619 q 705 501 733 536 q 632 440 676 466 q 527 404 588 415 l 798 0 l 649 0 m 630 659 q 424 811 630 811 l 240 811 l 240 492 l 429 492 q 524 505 485 492 q 585 541 562 519 q 619 595 609 564 q 630 659 630 625 m 463 981 l 352 981 l 180 1143 l 180 1157 l 250 1157 l 407 1063 l 409 1063 l 557 1157 l 629 1157 l 629 1143 l 463 981 "},"╖":{"x_min":-7,"x_max":588,"ha":834,"o":"m -7 377 l -7 475 l 588 475 l 588 -417 l 490 -417 l 490 377 l 344 377 l 344 -417 l 246 -417 l 246 377 l -7 377 "},"Ň":{"x_min":110,"x_max":724,"ha":834,"o":"m 567 0 l 214 766 q 219 706 216 737 q 223 650 221 681 q 225 594 225 620 l 225 0 l 110 0 l 110 915 l 260 915 l 619 143 q 613 201 615 170 q 608 261 610 227 q 607 328 607 294 l 607 915 l 724 915 l 724 0 l 567 0 m 480 981 l 369 981 l 197 1143 l 197 1157 l 267 1157 l 424 1063 l 426 1063 l 574 1157 l 646 1157 l 646 1143 l 480 981 "},"É":{"x_min":110,"x_max":761,"ha":834,"o":"m 110 0 l 110 915 l 733 915 l 733 809 l 240 809 l 240 523 l 693 523 l 693 419 l 240 419 l 240 106 l 761 106 l 761 0 l 110 0 m 334 980 l 334 993 l 488 1156 l 622 1156 l 622 1136 l 418 980 l 334 980 "},"и":{"x_min":125,"x_max":709,"ha":834,"o":"m 243 734 l 243 332 q 241 290 243 316 q 239 236 240 264 q 237 183 238 208 q 236 144 236 158 l 575 734 l 709 734 l 709 0 l 592 0 l 592 447 q 592 479 592 460 q 594 519 593 499 q 596 559 595 540 q 598 592 598 578 l 255 0 l 125 0 l 125 734 l 243 734 "},"³":{"x_min":208,"x_max":625,"ha":834,"o":"m 625 539 q 572 417 625 460 q 423 374 519 374 q 325 387 364 374 q 261 422 285 400 q 224 471 236 443 q 208 528 212 498 l 300 537 q 335 468 306 491 q 423 445 365 445 q 503 469 475 445 q 532 545 532 493 q 519 593 532 575 q 488 622 506 612 q 446 634 469 631 q 404 638 423 638 l 363 638 l 363 712 l 401 712 q 441 716 421 712 q 479 731 462 720 q 507 759 496 741 q 518 804 518 777 q 492 868 518 845 q 419 892 467 892 q 345 868 373 892 q 313 801 317 844 l 221 809 q 242 877 225 848 q 286 925 259 906 q 348 954 313 945 q 422 964 383 964 q 504 952 469 964 q 563 921 539 941 q 599 874 587 901 q 611 816 611 848 q 581 728 611 766 q 491 678 552 691 l 491 676 q 552 660 526 673 q 593 629 577 648 q 617 588 610 611 q 625 539 625 565 "},"♦":{"x_min":90,"x_max":744,"ha":834,"o":"m 412 -1 q 343 93 381 43 q 263 196 305 144 q 177 302 221 249 q 90 404 133 355 l 90 407 q 177 509 133 456 q 263 615 221 562 q 343 718 305 667 q 412 813 381 768 l 421 813 q 490 718 452 768 q 570 615 528 667 q 656 509 612 562 q 744 407 700 456 l 744 404 q 656 302 700 355 q 570 196 612 249 q 490 93 528 144 q 421 -1 452 43 l 412 -1 "},"[":{"x_min":278,"x_max":649,"ha":834,"o":"m 278 -288 l 278 1006 l 649 1006 l 649 912 l 400 912 l 400 -194 l 649 -194 l 649 -288 l 278 -288 "},"ζ":{"x_min":125,"x_max":747,"ha":834,"o":"m 255 257 q 276 187 255 213 q 333 145 298 161 q 410 120 368 129 q 494 101 453 111 q 549 87 520 95 q 606 70 578 80 q 660 47 634 60 q 704 16 685 34 q 735 -26 723 -1 q 747 -81 747 -50 q 740 -129 747 -104 q 726 -175 734 -153 q 707 -216 717 -197 q 690 -246 697 -234 l 605 -208 q 618 -188 611 -199 q 630 -164 624 -177 q 639 -138 635 -151 q 643 -112 643 -125 q 625 -72 643 -89 q 578 -43 607 -56 q 510 -21 548 -31 q 430 -4 472 -12 q 365 10 400 2 q 297 31 331 19 q 232 61 263 43 q 177 105 200 79 q 139 165 153 130 q 125 244 125 199 q 145 360 125 301 q 200 476 165 418 q 281 592 235 535 q 380 705 328 650 q 489 812 433 760 q 598 910 545 863 l 598 914 q 578 912 590 913 q 552 911 567 912 q 523 910 538 910 q 492 910 508 910 l 180 910 l 180 1006 l 723 1006 l 723 913 q 615 812 670 865 q 508 704 560 760 q 410 591 456 649 q 329 476 364 533 q 274 364 294 419 q 255 257 255 308 "},"∏":{"x_min":71,"x_max":761,"ha":834,"o":"m 636 -309 l 636 805 l 201 805 l 201 -309 l 71 -309 l 71 915 l 761 915 l 761 -309 l 636 -309 "},"Έ":{"x_min":-32,"x_max":827,"ha":834,"o":"m 176 0 l 176 915 l 799 915 l 799 809 l 306 809 l 306 523 l 759 523 l 759 419 l 306 419 l 306 106 l 827 106 l 827 0 l 176 0 m -32 696 l -32 718 l 21 916 l 155 916 l 155 890 l 39 696 l -32 696 "},"Ρ":{"x_min":110,"x_max":759,"ha":834,"o":"m 759 641 q 739 531 759 584 q 678 438 719 479 q 575 373 637 397 q 430 349 513 349 l 240 349 l 240 0 l 110 0 l 110 915 l 421 915 q 569 895 506 915 q 674 839 632 875 q 737 753 716 803 q 759 641 759 702 m 629 638 q 573 767 629 723 q 406 811 517 811 l 240 811 l 240 451 l 412 451 q 508 465 467 451 q 576 505 549 480 q 616 564 603 530 q 629 638 629 599 "},"ğ":{"x_min":97,"x_max":715.0625,"ha":834,"o":"m 417 -288 q 309 -275 356 -288 q 229 -238 263 -262 q 175 -180 195 -214 q 145 -106 154 -147 l 270 -90 q 320 -168 282 -140 q 421 -196 359 -196 q 491 -184 460 -196 q 544 -147 522 -172 q 578 -81 566 -121 q 590 17 590 -40 l 590 149 l 588 149 q 555 96 575 122 q 507 51 535 71 q 441 19 479 31 q 355 8 404 8 q 237 30 286 8 q 157 98 188 52 q 111 212 126 143 q 97 372 97 280 q 111 530 97 460 q 158 647 126 599 q 242 719 190 694 q 368 745 293 745 q 502 709 445 745 q 589 608 558 673 l 591 608 q 592 646 591 625 q 594 685 593 667 q 597 718 595 704 q 599 734 598 731 l 715 734 q 713 713 714 727 q 712 678 713 698 q 711 633 711 658 q 711 581 711 608 l 711 21 q 639 -210 711 -132 q 417 -288 567 -288 m 590 373 q 573 503 590 449 q 530 590 557 557 q 469 639 503 624 q 399 654 435 654 q 320 638 353 654 q 265 589 286 623 q 233 503 243 556 q 223 373 223 449 q 233 241 223 293 q 264 156 243 188 q 319 111 286 124 q 396 98 352 98 q 467 112 433 98 q 529 159 502 127 q 573 244 556 192 q 590 373 590 297 m 409 815 q 322 830 359 815 q 259 872 284 846 q 218 929 233 897 q 198 991 203 960 l 284 991 q 324 923 295 947 q 409 900 354 900 q 496 923 467 900 q 537 991 525 947 l 623 991 q 601 929 616 960 q 561 872 587 897 q 498 830 536 846 q 409 815 461 815 "},"ª":{"x_min":140,"x_max":692,"ha":834,"o":"m 140 590 q 159 668 140 636 q 212 718 179 699 q 290 745 246 737 q 382 754 334 753 l 512 756 l 512 785 q 480 878 512 848 q 389 909 448 909 q 301 886 332 909 q 263 811 270 863 l 162 817 q 183 877 167 849 q 228 926 199 905 q 298 959 256 947 q 392 971 339 971 q 552 925 496 971 q 609 790 609 880 l 609 593 q 619 534 609 554 q 658 513 629 513 q 676 515 667 513 q 692 519 685 517 l 692 454 q 657 448 676 450 q 622 446 638 446 q 542 474 567 446 q 514 554 516 503 l 512 554 q 433 472 482 502 q 314 442 383 442 q 186 480 232 442 q 140 590 140 519 m 240 603 q 246 568 240 585 q 265 538 252 551 q 297 518 277 525 q 342 511 316 511 q 413 526 382 511 q 467 564 445 541 q 500 614 489 587 q 512 666 512 641 l 512 701 l 407 698 q 343 693 373 697 q 290 678 313 688 q 253 650 267 668 q 240 603 240 632 "},"ї":{"x_min":97,"x_max":763,"ha":834,"o":"m 505 96 l 763 96 l 763 0 l 97 0 l 97 96 l 383 96 l 383 638 l 167 638 l 167 734 l 505 734 l 505 96 m 522 827 l 522 952 l 633 952 l 633 827 l 522 827 m 255 827 l 255 952 l 367 952 l 367 827 l 255 827 "},"T":{"x_min":52,"x_max":781,"ha":834,"o":"m 481 809 l 481 0 l 352 0 l 352 809 l 52 809 l 52 915 l 781 915 l 781 809 l 481 809 "},"š":{"x_min":113,"x_max":719,"ha":834,"o":"m 719 209 q 698 116 719 157 q 640 46 678 74 q 547 1 602 17 q 421 -14 492 -14 q 306 -4 357 -14 q 216 25 254 4 q 151 81 177 46 q 113 167 125 116 l 221 189 q 247 129 229 151 q 290 96 265 107 q 349 80 315 84 q 420 77 382 77 q 493 82 460 77 q 551 102 527 88 q 590 138 576 116 q 604 192 604 160 q 586 247 604 226 q 539 282 569 268 q 468 306 509 296 q 379 329 427 317 q 293 354 336 341 q 216 390 250 368 q 162 446 183 412 q 142 532 142 480 q 213 688 142 632 q 422 745 285 745 q 522 735 475 745 q 606 703 569 725 q 667 648 642 682 q 702 568 692 615 l 592 555 q 571 604 587 585 q 533 634 556 623 q 482 649 510 645 q 422 654 453 654 q 256 551 256 654 q 270 501 256 520 q 311 468 285 481 q 374 446 338 456 q 455 426 411 437 q 546 401 499 415 q 631 363 592 386 q 694 302 669 339 q 719 209 719 265 m 478 815 l 367 815 l 195 977 l 195 991 l 265 991 l 422 897 l 424 897 l 572 991 l 644 991 l 644 977 l 478 815 "},"є":{"x_min":98,"x_max":750,"ha":834,"o":"m 98 367 q 127 550 98 477 q 204 667 156 624 q 313 729 252 711 q 438 747 374 747 q 558 730 505 747 q 650 683 611 713 q 714 613 689 653 q 748 527 739 573 l 618 518 q 560 615 607 579 q 433 651 513 651 q 342 635 380 651 q 280 589 305 619 q 243 516 256 560 q 228 415 231 471 l 487 415 l 487 326 l 228 326 q 243 221 231 267 q 280 144 255 176 q 342 96 304 113 q 432 80 380 80 q 501 89 469 80 q 557 116 532 98 q 598 161 582 134 q 621 226 615 189 l 750 217 q 719 130 743 172 q 655 56 695 88 q 561 5 616 24 q 438 -14 506 -14 q 280 15 345 -14 q 175 95 215 44 q 116 216 134 146 q 98 367 98 285 "},"Þ":{"x_min":110,"x_max":759,"ha":834,"o":"m 759 469 q 739 355 759 409 q 678 260 719 301 q 575 196 637 220 q 430 172 513 172 l 240 172 l 240 0 l 110 0 l 110 915 l 240 915 l 240 756 l 422 756 q 569 735 506 756 q 674 677 632 715 q 738 586 717 639 q 759 469 759 533 m 629 466 q 573 608 629 557 q 406 659 517 659 l 240 659 l 240 268 l 412 268 q 508 282 467 268 q 576 324 549 297 q 616 387 603 351 q 629 466 629 424 "},"j":{"x_min":79,"x_max":567,"ha":834,"o":"m 567 -18 q 542 -143 567 -92 q 478 -227 518 -195 q 385 -273 438 -259 q 274 -288 332 -288 q 218 -285 246 -288 q 165 -279 190 -283 q 117 -270 139 -275 q 79 -258 95 -264 l 79 -163 q 114 -171 93 -167 q 159 -178 134 -175 q 210 -184 183 -182 q 264 -187 237 -187 q 335 -177 302 -187 q 392 -147 368 -168 q 431 -94 417 -126 q 445 -16 445 -62 l 445 638 l 169 638 l 169 734 l 567 734 l 567 -18 m 431 876 l 431 1006 l 567 1006 l 567 876 l 431 876 "},"Σ":{"x_min":73,"x_max":804,"ha":834,"o":"m 73 0 l 73 110 l 438 482 l 85 805 l 85 915 l 763 915 l 763 809 l 231 809 l 541 527 l 541 443 l 209 106 l 804 106 l 804 0 l 73 0 "},"1":{"x_min":100,"x_max":766,"ha":834,"o":"m 106 0 l 106 98 l 404 98 l 404 790 q 358 739 391 763 q 283 698 325 716 q 192 670 241 680 q 100 660 144 660 l 100 760 q 198 771 150 760 q 289 803 247 783 q 363 852 331 824 q 414 915 396 881 l 527 915 l 527 98 l 766 98 l 766 0 l 106 0 "},"░":{"x_min":0,"x_max":764,"ha":834,"o":"m 0 895 l 70 895 l 70 829 l 0 829 l 0 895 m 278 895 l 348 895 l 348 829 l 278 829 l 278 895 m 556 895 l 626 895 l 626 829 l 556 829 l 556 895 m 139 763 l 208 763 l 208 698 l 139 698 l 139 763 m 417 763 l 486 763 l 486 698 l 417 698 l 417 763 m 695 763 l 764 763 l 764 698 l 695 698 l 695 763 m 0 632 l 70 632 l 70 567 l 0 567 l 0 632 m 278 632 l 348 632 l 348 567 l 278 567 l 278 632 m 556 632 l 626 632 l 626 567 l 556 567 l 556 632 m 139 500 l 208 500 l 208 435 l 139 435 l 139 500 m 417 500 l 486 500 l 486 435 l 417 435 l 417 500 m 695 500 l 764 500 l 764 435 l 695 435 l 695 500 m 0 370 l 70 370 l 70 305 l 0 305 l 0 370 m 278 370 l 348 370 l 348 305 l 278 305 l 278 370 m 556 370 l 626 370 l 626 305 l 556 305 l 556 370 m 417 238 l 486 238 l 486 173 l 417 173 l 417 238 m 695 238 l 764 238 l 764 173 l 695 173 l 695 238 m 139 238 l 208 238 l 208 173 l 139 173 l 139 238 m 556 107 l 626 107 l 626 41 l 556 41 l 556 107 m 278 107 l 348 107 l 348 41 l 278 41 l 278 107 m 0 107 l 70 107 l 70 41 l 0 41 l 0 107 m 139 -25 l 208 -25 l 208 -89 l 139 -89 l 139 -25 m 417 -25 l 486 -25 l 486 -89 l 417 -89 l 417 -25 m 695 -25 l 764 -25 l 764 -89 l 695 -89 l 695 -25 m 556 -155 l 626 -155 l 626 -221 l 556 -221 l 556 -155 m 278 -155 l 348 -155 l 348 -221 l 278 -221 l 278 -155 m 0 -155 l 70 -155 l 70 -221 l 0 -221 l 0 -155 m 139 -286 l 208 -286 l 208 -351 l 139 -351 l 139 -286 m 417 -286 l 486 -286 l 486 -351 l 417 -351 l 417 -286 m 695 -286 l 764 -286 l 764 -351 l 695 -351 l 695 -286 m 139 1025 l 208 1025 l 208 959 l 139 959 l 139 1025 m 417 1025 l 486 1025 l 486 959 l 417 959 l 417 1025 m 695 1025 l 764 1025 l 764 959 l 695 959 l 695 1025 m 0 1156 l 70 1156 l 70 1091 l 0 1091 l 0 1156 m 278 1156 l 348 1156 l 348 1091 l 278 1091 l 278 1156 m 556 1156 l 626 1156 l 626 1091 l 556 1091 l 556 1156 "},"ℓ":{"x_min":194,"x_max":628,"ha":834,"o":"m 482 52 q 543 87 516 52 q 581 197 569 122 l 628 197 q 570 39 614 92 q 452 -14 526 -14 q 384 0 414 -14 q 330 39 353 13 q 296 106 308 66 q 284 199 284 146 l 284 318 q 239 297 262 306 q 194 279 217 287 l 194 329 q 240 347 217 338 q 284 368 262 357 l 284 766 q 292 843 284 806 q 320 907 300 880 q 374 952 340 935 q 456 969 407 969 q 520 954 491 969 q 569 914 549 940 q 601 849 590 887 q 613 765 613 812 q 596 637 613 698 q 549 524 579 576 q 480 432 520 472 q 397 367 441 392 l 397 201 q 404 134 397 162 q 424 87 411 106 q 451 60 436 69 q 482 52 466 52 m 551 760 q 544 824 551 795 q 526 873 537 853 q 498 905 514 894 q 465 917 482 917 q 430 904 444 917 q 409 871 417 892 q 399 823 402 851 q 397 765 397 796 l 397 421 q 458 478 430 443 q 507 558 486 513 q 539 654 528 602 q 551 760 551 705 "},"ĉ":{"x_min":88,"x_max":733,"ha":834,"o":"m 88 367 q 117 550 88 477 q 194 667 146 624 q 303 729 242 711 q 429 747 364 747 q 547 730 495 747 q 637 683 600 713 q 699 613 675 653 q 732 527 723 573 l 602 518 q 547 615 591 579 q 423 651 503 651 q 325 632 365 651 q 261 578 285 613 q 226 489 237 542 q 216 369 216 437 q 226 247 216 301 q 261 156 237 193 q 325 99 285 119 q 422 80 364 80 q 544 115 495 80 q 604 226 592 151 l 733 217 q 703 130 726 172 q 642 56 680 88 q 549 5 603 24 q 428 -14 496 -14 q 270 15 335 -14 q 165 95 205 44 q 106 216 124 146 q 88 367 88 285 m 641 828 l 641 815 l 569 815 l 421 909 l 419 909 l 262 815 l 192 815 l 192 828 l 364 991 l 475 991 l 641 828 "},"ī":{"x_min":97,"x_max":763,"ha":834,"o":"m 505 96 l 763 96 l 763 0 l 97 0 l 97 96 l 383 96 l 383 638 l 167 638 l 167 734 l 505 734 l 505 96 m 608 838 l 234 838 l 234 924 l 608 924 l 608 838 "},"О":{"x_min":69,"x_max":764,"ha":834,"o":"m 764 461 q 740 255 764 344 q 671 106 716 166 q 562 16 626 46 q 415 -14 497 -14 q 264 17 329 -14 q 155 110 199 49 q 90 259 112 171 q 69 461 69 348 q 92 666 69 578 q 159 812 115 753 q 268 899 203 870 q 417 929 333 929 q 674 811 584 929 q 764 461 764 693 m 628 461 q 574 733 628 644 q 417 823 520 823 q 258 733 311 823 q 205 461 205 644 q 258 184 205 278 q 416 91 312 91 q 577 185 527 91 q 628 461 628 280 "},"ξ":{"x_min":130,"x_max":718,"ha":834,"o":"m 130 239 q 149 340 130 291 q 211 432 169 390 q 318 505 253 474 q 475 548 383 535 l 475 549 q 373 566 420 553 q 293 602 327 579 q 241 658 260 625 q 223 733 223 691 q 239 807 223 776 q 283 858 255 837 q 349 890 311 878 q 428 910 386 903 l 428 915 q 409 914 423 914 q 376 913 395 914 q 336 912 357 912 q 295 911 315 911 q 260 910 276 910 q 235 910 243 910 l 172 910 l 172 1006 l 670 1006 l 670 914 q 597 904 635 910 q 523 889 560 898 q 455 868 487 880 q 397 838 422 856 q 358 798 373 821 q 344 745 344 776 q 369 675 344 702 q 435 631 394 647 q 529 606 476 614 q 640 594 583 598 l 640 505 q 549 489 595 499 q 461 464 504 479 q 382 429 419 449 q 318 383 345 409 q 275 326 291 358 q 260 256 260 294 q 280 186 260 213 q 335 143 301 160 q 409 116 368 126 q 492 96 451 106 q 571 74 531 86 q 644 44 611 63 q 697 -5 676 24 q 718 -81 718 -35 q 711 -128 718 -105 q 697 -174 705 -152 q 678 -213 688 -195 q 661 -243 668 -231 l 576 -204 q 589 -185 582 -196 q 601 -161 595 -174 q 610 -135 606 -148 q 614 -109 614 -122 q 600 -70 614 -86 q 563 -42 587 -54 q 504 -21 538 -30 q 428 -4 470 -12 q 364 10 398 2 q 296 31 329 19 q 233 61 263 43 q 180 103 203 78 q 143 162 157 128 q 130 239 130 195 "},"Ď":{"x_min":110,"x_max":763,"ha":834,"o":"m 763 466 q 735 265 763 352 q 657 119 708 178 q 530 30 605 60 q 360 0 455 0 l 110 0 l 110 915 l 320 915 q 510 888 428 915 q 649 807 592 862 q 734 668 705 752 q 763 466 763 583 m 633 466 q 614 623 633 558 q 556 729 595 688 q 459 789 517 770 q 321 809 401 809 l 240 809 l 240 106 l 349 106 q 563 196 493 106 q 633 466 633 286 m 456 981 l 345 981 l 173 1143 l 173 1157 l 243 1157 l 400 1063 l 402 1063 l 550 1157 l 622 1157 l 622 1143 l 456 981 "},"&":{"x_min":29,"x_max":804,"ha":834,"o":"m 727 -8 q 673 -1 699 -8 q 625 17 647 5 q 582 45 602 29 q 548 78 563 61 q 505 45 529 61 q 451 15 481 28 q 387 -5 422 2 q 312 -14 352 -14 q 185 5 238 -14 q 96 59 131 25 q 45 141 62 94 q 29 242 29 188 q 44 337 29 294 q 85 415 59 380 q 148 477 112 450 q 226 526 184 504 q 207 568 216 545 q 191 616 198 591 q 180 667 184 641 q 176 717 176 692 q 190 796 176 759 q 234 861 205 833 q 309 904 264 888 q 414 920 353 920 q 501 908 461 920 q 570 873 541 896 q 615 816 599 850 q 632 738 632 782 q 608 654 632 690 q 547 588 585 617 q 458 535 508 559 q 355 489 408 511 q 398 418 376 452 q 442 352 419 384 q 490 288 465 319 q 544 225 515 256 q 594 351 572 284 q 629 501 615 418 l 727 471 q 680 299 709 377 q 617 158 650 222 q 679 104 646 121 q 739 87 712 87 q 773 89 757 87 q 804 98 789 91 l 804 6 q 768 -4 787 -1 q 727 -8 749 -8 m 529 735 q 520 777 529 758 q 497 809 512 796 q 460 830 482 823 q 412 838 438 838 q 357 829 382 838 q 314 805 332 821 q 286 767 296 789 q 276 715 276 744 q 289 632 276 671 q 317 563 302 593 q 399 599 361 582 q 466 635 438 616 q 512 679 495 655 q 529 735 529 703 m 478 146 q 363 290 418 214 q 264 445 309 367 q 174 364 206 414 q 143 245 143 313 q 153 178 143 209 q 186 124 164 147 q 241 88 208 101 q 318 75 273 75 q 368 81 344 75 q 413 98 392 87 q 450 121 433 108 q 478 146 466 133 "},"G":{"x_min":77,"x_max":748,"ha":834,"o":"m 747 89 q 690 55 722 73 q 618 21 658 36 q 533 -3 579 6 q 433 -14 486 -14 q 275 21 342 -14 q 164 120 208 57 q 98 270 120 183 q 77 461 77 357 q 98 662 77 574 q 163 808 119 749 q 274 898 207 867 q 435 929 342 929 q 554 911 503 929 q 643 863 605 893 q 706 792 680 833 q 748 704 731 751 l 632 667 q 559 782 606 741 q 436 823 512 823 q 333 799 375 823 q 263 730 290 776 q 224 617 236 684 q 213 461 213 549 q 270 185 213 279 q 444 91 327 91 q 505 96 477 91 q 556 110 533 102 q 595 126 578 118 q 621 141 612 135 l 621 369 l 422 369 l 422 478 l 747 478 l 747 89 "},"ΰ":{"x_min":111,"x_max":741,"ha":834,"o":"m 741 387 q 720 220 741 294 q 659 93 700 146 q 557 13 618 41 q 412 -14 495 -14 q 281 2 338 -14 q 187 56 225 19 q 130 148 149 92 q 111 283 111 205 l 111 734 l 234 734 l 234 279 q 280 130 234 180 q 417 80 326 80 q 505 96 468 80 q 566 150 542 113 q 603 245 591 187 q 616 384 616 302 q 609 480 616 430 q 591 577 602 530 q 566 665 580 624 q 539 734 553 706 l 667 734 q 692 668 679 706 q 716 584 705 630 q 734 488 727 539 q 741 387 741 438 m 344 815 l 344 837 l 380 1086 l 514 1086 l 514 1060 l 415 815 l 344 815 m 516 827 l 516 952 l 613 952 l 613 827 l 516 827 m 201 827 l 201 952 l 299 952 l 299 827 l 201 827 "},"`":{"x_min":273,"x_max":561,"ha":834,"o":"m 476 815 l 273 971 l 273 991 l 406 991 l 561 828 l 561 815 l 476 815 "},"╔":{"x_min":246,"x_max":841,"ha":834,"o":"m 246 597 l 841 597 l 841 499 l 344 499 l 344 -417 l 246 -417 l 246 597 m 490 353 l 841 353 l 841 255 l 588 255 l 588 -417 l 490 -417 l 490 353 "},"ŏ":{"x_min":88,"x_max":744,"ha":834,"o":"m 744 367 q 721 199 744 270 q 655 80 698 127 q 551 9 613 32 q 412 -14 490 -14 q 278 9 339 -14 q 176 79 218 32 q 111 198 134 127 q 88 367 88 270 q 173 651 88 556 q 417 747 259 747 q 663 652 582 747 q 744 367 744 558 m 616 367 q 601 508 616 452 q 560 597 586 564 q 498 643 534 630 q 419 657 462 657 q 337 643 374 657 q 273 595 300 629 q 231 506 246 561 q 216 367 216 450 q 231 225 216 281 q 274 136 247 169 q 337 89 301 103 q 411 76 372 76 q 493 89 455 76 q 558 135 531 102 q 600 225 585 168 q 616 367 616 281 m 415 815 q 328 830 365 815 q 265 872 290 846 q 224 929 239 897 q 204 991 209 960 l 290 991 q 330 923 301 947 q 415 900 360 900 q 502 923 473 900 q 543 991 531 947 l 629 991 q 607 929 622 960 q 567 872 593 897 q 504 830 542 846 q 415 815 467 815 "},"ý":{"x_min":44.75,"x_max":788.25,"ha":834,"o":"m 478 0 q 426 -119 453 -66 q 365 -210 399 -172 q 291 -267 332 -247 q 198 -288 251 -288 q 155 -286 175 -288 q 114 -280 135 -285 l 114 -188 q 143 -191 126 -190 q 171 -193 159 -193 q 271 -152 224 -193 q 351 -25 319 -112 l 363 8 l 44 734 l 174 734 l 354 298 q 372 253 361 280 q 393 200 383 227 q 411 153 403 174 q 420 126 419 132 q 430 154 422 134 q 448 200 438 175 q 469 253 458 226 q 488 299 480 279 l 659 734 l 788 734 l 478 0 m 345 815 l 345 828 l 499 991 l 633 991 l 633 971 l 429 815 l 345 815 "},"º":{"x_min":153,"x_max":680,"ha":834,"o":"m 680 706 q 663 599 680 647 q 613 515 646 551 q 530 461 580 480 q 414 442 481 442 q 302 461 351 442 q 220 515 253 480 q 170 599 187 551 q 153 706 153 647 q 169 812 153 763 q 218 895 185 860 q 301 951 251 931 q 417 971 350 971 q 537 951 487 971 q 618 896 586 931 q 665 812 650 861 q 680 706 680 764 m 579 706 q 538 854 579 809 q 419 900 497 900 q 298 853 341 900 q 256 706 256 807 q 267 618 256 655 q 299 558 279 581 q 349 523 320 534 q 413 513 378 513 q 535 558 492 513 q 579 706 579 603 "},"╝":{"x_min":-7,"x_max":588,"ha":834,"o":"m 588 255 l -7 255 l -7 353 l 490 353 l 490 1156 l 588 1156 l 588 255 m 246 1156 l 344 1156 l 344 499 l -7 499 l -7 597 l 246 597 l 246 1156 "},"∞":{"x_min":20,"x_max":811,"ha":834,"o":"m 811 400 q 797 299 811 347 q 758 215 783 251 q 698 158 733 179 q 619 137 663 137 q 508 183 560 137 q 413 329 456 228 q 371 251 394 286 q 321 192 347 217 q 268 155 296 168 q 212 142 241 142 q 134 160 170 142 q 73 213 99 179 q 34 295 48 247 q 20 404 20 344 q 33 507 20 459 q 72 591 47 555 q 133 646 98 626 q 212 667 169 667 q 322 621 270 667 q 414 475 374 575 q 456 551 434 517 q 505 611 479 586 q 560 649 531 635 q 621 662 589 662 q 698 644 663 662 q 758 591 733 625 q 797 508 783 557 q 811 400 811 460 m 603 573 q 527 531 562 573 q 459 400 492 488 q 524 270 490 313 q 604 226 559 226 q 650 240 630 226 q 686 277 671 254 q 709 333 701 301 q 717 401 717 365 q 708 469 717 438 q 685 524 700 500 q 649 560 670 547 q 603 573 628 573 m 370 404 q 305 534 340 491 q 225 578 271 578 q 180 564 200 578 q 145 527 159 550 q 122 471 130 503 q 115 403 115 439 q 122 337 115 368 q 143 282 129 305 q 178 244 157 258 q 226 231 199 231 q 302 273 267 231 q 370 404 338 316 "},"ź":{"x_min":100,"x_max":725,"ha":834,"o":"m 100 0 l 100 92 l 562 640 l 127 640 l 127 734 l 700 734 l 700 641 l 236 94 l 725 94 l 725 0 l 100 0 m 330 815 l 330 828 l 484 991 l 618 991 l 618 971 l 414 815 l 330 815 "},"я":{"x_min":46.75,"x_max":691,"ha":834,"o":"m 398 310 l 184 0 l 46 0 l 280 318 q 151 392 191 337 q 111 530 111 447 q 184 683 111 632 q 397 734 257 734 l 691 734 l 691 0 l 569 0 l 569 310 l 398 310 m 569 648 l 410 648 q 281 616 322 648 q 241 522 241 585 q 277 426 241 458 q 397 395 313 395 l 569 395 l 569 648 "},"Ё":{"x_min":110,"x_max":761,"ha":834,"o":"m 110 0 l 110 915 l 733 915 l 733 809 l 240 809 l 240 523 l 693 523 l 693 419 l 240 419 l 240 106 l 761 106 l 761 0 l 110 0 m 508 980 l 508 1105 l 619 1105 l 619 980 l 508 980 m 241 980 l 241 1105 l 353 1105 l 353 980 l 241 980 "},"█":{"x_min":0,"x_max":834,"ha":834,"o":"m 834 -417 l 0 -417 l 0 1156 l 834 1156 l 834 -417 "},"ń":{"x_min":120.9375,"x_max":712,"ha":834,"o":"m 589 0 l 589 471 q 577 560 589 525 q 546 616 566 595 q 499 644 526 636 q 439 653 472 653 q 364 637 399 653 q 303 593 329 622 q 261 522 276 564 q 247 425 247 480 l 247 0 l 125 0 l 125 577 q 124 625 125 600 q 123 673 124 651 q 122 712 122 696 q 120 734 121 729 l 236 734 q 237 715 236 730 q 239 681 238 700 q 240 641 240 661 q 241 607 241 621 l 243 607 q 282 665 259 639 q 333 709 304 691 q 397 737 361 727 q 478 747 433 747 q 578 732 535 747 q 651 685 622 717 q 696 606 681 654 q 712 488 712 557 l 712 0 l 589 0 m 366 815 l 366 828 l 520 991 l 654 991 l 654 971 l 450 815 l 366 815 "},"Г":{"x_min":152,"x_max":757,"ha":834,"o":"m 282 0 l 152 0 l 152 915 l 757 915 l 757 809 l 282 809 l 282 0 "},"Ь":{"x_min":110,"x_max":795,"ha":834,"o":"m 795 266 q 774 158 795 207 q 712 74 753 109 q 609 19 671 39 q 466 0 548 0 l 110 0 l 110 915 l 240 915 l 240 531 l 458 531 q 605 512 542 531 q 710 459 668 494 q 773 376 752 425 q 795 266 795 327 m 665 262 q 609 383 665 344 q 442 422 553 422 l 240 422 l 240 102 l 448 102 q 612 139 559 102 q 665 262 665 177 "},"¤":{"x_min":107,"x_max":727,"ha":834,"o":"m 123 464 q 136 555 123 512 q 176 635 150 598 l 108 703 l 178 773 l 246 704 q 325 745 282 730 q 418 760 369 760 q 509 745 466 760 q 589 705 552 731 l 655 771 l 725 700 l 660 635 q 700 555 685 598 q 715 464 715 512 q 700 372 715 416 q 659 293 685 329 l 727 225 l 657 154 l 589 222 q 509 183 552 197 q 418 170 466 170 q 326 184 369 170 q 247 224 282 198 l 176 153 l 107 224 l 176 293 q 136 373 150 330 q 123 464 123 416 m 227 465 q 242 391 227 426 q 283 331 257 357 q 344 290 309 305 q 418 276 378 276 q 491 290 457 276 q 552 331 526 305 q 594 391 579 357 q 609 465 609 426 q 594 539 609 504 q 552 600 579 574 q 491 641 526 626 q 418 656 457 656 q 344 641 378 656 q 283 600 309 626 q 242 539 257 574 q 227 465 227 504 "},"Ĝ":{"x_min":77,"x_max":748,"ha":834,"o":"m 747 89 q 690 55 722 73 q 618 21 658 36 q 533 -3 579 6 q 433 -14 486 -14 q 275 21 342 -14 q 164 120 208 57 q 98 270 120 183 q 77 461 77 357 q 98 662 77 574 q 163 808 119 749 q 274 898 207 867 q 435 929 342 929 q 554 911 503 929 q 643 863 605 893 q 706 792 680 833 q 748 704 731 751 l 632 667 q 559 782 606 741 q 436 823 512 823 q 333 799 375 823 q 263 730 290 776 q 224 617 236 684 q 213 461 213 549 q 270 185 213 279 q 444 91 327 91 q 505 96 477 91 q 556 110 533 102 q 595 126 578 118 q 621 141 612 135 l 621 369 l 422 369 l 422 478 l 747 478 l 747 89 m 641 994 l 641 981 l 569 981 l 421 1075 l 419 1075 l 262 981 l 192 981 l 192 994 l 364 1157 l 475 1157 l 641 994 "},"p":{"x_min":120.9375,"x_max":739,"ha":834,"o":"m 739 370 q 725 216 739 286 q 680 94 711 145 q 598 14 649 43 q 473 -14 547 -14 q 401 -7 435 -14 q 338 14 368 0 q 287 53 309 29 q 248 110 264 76 l 245 110 q 246 98 245 109 q 246 72 246 88 q 247 37 247 57 q 248 -1 248 18 l 248 -288 l 125 -288 l 125 582 q 124 634 125 609 q 123 679 124 659 q 122 713 122 699 q 120 734 121 727 l 239 734 q 241 719 240 731 q 243 689 242 706 q 245 651 244 671 q 246 613 246 630 l 249 613 q 287 674 266 648 q 336 716 309 700 q 397 741 363 733 q 473 749 431 749 q 598 721 547 749 q 680 644 649 694 q 725 524 711 594 q 739 370 739 455 m 613 370 q 604 491 613 438 q 576 580 596 544 q 523 635 556 616 q 441 655 490 655 q 366 642 401 655 q 304 596 330 629 q 263 505 278 563 q 248 355 248 447 q 260 223 248 277 q 297 137 273 170 q 357 90 321 104 q 440 76 393 76 q 522 95 489 76 q 576 152 556 114 q 604 244 596 189 q 613 370 613 299 "},"│":{"x_min":368,"x_max":466,"ha":834,"o":"m 368 1156 l 466 1156 l 466 -417 l 368 -417 l 368 1156 "},"Ю":{"x_min":58,"x_max":798,"ha":834,"o":"m 798 461 q 781 259 798 348 q 731 110 764 171 q 648 17 698 49 q 532 -14 598 -14 q 424 14 471 -14 q 343 97 376 43 q 292 231 311 151 q 271 413 274 311 l 167 413 l 167 0 l 58 0 l 58 915 l 167 915 l 167 511 l 271 511 q 345 824 278 720 q 534 929 413 929 q 730 812 662 929 q 798 461 798 695 m 681 461 q 644 740 681 650 q 533 830 608 830 q 423 740 459 830 q 387 461 387 650 q 423 178 387 272 q 533 84 459 84 q 644 178 607 84 q 681 461 681 272 "},"ο":{"x_min":88,"x_max":744,"ha":834,"o":"m 744 367 q 721 199 744 270 q 655 80 698 127 q 551 9 613 32 q 412 -14 490 -14 q 278 9 339 -14 q 176 79 218 32 q 111 198 134 127 q 88 367 88 270 q 173 651 88 556 q 417 747 259 747 q 663 652 582 747 q 744 367 744 558 m 616 367 q 601 508 616 452 q 560 597 586 564 q 498 643 534 630 q 419 657 462 657 q 337 643 374 657 q 273 595 300 629 q 231 506 246 561 q 216 367 216 450 q 231 225 216 281 q 274 136 247 169 q 337 89 301 103 q 411 76 372 76 q 493 89 455 76 q 558 135 531 102 q 600 225 585 168 q 616 367 616 281 "},"S":{"x_min":53,"x_max":765,"ha":834,"o":"m 765 250 q 743 144 765 192 q 679 60 722 95 q 570 5 636 25 q 413 -14 504 -14 q 166 48 254 -14 q 53 228 77 110 l 178 254 q 202 186 186 216 q 247 133 218 155 q 317 99 275 111 q 416 87 358 87 q 506 96 465 87 q 575 125 546 105 q 620 175 604 144 q 637 248 637 205 q 614 325 637 296 q 556 374 592 355 q 475 405 520 393 q 384 429 430 417 q 315 447 350 437 q 249 470 281 457 q 189 501 217 483 q 141 545 162 519 q 109 605 121 570 q 98 684 98 639 q 122 796 98 749 q 189 872 146 842 q 290 915 232 901 q 417 929 349 929 q 551 915 495 929 q 644 873 606 901 q 706 804 683 845 q 743 709 729 763 l 615 687 q 592 748 607 721 q 554 793 578 775 q 496 821 530 812 q 416 831 462 831 q 325 819 361 831 q 266 789 288 808 q 233 743 243 770 q 224 686 224 717 q 241 620 224 646 q 290 578 259 595 q 362 551 321 561 q 450 528 403 540 q 526 508 488 518 q 599 483 564 497 q 664 449 634 469 q 716 402 694 430 q 752 337 739 374 q 765 250 765 300 "},"/":{"x_min":76.75,"x_max":755.25,"ha":834,"o":"m 76 -14 l 634 1006 l 755 1006 l 200 -14 l 76 -14 "},"►":{"x_min":35,"x_max":832,"ha":834,"o":"m 35 811 l 832 397 l 35 -18 l 35 811 "},"Ŧ":{"x_min":52,"x_max":781,"ha":834,"o":"m 481 809 l 481 522 l 644 522 l 644 421 l 481 421 l 481 0 l 352 0 l 352 421 l 189 421 l 189 522 l 352 522 l 352 809 l 52 809 l 52 915 l 781 915 l 781 809 l 481 809 "},"ђ":{"x_min":35,"x_max":712,"ha":834,"o":"m 125 1006 l 247 1006 l 247 900 l 451 900 l 451 811 l 247 811 l 247 721 q 245 653 247 687 q 241 587 243 619 l 243 587 q 281 645 259 619 q 331 689 303 671 q 394 717 359 707 q 474 727 430 727 q 574 712 530 727 q 649 665 618 697 q 696 585 680 634 q 712 468 712 537 l 712 -90 q 704 -168 712 -132 q 679 -231 697 -204 q 629 -272 661 -257 q 549 -288 598 -288 q 504 -286 526 -288 q 463 -281 482 -285 l 463 -187 q 484 -190 471 -189 q 505 -192 496 -192 q 547 -185 530 -192 q 573 -163 563 -178 q 585 -126 582 -149 q 589 -72 589 -103 l 589 451 q 577 540 589 505 q 546 596 566 575 q 499 624 526 616 q 439 633 472 633 q 364 617 399 633 q 303 573 329 602 q 261 502 276 544 q 247 405 247 460 l 247 0 l 125 0 l 125 811 l 35 811 l 35 900 l 125 900 l 125 1006 "},"y":{"x_min":44.75,"x_max":788.25,"ha":834,"o":"m 478 0 q 426 -119 453 -66 q 365 -210 399 -172 q 291 -267 332 -247 q 198 -288 251 -288 q 155 -286 175 -288 q 114 -280 135 -285 l 114 -188 q 143 -191 126 -190 q 171 -193 159 -193 q 271 -152 224 -193 q 351 -25 319 -112 l 363 8 l 44 734 l 174 734 l 354 298 q 372 253 361 280 q 393 200 383 227 q 411 153 403 174 q 420 126 419 132 q 430 154 422 134 q 448 200 438 175 q 469 253 458 226 q 488 299 480 279 l 659 734 l 788 734 l 478 0 "},"Π":{"x_min":111,"x_max":724,"ha":834,"o":"m 111 0 l 111 915 l 724 915 l 724 0 l 594 0 l 594 809 l 241 809 l 241 0 l 111 0 "},"‗":{"x_min":-3,"x_max":836,"ha":834,"o":"m -3 -149 l -3 -84 l 836 -84 l 836 -149 l -3 -149 m -3 -288 l -3 -223 l 836 -223 l 836 -288 l -3 -288 "},"–":{"x_min":115,"x_max":718,"ha":834,"o":"m 115 306 l 115 399 l 718 399 l 718 306 l 115 306 "},"ë":{"x_min":90,"x_max":742,"ha":834,"o":"m 218 341 q 230 234 218 283 q 269 151 243 186 q 333 97 295 116 q 422 78 372 78 q 491 86 459 78 q 547 109 522 94 q 589 145 572 124 q 615 190 606 165 l 722 159 q 689 98 711 129 q 631 42 667 67 q 544 1 595 17 q 422 -14 492 -14 q 282 10 344 -14 q 178 82 220 34 q 112 203 135 131 q 90 371 90 275 q 116 548 90 477 q 189 664 143 620 q 293 728 234 709 q 418 747 353 747 q 568 718 507 747 q 668 638 630 690 q 724 515 707 587 q 742 357 742 444 l 742 341 l 218 341 m 419 657 q 354 647 388 657 q 290 612 319 637 q 241 544 261 587 q 219 435 221 501 l 616 435 q 592 541 610 498 q 549 609 575 583 q 489 646 522 635 q 419 657 456 657 m 500 827 l 500 952 l 611 952 l 611 827 l 500 827 m 233 827 l 233 952 l 345 952 l 345 827 l 233 827 "},"б":{"x_min":95,"x_max":751,"ha":834,"o":"m 623 340 q 609 468 623 417 q 571 550 596 520 q 511 594 546 581 q 432 607 476 607 q 346 593 385 607 q 280 549 307 580 q 237 467 252 518 q 223 340 223 416 q 237 211 223 262 q 279 130 252 160 q 341 88 305 100 q 418 76 377 76 q 503 88 465 76 q 567 130 541 100 q 608 211 594 160 q 623 340 623 262 m 457 697 q 679 608 608 697 q 751 341 751 519 q 666 73 751 161 q 419 -14 581 -14 q 282 9 343 -14 q 180 86 222 33 q 117 224 139 139 q 95 431 95 308 q 114 655 95 561 q 177 815 134 750 q 290 919 221 880 q 460 978 360 959 q 532 991 499 985 q 597 1001 566 997 q 657 1010 628 1006 q 716 1019 686 1014 l 716 910 q 603 894 657 902 q 486 875 548 886 q 391 854 433 865 q 317 826 349 843 q 263 784 286 809 q 225 723 240 759 q 203 636 210 686 q 193 517 195 585 q 229 587 207 555 q 285 644 252 620 q 361 683 318 669 q 457 697 404 697 "},"ƒ":{"x_min":159,"x_max":725,"ha":834,"o":"m 616 928 q 676 922 647 928 q 725 912 706 917 l 697 820 q 658 828 684 824 q 609 833 633 833 q 558 827 579 833 q 523 809 537 822 q 501 776 509 797 q 487 727 493 756 l 469 635 l 674 635 l 657 546 l 451 546 l 287 -288 l 165 -288 l 329 546 l 159 546 l 177 635 l 347 635 l 366 737 q 392 812 376 777 q 436 872 408 846 q 508 913 465 898 q 616 928 551 928 "},"у":{"x_min":44.75,"x_max":788.25,"ha":834,"o":"m 478 0 q 426 -119 453 -66 q 365 -210 399 -172 q 291 -267 332 -247 q 198 -288 251 -288 q 155 -286 175 -288 q 114 -280 135 -285 l 114 -188 q 143 -191 126 -190 q 171 -193 159 -193 q 271 -152 224 -193 q 351 -25 319 -112 l 363 8 l 44 734 l 174 734 l 354 298 q 372 253 361 280 q 393 200 383 227 q 411 153 403 174 q 420 126 419 132 q 430 154 422 134 q 448 200 438 175 q 469 253 458 226 q 488 299 480 279 l 659 734 l 788 734 l 478 0 "},"J":{"x_min":119,"x_max":669,"ha":834,"o":"m 669 284 q 651 161 669 216 q 600 67 634 106 q 514 7 565 28 q 397 -14 463 -14 q 212 46 281 -14 q 119 236 142 106 l 246 258 q 267 182 252 214 q 301 131 281 151 q 345 100 320 110 q 398 91 370 91 q 504 139 468 91 q 540 281 540 188 l 540 809 l 329 809 l 329 915 l 669 915 l 669 284 "},"ŷ":{"x_min":44.75,"x_max":788.25,"ha":834,"o":"m 478 0 q 426 -119 453 -66 q 365 -210 399 -172 q 291 -267 332 -247 q 198 -288 251 -288 q 155 -286 175 -288 q 114 -280 135 -285 l 114 -188 q 143 -191 126 -190 q 171 -193 159 -193 q 271 -152 224 -193 q 351 -25 319 -112 l 363 8 l 44 734 l 174 734 l 354 298 q 372 253 361 280 q 393 200 383 227 q 411 153 403 174 q 420 126 419 132 q 430 154 422 134 q 448 200 438 175 q 469 253 458 226 q 488 299 480 279 l 659 734 l 788 734 l 478 0 m 639 828 l 639 815 l 567 815 l 419 909 l 417 909 l 260 815 l 190 815 l 190 828 l 362 991 l 473 991 l 639 828 "},"ŕ":{"x_min":164,"x_max":709,"ha":834,"o":"m 709 622 q 642 631 677 627 q 564 635 607 635 q 462 611 507 635 q 385 549 416 588 q 337 456 354 509 q 321 344 321 403 l 321 0 l 199 0 l 199 475 q 194 552 199 513 q 185 627 190 592 q 174 689 180 662 q 164 734 168 717 l 279 734 q 289 696 284 717 q 299 652 294 675 q 307 606 304 629 q 312 563 310 583 l 315 563 q 355 639 334 605 q 405 697 376 673 q 473 734 434 721 q 569 747 513 747 q 643 743 607 747 q 709 735 680 740 l 709 622 m 333 815 l 333 828 l 487 991 l 621 991 l 621 971 l 417 815 l 333 815 "},"☻":{"x_min":18,"x_max":814,"ha":834,"o":"m 18 399 q 32 504 18 453 q 72 599 46 555 q 134 680 98 643 q 215 742 171 717 q 310 782 259 768 q 416 797 361 797 q 570 765 498 797 q 697 680 643 734 q 782 553 751 626 q 814 399 814 481 q 799 293 814 344 q 759 198 785 242 q 697 117 734 154 q 616 55 660 81 q 521 15 572 29 q 416 1 470 1 q 310 15 361 1 q 215 55 259 29 q 134 117 171 81 q 72 198 98 154 q 32 293 46 242 q 18 399 18 344 m 221 501 q 234 467 221 481 q 268 454 248 454 q 302 467 288 454 q 317 501 317 481 q 302 535 317 521 q 268 550 288 550 q 234 535 248 550 q 221 501 221 521 m 515 501 q 528 467 515 481 q 562 454 542 454 q 596 467 582 454 q 611 501 611 481 q 596 535 611 521 q 562 550 582 550 q 528 535 542 550 q 515 501 515 521 m 199 265 q 231 224 213 245 q 275 185 249 202 q 336 157 301 168 q 416 146 370 146 q 496 157 462 146 q 556 185 530 168 q 600 224 582 202 q 632 265 619 245 l 592 299 q 565 266 580 282 q 530 237 550 250 q 481 215 509 223 q 416 207 453 207 q 350 215 378 207 q 301 237 322 223 q 266 266 281 250 q 239 299 251 282 l 199 265 "},"ώ":{"x_min":36,"x_max":799,"ha":834,"o":"m 472 304 q 480 209 472 251 q 503 137 488 166 q 538 91 518 107 q 583 76 558 76 q 627 95 609 76 q 658 150 646 114 q 676 235 670 185 q 683 346 683 285 q 675 454 683 402 q 652 547 668 505 q 610 618 636 589 q 547 657 585 646 l 568 748 q 670 697 627 735 q 742 605 714 659 q 785 484 771 550 q 799 350 799 418 q 784 195 799 263 q 742 81 769 127 q 677 10 715 34 q 592 -14 639 -14 q 530 -1 558 -14 q 480 35 501 11 q 442 93 458 59 q 419 167 427 126 l 416 167 q 392 93 408 126 q 355 35 376 59 q 304 -1 333 11 q 242 -14 276 -14 q 157 10 195 -14 q 92 81 119 34 q 50 195 65 127 q 36 350 36 263 q 49 484 36 418 q 92 605 63 550 q 164 697 120 659 q 266 748 207 735 l 288 657 q 223 618 249 646 q 181 547 197 589 q 158 454 165 505 q 152 346 152 402 q 158 235 152 285 q 176 150 164 185 q 207 95 188 114 q 251 76 226 76 q 300 94 279 76 q 335 143 321 112 q 356 215 349 174 q 364 304 364 257 l 364 475 l 472 475 l 472 304 m 353 815 l 353 837 l 406 1035 l 540 1035 l 540 1009 l 424 815 l 353 815 "},"˘":{"x_min":204,"x_max":629,"ha":834,"o":"m 415 815 q 328 830 365 815 q 265 872 290 846 q 224 929 239 897 q 204 991 209 960 l 290 991 q 330 923 301 947 q 415 900 360 900 q 502 923 473 900 q 543 991 531 947 l 629 991 q 607 929 622 960 q 567 872 593 897 q 504 830 542 846 q 415 815 467 815 "},"┤":{"x_min":-7,"x_max":466,"ha":834,"o":"m -7 377 l -7 475 l 368 475 l 368 1156 l 466 1156 l 466 -417 l 368 -417 l 368 377 l -7 377 "},"↑":{"x_min":253,"x_max":579,"ha":834,"o":"m 387 629 q 330 590 363 610 q 253 549 297 570 l 253 597 q 337 681 299 637 q 403 781 375 725 l 428 781 q 494 681 456 725 q 579 597 532 637 l 579 549 q 501 590 534 570 q 445 629 468 610 l 445 -41 l 387 -41 l 387 629 "},"D":{"x_min":110,"x_max":763,"ha":834,"o":"m 763 466 q 735 265 763 352 q 657 119 708 178 q 530 30 605 60 q 360 0 455 0 l 110 0 l 110 915 l 320 915 q 510 888 428 915 q 649 807 592 862 q 734 668 705 752 q 763 466 763 583 m 633 466 q 614 623 633 558 q 556 729 595 688 q 459 789 517 770 q 321 809 401 809 l 240 809 l 240 106 l 349 106 q 563 196 493 106 q 633 466 633 286 "},"┼":{"x_min":-7,"x_max":841,"ha":834,"o":"m -7 377 l -7 475 l 368 475 l 368 1156 l 466 1156 l 466 475 l 841 475 l 841 377 l 466 377 l 466 -417 l 368 -417 l 368 377 l -7 377 "},"ł":{"x_min":91,"x_max":757,"ha":834,"o":"m 499 599 l 651 687 l 694 610 l 499 499 l 499 96 l 757 96 l 757 0 l 91 0 l 91 96 l 377 96 l 377 430 l 229 347 l 186 423 l 377 530 l 377 910 l 147 910 l 147 1006 l 499 1006 l 499 599 "},"ĺ":{"x_min":91,"x_max":757,"ha":834,"o":"m 499 96 l 757 96 l 757 0 l 91 0 l 91 96 l 377 96 l 377 819 l 181 819 l 181 915 l 499 915 l 499 96 m 360 980 l 360 993 l 514 1156 l 648 1156 l 648 1136 l 444 980 l 360 980 "},"ц":{"x_min":119,"x_max":807,"ha":834,"o":"m 241 734 l 241 89 l 585 89 l 585 734 l 707 734 l 707 89 l 807 89 l 807 -277 l 696 -277 l 696 0 l 119 0 l 119 734 l 241 734 "},"Л":{"x_min":-1,"x_max":758,"ha":834,"o":"m 632 806 l 376 806 l 346 576 q 317 371 331 460 q 285 216 302 281 q 247 107 268 151 q 199 37 226 63 q 137 0 172 11 q 57 -11 102 -11 q 24 -9 40 -11 q -1 -4 8 -7 l -1 98 q 18 95 6 96 q 37 94 30 94 q 75 100 57 94 q 109 125 93 106 q 140 177 125 144 q 168 266 155 211 q 196 401 182 321 q 223 589 210 480 l 265 915 l 758 915 l 758 0 l 632 0 l 632 806 "},"├":{"x_min":368,"x_max":841,"ha":834,"o":"m 368 1156 l 466 1156 l 466 475 l 841 475 l 841 377 l 466 377 l 466 -417 l 368 -417 l 368 1156 "},"$":{"x_min":45,"x_max":781,"ha":834,"o":"m 781 257 q 761 163 781 207 q 704 88 742 120 q 606 36 665 56 q 466 14 546 17 l 466 -95 l 379 -95 l 379 14 q 150 81 233 18 q 45 257 68 144 l 160 283 q 182 215 167 246 q 224 161 198 184 q 288 124 250 138 q 379 108 326 110 l 379 439 q 368 441 373 440 q 362 443 366 442 q 358 444 359 444 q 291 462 325 452 q 228 485 258 472 q 172 517 198 498 q 128 560 147 535 q 98 618 109 585 q 88 693 88 651 q 109 789 88 749 q 170 857 131 830 q 262 897 209 883 q 379 913 315 910 l 379 1001 l 466 1001 l 466 913 q 584 895 535 910 q 668 853 633 880 q 724 786 702 826 q 760 695 746 746 l 642 673 q 621 732 635 705 q 587 778 608 759 q 535 808 565 797 q 466 822 506 819 l 466 533 q 544 513 505 524 q 617 488 582 503 q 682 454 652 474 q 734 407 712 434 q 768 343 756 379 q 781 257 781 306 m 205 690 q 218 629 205 653 q 255 589 232 605 q 310 563 279 573 q 379 544 342 553 l 379 824 q 297 810 330 821 q 243 781 264 799 q 214 740 223 763 q 205 690 205 716 m 664 260 q 647 330 664 302 q 604 375 631 357 q 541 404 577 392 q 466 425 505 415 l 466 106 q 546 119 510 109 q 608 148 582 129 q 649 195 634 167 q 664 260 664 223 "},"w":{"x_min":14,"x_max":820,"ha":834,"o":"m 690 0 l 552 0 l 455 319 q 443 361 449 337 q 430 406 436 384 q 416 456 422 431 q 403 407 410 431 q 390 362 396 386 q 376 316 383 337 l 276 0 l 138 0 l 14 734 l 134 734 l 197 322 q 203 277 200 305 q 211 215 207 248 q 217 151 214 183 q 220 101 220 120 q 235 159 227 131 q 248 207 241 183 q 259 246 255 232 l 351 534 l 482 533 l 570 245 q 581 207 574 232 q 593 160 587 183 q 608 101 601 132 q 610 151 608 121 q 617 214 613 182 q 625 276 621 246 q 631 322 629 305 l 700 734 l 820 734 l 690 0 "},"о":{"x_min":88,"x_max":744,"ha":834,"o":"m 744 367 q 721 199 744 270 q 655 80 698 127 q 551 9 613 32 q 412 -14 490 -14 q 278 9 339 -14 q 176 79 218 32 q 111 198 134 127 q 88 367 88 270 q 173 651 88 556 q 417 747 259 747 q 663 652 582 747 q 744 367 744 558 m 616 367 q 601 508 616 452 q 560 597 586 564 q 498 643 534 630 q 419 657 462 657 q 337 643 374 657 q 273 595 300 629 q 231 506 246 561 q 216 367 216 450 q 231 225 216 281 q 274 136 247 169 q 337 89 301 103 q 411 76 372 76 q 493 89 455 76 q 558 135 531 102 q 600 225 585 168 q 616 367 616 281 "},"Д":{"x_min":3,"x_max":814,"ha":834,"o":"m 695 102 l 814 102 l 814 -277 l 705 -277 l 705 0 l 112 0 l 112 -277 l 3 -277 l 3 102 l 84 102 q 134 177 111 136 q 177 274 158 219 q 211 401 196 329 q 239 569 227 473 l 285 915 l 695 915 l 695 102 m 582 813 l 382 813 l 348 556 q 322 396 336 465 q 292 273 308 327 q 256 177 275 219 q 216 102 237 136 l 582 102 l 582 813 "},"Ç":{"x_min":77,"x_max":775,"ha":834,"o":"m 213 461 q 226 303 213 372 q 268 187 240 234 q 341 115 297 139 q 448 91 386 91 q 525 107 491 91 q 586 149 559 123 q 633 210 613 176 q 667 282 652 245 l 775 237 q 728 145 756 190 q 661 64 700 100 q 569 7 621 29 q 447 -14 516 -14 q 282 20 351 -14 q 166 116 212 54 q 99 266 121 179 q 77 461 77 354 q 98 661 77 574 q 165 807 120 748 q 278 898 210 867 q 440 929 347 929 q 560 910 509 929 q 650 860 612 891 q 713 787 687 828 q 757 702 740 746 l 643 658 q 615 718 632 689 q 572 771 597 748 q 514 808 547 794 q 441 823 482 823 q 337 799 380 823 q 266 731 294 776 q 225 617 238 685 q 213 461 213 550 m 568 -175 q 557 -226 568 -203 q 525 -266 547 -250 q 468 -292 503 -283 q 382 -301 432 -301 q 353 -300 368 -301 q 321 -298 337 -300 l 321 -231 q 379 -236 354 -236 q 426 -231 407 -236 q 457 -219 445 -227 q 473 -201 468 -212 q 479 -177 479 -190 q 458 -136 479 -150 q 388 -122 437 -122 q 369 -122 379 -122 q 350 -123 359 -122 l 394 0 l 466 0 l 440 -68 q 536 -98 504 -70 q 568 -175 568 -126 "},"Ŝ":{"x_min":53,"x_max":765,"ha":834,"o":"m 765 250 q 743 144 765 192 q 679 60 722 95 q 570 5 636 25 q 413 -14 504 -14 q 166 48 254 -14 q 53 228 77 110 l 178 254 q 202 186 186 216 q 247 133 218 155 q 317 99 275 111 q 416 87 358 87 q 506 96 465 87 q 575 125 546 105 q 620 175 604 144 q 637 248 637 205 q 614 325 637 296 q 556 374 592 355 q 475 405 520 393 q 384 429 430 417 q 315 447 350 437 q 249 470 281 457 q 189 501 217 483 q 141 545 162 519 q 109 605 121 570 q 98 684 98 639 q 122 796 98 749 q 189 872 146 842 q 290 915 232 901 q 417 929 349 929 q 551 915 495 929 q 644 873 606 901 q 706 804 683 845 q 743 709 729 763 l 615 687 q 592 748 607 721 q 554 793 578 775 q 496 821 530 812 q 416 831 462 831 q 325 819 361 831 q 266 789 288 808 q 233 743 243 770 q 224 686 224 717 q 241 620 224 646 q 290 578 259 595 q 362 551 321 561 q 450 528 403 540 q 526 508 488 518 q 599 483 564 497 q 664 449 634 469 q 716 402 694 430 q 752 337 739 374 q 765 250 765 300 m 643 994 l 643 981 l 571 981 l 423 1075 l 421 1075 l 264 981 l 194 981 l 194 994 l 366 1157 l 477 1157 l 643 994 "},"C":{"x_min":77,"x_max":775,"ha":834,"o":"m 213 461 q 226 303 213 372 q 268 187 240 234 q 341 115 297 139 q 448 91 386 91 q 525 107 491 91 q 586 149 559 123 q 633 210 613 176 q 667 282 652 245 l 775 237 q 728 145 756 190 q 661 64 700 100 q 569 7 621 29 q 447 -14 516 -14 q 282 20 351 -14 q 166 116 212 54 q 99 266 121 179 q 77 461 77 354 q 98 661 77 574 q 165 807 120 748 q 278 898 210 867 q 440 929 347 929 q 560 910 509 929 q 650 860 612 891 q 713 787 687 828 q 757 702 740 746 l 643 658 q 615 718 632 689 q 572 771 597 748 q 514 808 547 794 q 441 823 482 823 q 337 799 380 823 q 266 731 294 776 q 225 617 238 685 q 213 461 213 550 "},"Ĵ":{"x_min":119,"x_max":723,"ha":834,"o":"m 669 284 q 651 161 669 216 q 600 67 634 106 q 514 7 565 28 q 397 -14 463 -14 q 212 46 281 -14 q 119 236 142 106 l 246 258 q 267 182 252 214 q 301 131 281 151 q 345 100 320 110 q 398 91 370 91 q 504 139 468 91 q 540 281 540 188 l 540 809 l 329 809 l 329 915 l 669 915 l 669 284 m 723 994 l 723 981 l 651 981 l 503 1075 l 501 1075 l 344 981 l 274 981 l 274 994 l 446 1157 l 557 1157 l 723 994 "},"È":{"x_min":110,"x_max":761,"ha":834,"o":"m 110 0 l 110 915 l 733 915 l 733 809 l 240 809 l 240 523 l 693 523 l 693 419 l 240 419 l 240 106 l 761 106 l 761 0 l 110 0 m 428 980 l 225 1136 l 225 1156 l 358 1156 l 513 993 l 513 980 l 428 980 "},"ﬁ":{"x_min":57,"x_max":720,"ha":834,"o":"m 282 645 l 282 0 l 160 0 l 160 645 l 57 645 l 57 734 l 160 734 l 160 816 q 167 890 160 856 q 195 950 174 925 q 249 990 215 975 q 339 1005 284 1005 q 384 1002 361 1005 q 426 996 408 1000 l 426 903 q 399 907 414 905 q 371 909 383 909 q 326 901 344 909 q 299 880 309 894 q 285 846 289 866 q 282 799 282 825 l 282 734 l 426 734 l 426 645 l 282 645 m 598 890 l 598 1006 l 720 1006 l 720 890 l 598 890 m 598 0 l 598 734 l 720 734 l 720 0 l 598 0 "},"X":{"x_min":24,"x_max":810,"ha":834,"o":"m 416 567 l 642 915 l 782 915 l 486 478 l 810 0 l 670 0 l 416 389 l 163 0 l 24 0 l 347 478 l 52 915 l 191 915 l 416 567 "},"ô":{"x_min":88,"x_max":744,"ha":834,"o":"m 744 367 q 721 199 744 270 q 655 80 698 127 q 551 9 613 32 q 412 -14 490 -14 q 278 9 339 -14 q 176 79 218 32 q 111 198 134 127 q 88 367 88 270 q 173 651 88 556 q 417 747 259 747 q 663 652 582 747 q 744 367 744 558 m 616 367 q 601 508 616 452 q 560 597 586 564 q 498 643 534 630 q 419 657 462 657 q 337 643 374 657 q 273 595 300 629 q 231 506 246 561 q 216 367 216 450 q 231 225 216 281 q 274 136 247 169 q 337 89 301 103 q 411 76 372 76 q 493 89 455 76 q 558 135 531 102 q 600 225 585 168 q 616 367 616 281 m 641 828 l 641 815 l 569 815 l 421 909 l 419 909 l 262 815 l 192 815 l 192 828 l 364 991 l 475 991 l 641 828 "},"Ė":{"x_min":110,"x_max":761,"ha":834,"o":"m 110 0 l 110 915 l 733 915 l 733 809 l 240 809 l 240 523 l 693 523 l 693 419 l 240 419 l 240 106 l 761 106 l 761 0 l 110 0 m 349 980 l 349 1110 l 485 1110 l 485 980 l 349 980 "},"г":{"x_min":180,"x_max":713,"ha":834,"o":"m 713 734 l 713 638 l 302 638 l 302 0 l 180 0 l 180 734 l 713 734 "},"Ŀ":{"x_min":161,"x_max":746,"ha":834,"o":"m 161 0 l 161 915 l 291 915 l 291 106 l 746 106 l 746 0 l 161 0 m 455 412 l 455 542 l 591 542 l 591 412 l 455 412 "},"х":{"x_min":64,"x_max":769,"ha":834,"o":"m 632 0 l 414 300 l 195 0 l 64 0 l 345 377 l 76 734 l 210 734 l 414 448 l 616 734 l 753 734 l 483 378 l 769 0 l 632 0 "},"╚":{"x_min":246,"x_max":841,"ha":834,"o":"m 246 1156 l 344 1156 l 344 353 l 841 353 l 841 255 l 246 255 l 246 1156 m 490 1156 l 588 1156 l 588 597 l 841 597 l 841 499 l 490 499 l 490 1156 "},"ŋ":{"x_min":120.9375,"x_max":712,"ha":834,"o":"m 439 653 q 364 637 399 653 q 303 593 329 622 q 261 522 276 564 q 247 425 247 480 l 247 0 l 125 0 l 125 577 q 124 625 125 600 q 123 673 124 651 q 122 712 122 696 q 120 734 121 729 l 236 734 q 237 715 236 730 q 239 681 238 700 q 240 641 240 661 q 241 607 241 621 l 243 607 q 282 665 259 639 q 333 709 304 691 q 397 737 361 727 q 478 747 433 747 q 578 732 535 747 q 651 685 622 717 q 696 606 681 654 q 712 488 712 557 l 712 -90 q 704 -168 712 -132 q 678 -231 697 -204 q 628 -272 660 -257 q 548 -288 597 -288 q 503 -286 525 -288 q 462 -281 481 -285 l 462 -187 q 483 -190 470 -189 q 504 -192 495 -192 q 546 -185 529 -192 q 572 -163 563 -178 q 585 -126 582 -149 q 589 -72 589 -103 l 589 471 q 577 560 589 525 q 546 616 566 595 q 499 644 526 636 q 439 653 472 653 "},"Ч":{"x_min":64,"x_max":728,"ha":834,"o":"m 599 324 q 544 312 574 318 q 479 299 513 305 q 410 289 445 293 q 342 285 374 285 q 133 348 202 285 q 64 532 64 411 l 64 915 l 193 915 l 193 545 q 234 425 193 462 q 351 389 276 389 q 416 392 383 389 q 482 400 450 395 q 545 411 515 405 q 599 422 575 417 l 599 915 l 728 915 l 728 0 l 599 0 l 599 324 "},"∟":{"x_min":35,"x_max":798,"ha":834,"o":"m 35 829 l 99 829 l 99 64 l 798 64 l 798 0 l 35 0 l 35 829 "},"ü":{"x_min":125,"x_max":716.078125,"ha":834,"o":"m 247 734 l 247 268 q 254 178 247 214 q 280 120 262 142 q 327 89 298 98 q 399 80 356 80 q 477 95 442 80 q 537 139 512 110 q 575 210 562 168 q 589 308 589 253 l 589 734 l 712 734 l 712 156 q 712 108 712 133 q 713 60 712 82 q 714 21 714 37 q 716 0 715 4 l 600 0 q 599 18 599 3 q 597 52 598 33 q 595 91 596 71 q 595 125 595 111 l 593 125 q 554 67 575 93 q 505 23 533 41 q 441 -4 477 5 q 358 -14 405 -14 q 252 0 296 -14 q 180 47 208 15 q 138 127 151 78 q 125 244 125 176 l 125 734 l 247 734 m 495 827 l 495 952 l 606 952 l 606 827 l 495 827 m 228 827 l 228 952 l 340 952 l 340 827 l 228 827 "},"ь":{"x_min":138,"x_max":723,"ha":834,"o":"m 440 423 q 651 373 580 423 q 723 215 723 323 q 705 125 723 165 q 652 57 687 85 q 564 14 617 29 q 441 0 511 0 l 138 0 l 138 734 l 260 734 l 260 423 l 440 423 m 260 86 l 423 86 q 502 94 470 86 q 555 119 535 102 q 584 160 575 136 q 593 215 593 184 q 553 308 593 279 q 423 338 514 338 l 260 338 l 260 86 "},"Ÿ":{"x_min":25,"x_max":809,"ha":834,"o":"m 481 396 l 481 0 l 353 0 l 353 396 l 25 915 l 164 915 l 417 500 l 669 915 l 809 915 l 481 396 m 495 980 l 495 1105 l 606 1105 l 606 980 l 495 980 m 228 980 l 228 1105 l 340 1105 l 340 980 l 228 980 "},"€":{"x_min":62,"x_max":762,"ha":834,"o":"m 592 313 l 281 313 q 300 218 286 259 q 341 148 314 176 q 406 105 367 120 q 500 91 445 91 q 564 97 535 91 q 619 113 594 103 q 667 136 645 123 q 710 162 690 149 l 762 70 q 703 35 733 51 q 641 9 673 19 q 572 -7 608 -1 q 493 -14 535 -14 q 351 9 412 -14 q 249 74 291 32 q 183 176 207 116 q 151 311 159 237 l 62 311 l 62 409 l 142 409 q 140 436 141 424 q 140 460 140 447 q 140 489 140 477 q 142 514 141 501 l 62 514 l 62 610 l 149 610 q 254 848 169 768 q 494 929 339 929 q 566 924 532 929 q 632 909 600 919 q 693 885 663 900 q 751 850 722 870 l 696 755 q 610 803 656 783 q 504 823 563 823 q 416 813 455 823 q 349 779 378 804 q 304 714 321 755 q 279 608 287 673 l 592 608 l 592 513 l 270 513 q 269 489 269 503 q 269 460 269 474 q 271 409 269 431 l 592 409 l 592 313 "},"в":{"x_min":125,"x_max":734,"ha":834,"o":"m 438 734 q 538 725 490 734 q 625 696 587 717 q 686 640 663 675 q 710 550 710 605 q 698 487 710 514 q 665 439 686 459 q 618 407 645 420 q 558 388 590 394 l 558 384 q 627 367 595 379 q 683 334 659 355 q 720 283 706 314 q 734 211 734 253 q 713 119 734 158 q 655 52 692 79 q 567 13 618 26 q 454 0 516 0 l 125 0 l 125 734 l 438 734 m 247 90 l 434 90 q 513 96 481 90 q 565 118 545 103 q 594 156 585 133 q 604 210 604 179 q 594 268 604 244 q 563 307 585 292 q 508 329 542 322 q 426 336 474 336 l 247 336 l 247 90 m 247 641 l 247 424 l 420 424 q 498 430 467 424 q 547 450 529 436 q 574 484 566 463 q 582 533 582 504 q 547 615 582 589 q 430 641 512 641 l 247 641 "},"Η":{"x_min":110,"x_max":724,"ha":834,"o":"m 594 0 l 594 422 l 240 422 l 240 0 l 110 0 l 110 915 l 240 915 l 240 531 l 594 531 l 594 915 l 724 915 l 724 0 l 594 0 "},"С":{"x_min":77,"x_max":775,"ha":834,"o":"m 213 461 q 226 303 213 372 q 268 187 240 234 q 341 115 297 139 q 448 91 386 91 q 525 107 491 91 q 586 149 559 123 q 633 210 613 176 q 667 282 652 245 l 775 237 q 728 145 756 190 q 661 64 700 100 q 569 7 621 29 q 447 -14 516 -14 q 282 20 351 -14 q 166 116 212 54 q 99 266 121 179 q 77 461 77 354 q 98 661 77 574 q 165 807 120 748 q 278 898 210 867 q 440 929 347 929 q 560 910 509 929 q 650 860 612 891 q 713 787 687 828 q 757 702 740 746 l 643 658 q 615 718 632 689 q 572 771 597 748 q 514 808 547 794 q 441 823 482 823 q 337 799 380 823 q 266 731 294 776 q 225 617 238 685 q 213 461 213 550 "},"ß":{"x_min":96,"x_max":792,"ha":834,"o":"m 792 199 q 778 114 792 154 q 734 45 764 74 q 659 -2 705 15 q 548 -20 613 -20 q 444 -11 494 -20 q 356 13 393 -3 l 355 124 q 395 105 372 114 q 442 90 417 96 q 494 81 467 84 q 545 78 520 78 q 641 110 608 78 q 675 195 675 142 q 656 263 675 235 q 610 312 638 291 q 551 353 583 333 q 491 396 518 372 q 445 452 463 420 q 427 532 427 484 q 438 591 427 566 q 466 635 449 616 q 502 671 482 655 q 538 705 522 687 q 566 744 555 723 q 578 795 578 765 q 566 841 578 820 q 534 877 555 862 q 482 901 512 892 q 412 910 451 910 q 330 898 366 910 q 269 860 294 886 q 231 792 244 834 q 218 691 218 751 l 218 0 l 96 0 l 96 696 q 117 835 96 776 q 179 931 138 893 q 279 987 220 969 q 413 1006 338 1006 q 535 990 482 1006 q 623 947 587 974 q 677 883 659 920 q 695 804 695 846 q 683 735 695 764 q 655 682 672 705 q 618 642 637 660 q 580 608 598 624 q 552 574 563 591 q 541 536 541 557 q 559 488 541 508 q 606 447 578 467 q 666 406 634 428 q 726 356 698 384 q 773 290 754 327 q 792 199 792 252 "},"└":{"x_min":368,"x_max":841,"ha":834,"o":"m 368 1156 l 466 1156 l 466 475 l 841 475 l 841 377 l 368 377 l 368 1156 "},"њ":{"x_min":62,"x_max":814,"ha":834,"o":"m 166 734 l 166 423 l 391 423 l 391 734 l 495 734 l 495 423 l 531 423 q 742 373 671 423 q 814 215 814 323 q 796 125 814 165 q 743 57 778 85 q 655 14 708 29 q 532 0 602 0 l 391 0 l 391 341 l 166 341 l 166 0 l 62 0 l 62 734 l 166 734 m 495 79 l 531 79 q 611 88 578 79 q 664 115 644 98 q 693 159 684 133 q 702 215 702 184 q 662 312 702 279 q 532 345 623 345 l 495 345 l 495 79 "},"Ű":{"x_min":96,"x_max":745,"ha":834,"o":"m 736 332 q 716 173 736 239 q 656 65 696 107 q 554 5 615 24 q 410 -14 493 -14 q 272 3 331 -14 q 174 61 213 21 q 115 164 135 101 q 96 319 96 228 l 96 915 l 226 915 l 226 337 q 234 224 226 271 q 263 148 242 177 q 319 104 284 118 q 409 91 355 91 q 503 104 465 91 q 564 148 541 118 q 597 227 587 178 q 607 346 607 276 l 607 915 l 736 915 l 736 332 m 478 981 l 478 994 l 618 1157 l 745 1157 l 745 1137 l 542 981 l 478 981 m 231 981 l 231 994 l 371 1157 l 498 1157 l 498 1137 l 295 981 l 231 981 "},"♣":{"x_min":66,"x_max":767,"ha":834,"o":"m 416 810 q 503 795 467 810 q 561 756 539 780 q 593 705 583 733 q 604 651 604 677 q 597 604 604 627 q 580 559 591 580 q 554 520 569 538 q 524 491 540 503 q 625 486 580 497 q 702 453 670 476 q 750 397 733 430 q 767 324 767 364 q 753 254 767 284 q 718 204 740 224 q 666 173 695 184 q 607 163 638 163 q 559 169 583 163 q 513 185 535 175 q 475 207 492 195 q 449 230 458 219 q 464 148 449 184 q 509 88 480 112 q 578 50 538 63 q 666 38 618 38 l 666 0 l 166 0 l 166 38 q 254 50 215 38 q 323 88 294 63 q 368 148 352 112 q 384 230 384 184 q 357 207 374 219 q 319 185 340 195 q 273 169 297 175 q 225 163 249 163 q 166 173 194 163 q 114 204 137 184 q 79 254 92 224 q 66 324 66 284 q 82 397 66 364 q 130 453 99 430 q 207 486 162 476 q 308 491 252 497 q 278 520 292 503 q 252 559 263 538 q 235 604 241 580 q 229 651 229 627 q 239 705 229 677 q 271 756 249 733 q 329 795 293 780 q 416 810 365 810 "},"c":{"x_min":88,"x_max":733,"ha":834,"o":"m 88 367 q 117 550 88 477 q 194 667 146 624 q 303 729 242 711 q 429 747 364 747 q 547 730 495 747 q 637 683 600 713 q 699 613 675 653 q 732 527 723 573 l 602 518 q 547 615 591 579 q 423 651 503 651 q 325 632 365 651 q 261 578 285 613 q 226 489 237 542 q 216 369 216 437 q 226 247 216 301 q 261 156 237 193 q 325 99 285 119 q 422 80 364 80 q 544 115 495 80 q 604 226 592 151 l 733 217 q 703 130 726 172 q 642 56 680 88 q 549 5 603 24 q 428 -14 496 -14 q 270 15 335 -14 q 165 95 205 44 q 106 216 124 146 q 88 367 88 285 "},"¶":{"x_min":86,"x_max":734,"ha":834,"o":"m 646 832 l 646 -220 l 556 -220 l 556 832 l 422 832 l 422 -220 l 332 -220 l 332 430 q 232 445 277 430 q 154 490 187 460 q 104 565 122 520 q 86 670 86 611 q 103 772 86 727 q 152 849 120 818 q 231 898 184 881 q 337 915 278 915 l 734 915 l 734 832 l 646 832 "},"Ή":{"x_min":0,"x_max":766,"ha":834,"o":"m 640 0 l 640 422 l 353 422 l 353 0 l 223 0 l 223 915 l 353 915 l 353 531 l 640 531 l 640 915 l 766 915 l 766 0 l 640 0 m 0 695 l 0 717 l 53 915 l 187 915 l 187 889 l 71 695 l 0 695 "},"γ":{"x_min":36,"x_max":793,"ha":834,"o":"m 173 734 l 356 287 q 374 242 364 269 q 393 189 384 216 q 410 142 403 163 q 418 115 417 121 q 428 144 420 122 q 446 192 436 166 q 467 247 456 219 q 485 294 477 275 l 659 734 l 793 734 l 495 35 q 474 -32 484 4 q 454 -112 463 -70 q 437 -199 445 -154 q 425 -288 430 -243 l 295 -288 q 322 -126 306 -199 q 355 7 339 -54 l 36 734 l 173 734 "},"­":{"x_min":227,"x_max":607,"ha":834,"o":"m 227 314 l 227 423 l 607 423 l 607 314 l 227 314 "},":":{"x_min":337,"x_max":496,"ha":834,"o":"m 337 0 l 337 203 l 496 203 l 496 0 l 337 0 m 337 531 l 337 734 l 496 734 l 496 531 l 337 531 "},"╓":{"x_min":246,"x_max":841,"ha":834,"o":"m 841 475 l 841 377 l 588 377 l 588 -417 l 490 -417 l 490 377 l 344 377 l 344 -417 l 246 -417 l 246 475 l 841 475 "},"ś":{"x_min":113,"x_max":719,"ha":834,"o":"m 719 209 q 698 116 719 157 q 640 46 678 74 q 547 1 602 17 q 421 -14 492 -14 q 306 -4 357 -14 q 216 25 254 4 q 151 81 177 46 q 113 167 125 116 l 221 189 q 247 129 229 151 q 290 96 265 107 q 349 80 315 84 q 420 77 382 77 q 493 82 460 77 q 551 102 527 88 q 590 138 576 116 q 604 192 604 160 q 586 247 604 226 q 539 282 569 268 q 468 306 509 296 q 379 329 427 317 q 293 354 336 341 q 216 390 250 368 q 162 446 183 412 q 142 532 142 480 q 213 688 142 632 q 422 745 285 745 q 522 735 475 745 q 606 703 569 725 q 667 648 642 682 q 702 568 692 615 l 592 555 q 571 604 587 585 q 533 634 556 623 q 482 649 510 645 q 422 654 453 654 q 256 551 256 654 q 270 501 256 520 q 311 468 285 481 q 374 446 338 456 q 455 426 411 437 q 546 401 499 415 q 631 363 592 386 q 694 302 669 339 q 719 209 719 265 m 331 815 l 331 828 l 485 991 l 619 991 l 619 971 l 415 815 l 331 815 "}," ":{"x_min":0,"x_max":0,"ha":834},"У":{"x_min":14,"x_max":818,"ha":834,"o":"m 457 215 q 398 111 426 154 q 340 40 371 68 q 272 0 310 12 q 184 -14 235 -14 q 141 -10 163 -14 q 96 -1 118 -7 q 55 13 74 4 q 20 33 35 22 l 74 131 q 126 103 98 116 q 187 91 154 91 q 232 97 213 91 q 270 122 252 104 q 308 170 289 140 q 352 247 327 200 l 378 298 l 14 915 l 159 915 l 442 413 l 678 915 l 818 915 l 457 215 "},"¾":{"x_min":8,"x_max":834,"ha":834,"o":"m 357 538 q 343 473 357 501 q 307 426 330 445 q 252 396 284 406 q 182 387 220 387 q 108 399 139 387 q 56 432 77 412 q 23 478 35 452 q 8 531 12 504 l 100 540 q 128 478 106 499 q 182 458 150 458 q 241 478 219 458 q 264 542 264 498 q 255 583 264 567 q 233 608 247 599 q 200 620 219 617 q 162 624 182 624 l 135 624 l 135 697 l 160 697 q 228 717 206 697 q 250 781 250 736 q 231 834 250 817 q 185 851 213 851 q 133 829 155 851 q 107 770 111 808 l 15 778 q 34 841 19 814 q 72 887 49 868 q 124 914 95 905 q 185 923 153 923 q 254 912 225 923 q 303 883 284 901 q 333 839 323 864 q 343 786 343 814 q 320 712 343 741 q 250 666 297 683 l 250 664 q 331 618 306 652 q 357 538 357 584 m 234 0 l 154 0 l 632 915 l 710 915 l 234 0 m 751 110 l 751 1 l 665 1 l 665 110 l 411 110 l 411 177 l 655 518 l 751 518 l 751 179 l 834 179 l 834 110 l 751 110 m 665 431 q 654 414 661 425 q 639 392 647 404 q 623 370 631 381 q 610 352 615 359 l 486 179 l 665 179 l 665 355 q 665 374 665 364 q 665 396 665 385 q 665 415 665 406 q 665 431 665 425 "},"Ί":{"x_min":2,"x_max":782,"ha":834,"o":"m 224 915 l 782 915 l 782 809 l 568 809 l 568 106 l 782 106 l 782 0 l 224 0 l 224 106 l 438 106 l 438 809 l 224 809 l 224 915 m 2 696 l 2 718 l 55 916 l 189 916 l 189 890 l 73 696 l 2 696 "},"ŉ":{"x_min":4,"x_max":783,"ha":834,"o":"m 660 0 l 660 471 q 648 560 660 525 q 617 616 637 595 q 570 644 597 636 q 510 653 543 653 q 435 637 470 653 q 374 593 400 622 q 332 522 347 564 q 318 425 318 480 l 318 0 l 196 0 l 196 577 q 195 625 196 600 q 194 673 195 651 q 193 712 193 696 q 191 734 192 729 l 307 734 q 308 715 307 730 q 310 681 309 700 q 311 641 311 661 q 312 607 312 621 l 314 607 q 353 665 330 639 q 404 709 375 691 q 468 737 432 727 q 549 747 504 747 q 649 732 606 747 q 722 685 693 717 q 767 606 752 654 q 783 488 783 557 l 783 0 l 660 0 m 4 696 l 4 718 l 57 916 l 191 916 l 191 890 l 75 696 l 4 696 "},"┴":{"x_min":-7,"x_max":841,"ha":834,"o":"m -7 377 l -7 475 l 368 475 l 368 1156 l 466 1156 l 466 475 l 841 475 l 841 377 l -7 377 "},"Ģ":{"x_min":77,"x_max":748,"ha":834,"o":"m 747 89 q 690 55 722 73 q 618 21 658 36 q 533 -3 579 6 q 433 -14 486 -14 q 275 21 342 -14 q 164 120 208 57 q 98 270 120 183 q 77 461 77 357 q 98 662 77 574 q 163 808 119 749 q 274 898 207 867 q 435 929 342 929 q 554 911 503 929 q 643 863 605 893 q 706 792 680 833 q 748 704 731 751 l 632 667 q 559 782 606 741 q 436 823 512 823 q 333 799 375 823 q 263 730 290 776 q 224 617 236 684 q 213 461 213 549 q 270 185 213 279 q 444 91 327 91 q 505 96 477 91 q 556 110 533 102 q 595 126 578 118 q 621 141 612 135 l 621 369 l 422 369 l 422 478 l 747 478 l 747 89 m 323 -286 l 323 -263 l 376 -66 l 510 -66 l 510 -91 l 394 -286 l 323 -286 "},"m":{"x_min":66.921875,"x_max":763,"ha":834,"o":"m 360 0 l 360 465 q 355 554 360 518 q 342 612 351 590 q 319 643 333 634 q 282 653 304 653 q 242 635 260 653 q 212 586 225 618 q 192 510 199 555 q 186 411 186 466 l 186 0 l 71 0 l 71 577 q 70 625 71 600 q 69 673 70 651 q 68 712 68 696 q 66 734 67 729 l 168 734 q 169 716 169 730 q 171 684 170 702 q 172 647 171 666 q 172 614 172 628 l 173 614 q 194 665 182 641 q 224 707 207 689 q 265 736 241 725 q 320 747 288 747 q 409 714 379 747 q 451 614 438 681 l 452 614 q 479 670 465 645 q 513 712 494 695 q 556 738 532 729 q 613 747 581 747 q 683 732 654 747 q 729 685 712 717 q 755 606 747 654 q 763 488 763 557 l 763 0 l 649 0 l 649 465 q 644 554 649 518 q 631 612 640 590 q 607 643 622 634 q 571 653 593 653 q 500 596 526 653 q 474 425 474 539 l 474 0 l 360 0 "},"Е":{"x_min":110,"x_max":761,"ha":834,"o":"m 110 0 l 110 915 l 733 915 l 733 809 l 240 809 l 240 523 l 693 523 l 693 419 l 240 419 l 240 106 l 761 106 l 761 0 l 110 0 "},"ž":{"x_min":100,"x_max":725,"ha":834,"o":"m 100 0 l 100 92 l 562 640 l 127 640 l 127 734 l 700 734 l 700 641 l 236 94 l 725 94 l 725 0 l 100 0 m 476 815 l 365 815 l 193 977 l 193 991 l 263 991 l 420 897 l 422 897 l 570 991 l 642 991 l 642 977 l 476 815 "},"╞":{"x_min":368,"x_max":841,"ha":834,"o":"m 368 1156 l 466 1156 l 466 597 l 841 597 l 841 499 l 466 499 l 466 353 l 841 353 l 841 255 l 466 255 l 466 -417 l 368 -417 l 368 1156 "},"á":{"x_min":87,"x_max":787,"ha":834,"o":"m 746 75 q 767 76 757 75 q 787 79 777 77 l 787 3 q 741 -4 763 -1 q 692 -7 718 -7 q 633 2 658 -7 q 592 29 608 11 q 569 75 577 48 q 559 139 561 103 l 555 139 q 512 76 536 104 q 460 27 489 47 q 391 -3 430 7 q 302 -14 352 -14 q 141 44 195 -14 q 87 204 87 102 q 113 323 87 276 q 183 396 140 369 q 282 433 227 422 q 394 444 337 443 l 555 447 l 555 487 q 545 564 555 532 q 518 615 536 596 q 471 644 499 635 q 404 654 442 654 q 343 648 371 654 q 296 630 316 643 q 264 594 276 617 q 247 537 251 571 l 119 548 q 145 628 126 592 q 197 691 163 664 q 282 732 231 717 q 406 747 333 747 q 609 683 541 747 q 678 500 678 620 l 678 184 q 692 102 678 129 q 746 75 706 75 m 333 79 q 431 100 390 79 q 500 154 472 121 q 541 226 527 186 q 555 301 555 265 l 555 362 l 426 359 q 351 353 388 358 q 283 332 313 348 q 234 284 253 315 q 215 202 215 254 q 245 112 215 146 q 333 79 275 79 m 325 815 l 325 828 l 479 991 l 613 991 l 613 971 l 409 815 l 325 815 "},"×":{"x_min":106.875,"x_max":726.09375,"ha":834,"o":"m 106 223 l 346 463 l 108 702 l 178 772 l 416 532 l 653 770 l 724 699 l 487 463 l 726 224 l 656 153 l 417 392 l 176 152 l 106 223 "},"п":{"x_min":123,"x_max":711,"ha":834,"o":"m 711 734 l 711 0 l 589 0 l 589 638 l 245 638 l 245 0 l 123 0 l 123 734 l 711 734 "},"Ǻ":{"x_min":0,"x_max":833,"ha":834,"o":"m 581 820 q 566 760 581 788 q 521 712 551 731 l 833 0 l 701 0 l 607 219 l 225 219 l 132 0 l 0 0 l 315 709 q 267 758 283 729 q 252 820 252 787 q 262 871 252 847 q 292 914 272 896 q 344 944 313 933 q 416 956 375 956 q 488 944 457 956 q 540 914 519 933 q 570 871 560 896 q 581 820 581 847 m 475 549 q 461 586 468 567 q 446 623 453 605 q 433 657 439 641 q 423 685 428 673 l 411 685 q 402 657 407 673 q 390 622 396 640 q 377 585 384 604 q 363 549 370 566 l 268 323 l 566 323 l 475 549 m 356 980 l 356 993 l 510 1156 l 644 1156 l 644 1136 l 440 980 l 356 980 m 499 820 q 494 840 499 830 q 480 858 490 850 q 454 871 470 866 q 416 877 438 877 q 378 871 393 877 q 352 858 362 866 q 337 840 341 850 q 333 820 333 830 q 337 800 333 810 q 352 782 341 790 q 378 769 362 774 q 416 764 393 764 q 454 769 438 764 q 480 782 470 774 q 494 800 490 790 q 499 820 499 810 "},"K":{"x_min":110,"x_max":833.25,"ha":834,"o":"m 681 0 l 350 432 l 240 318 l 240 0 l 110 0 l 110 915 l 240 915 l 240 458 l 628 915 l 781 915 l 438 527 l 833 0 l 681 0 "},"7":{"x_min":107,"x_max":725,"ha":834,"o":"m 725 821 q 602 627 660 727 q 500 424 544 527 q 430 214 456 320 q 405 0 405 107 l 277 0 q 304 214 277 107 q 376 424 331 320 q 481 627 422 528 q 607 817 541 726 l 107 817 l 107 915 l 725 915 l 725 821 "},"¨":{"x_min":227,"x_max":605,"ha":834,"o":"m 494 827 l 494 952 l 605 952 l 605 827 l 494 827 m 227 827 l 227 952 l 339 952 l 339 827 l 227 827 "},"Y":{"x_min":25,"x_max":809,"ha":834,"o":"m 481 396 l 481 0 l 353 0 l 353 396 l 25 915 l 164 915 l 417 500 l 669 915 l 809 915 l 481 396 "},"E":{"x_min":110,"x_max":761,"ha":834,"o":"m 110 0 l 110 915 l 733 915 l 733 809 l 240 809 l 240 523 l 693 523 l 693 419 l 240 419 l 240 106 l 761 106 l 761 0 l 110 0 "},"Ô":{"x_min":69,"x_max":764,"ha":834,"o":"m 764 461 q 740 255 764 344 q 671 106 716 166 q 562 16 626 46 q 415 -14 497 -14 q 264 17 329 -14 q 155 110 199 49 q 90 259 112 171 q 69 461 69 348 q 92 666 69 578 q 159 812 115 753 q 268 899 203 870 q 417 929 333 929 q 674 811 584 929 q 764 461 764 693 m 628 461 q 574 733 628 644 q 417 823 520 823 q 258 733 311 823 q 205 461 205 644 q 258 184 205 278 q 416 91 312 91 q 577 185 527 91 q 628 461 628 280 m 641 993 l 641 980 l 569 980 l 421 1074 l 419 1074 l 262 980 l 192 980 l 192 993 l 364 1156 l 475 1156 l 641 993 "},"Є":{"x_min":77,"x_max":775,"ha":834,"o":"m 214 413 q 232 275 217 335 q 277 174 248 215 q 348 112 305 133 q 448 91 391 91 q 525 107 491 91 q 586 149 559 123 q 633 210 613 176 q 667 282 652 245 l 775 237 q 728 145 756 190 q 661 64 700 100 q 569 7 621 29 q 447 -14 516 -14 q 282 20 351 -14 q 166 116 212 54 q 99 266 121 179 q 77 461 77 354 q 98 661 77 574 q 165 807 120 748 q 278 898 210 867 q 440 929 347 929 q 560 910 509 929 q 650 860 612 891 q 713 787 687 828 q 757 702 740 746 l 643 658 q 615 718 632 689 q 572 771 597 748 q 515 808 548 794 q 441 823 482 823 q 344 802 385 823 q 275 743 302 782 q 232 645 247 704 q 214 511 217 587 l 504 511 l 504 413 l 214 413 "},"Ï":{"x_min":138,"x_max":696,"ha":834,"o":"m 138 915 l 696 915 l 696 809 l 482 809 l 482 106 l 696 106 l 696 0 l 138 0 l 138 106 l 352 106 l 352 809 l 138 809 l 138 915 m 495 980 l 495 1105 l 606 1105 l 606 980 l 495 980 m 228 980 l 228 1105 l 340 1105 l 340 980 l 228 980 "},"ġ":{"x_min":97,"x_max":715.0625,"ha":834,"o":"m 417 -288 q 309 -275 356 -288 q 229 -238 263 -262 q 175 -180 195 -214 q 145 -106 154 -147 l 270 -90 q 320 -168 282 -140 q 421 -196 359 -196 q 491 -184 460 -196 q 544 -147 522 -172 q 578 -81 566 -121 q 590 17 590 -40 l 590 149 l 588 149 q 555 96 575 122 q 507 51 535 71 q 441 19 479 31 q 355 8 404 8 q 237 30 286 8 q 157 98 188 52 q 111 212 126 143 q 97 372 97 280 q 111 530 97 460 q 158 647 126 599 q 242 719 190 694 q 368 745 293 745 q 502 709 445 745 q 589 608 558 673 l 591 608 q 592 646 591 625 q 594 685 593 667 q 597 718 595 704 q 599 734 598 731 l 715 734 q 713 713 714 727 q 712 678 713 698 q 711 633 711 658 q 711 581 711 608 l 711 21 q 639 -210 711 -132 q 417 -288 567 -288 m 590 373 q 573 503 590 449 q 530 590 557 557 q 469 639 503 624 q 399 654 435 654 q 320 638 353 654 q 265 589 286 623 q 233 503 243 556 q 223 373 223 449 q 233 241 223 293 q 264 156 243 188 q 319 111 286 124 q 396 98 352 98 q 467 112 433 98 q 529 159 502 127 q 573 244 556 192 q 590 373 590 297 m 343 876 l 343 1006 l 479 1006 l 479 876 l 343 876 "},"έ":{"x_min":119,"x_max":739,"ha":834,"o":"m 421 77 q 507 87 468 77 q 577 114 546 97 q 630 149 608 130 q 667 186 653 169 l 739 118 q 687 67 717 91 q 617 25 656 43 q 527 -3 577 7 q 413 -14 476 -14 q 279 1 335 -14 q 188 45 224 17 q 135 113 152 74 q 119 199 119 152 q 134 271 119 238 q 174 326 149 303 q 234 364 200 350 q 304 381 267 378 l 304 383 q 240 400 269 387 q 188 436 210 414 q 153 487 166 457 q 141 550 141 516 q 159 628 141 592 q 215 691 178 664 q 306 732 251 717 q 431 747 360 747 q 603 717 532 747 q 721 621 675 688 l 634 562 q 552 633 602 610 q 432 656 503 656 q 304 627 344 656 q 264 548 264 598 q 288 485 264 509 q 353 449 312 462 q 446 433 393 437 q 555 429 498 429 l 555 337 q 482 335 519 337 q 410 329 445 334 q 346 316 376 324 q 294 291 316 307 q 258 254 271 276 q 246 201 246 232 q 290 108 246 139 q 421 77 335 77 m 377 815 l 377 837 l 430 1035 l 564 1035 l 564 1009 l 448 815 l 377 815 "},"ϋ":{"x_min":111,"x_max":741,"ha":834,"o":"m 741 387 q 720 220 741 294 q 659 93 700 146 q 557 13 618 41 q 412 -14 495 -14 q 281 2 338 -14 q 187 56 225 19 q 130 148 149 92 q 111 283 111 205 l 111 734 l 234 734 l 234 279 q 280 130 234 180 q 417 80 326 80 q 505 96 468 80 q 566 150 542 113 q 603 245 591 187 q 616 384 616 302 q 609 480 616 430 q 591 577 602 530 q 566 665 580 624 q 539 734 553 706 l 667 734 q 692 668 679 706 q 716 584 705 630 q 734 488 727 539 q 741 387 741 438 m 476 827 l 476 952 l 587 952 l 587 827 l 476 827 m 209 827 l 209 952 l 321 952 l 321 827 l 209 827 "},"й":{"x_min":125,"x_max":709,"ha":834,"o":"m 243 734 l 243 332 q 241 290 243 316 q 239 236 240 264 q 237 183 238 208 q 236 144 236 158 l 575 734 l 709 734 l 709 0 l 592 0 l 592 447 q 592 479 592 460 q 594 519 593 499 q 596 559 595 540 q 598 592 598 578 l 255 0 l 125 0 l 125 734 l 243 734 m 417 814 q 302 826 349 814 q 226 863 255 839 q 182 918 196 886 q 168 990 169 951 l 279 990 q 291 941 281 960 q 318 910 301 921 q 360 893 336 898 q 417 889 385 889 q 473 893 448 889 q 515 910 497 898 q 542 941 532 921 q 555 990 552 960 l 666 990 q 651 918 664 951 q 607 863 637 886 q 531 826 578 839 q 417 814 484 814 "},"b":{"x_min":120.9375,"x_max":739,"ha":834,"o":"m 739 370 q 670 81 739 177 q 472 -14 601 -14 q 336 15 394 -14 q 246 110 278 44 l 244 110 q 244 74 244 93 q 242 40 243 56 q 240 13 241 25 q 238 0 239 2 l 120 0 q 122 20 121 6 q 123 55 122 35 q 124 100 124 75 q 125 151 125 124 l 125 1006 l 247 1006 l 247 719 q 246 680 247 700 q 245 646 246 661 q 244 613 244 628 l 247 613 q 336 716 279 684 q 473 749 394 749 q 672 654 605 749 q 739 370 739 560 m 613 366 q 602 497 613 442 q 571 586 592 551 q 517 638 549 621 q 440 655 485 655 q 359 639 395 655 q 298 589 323 624 q 260 497 274 554 q 247 355 247 439 q 260 220 247 274 q 298 134 274 167 q 359 89 323 102 q 439 76 395 76 q 514 91 481 76 q 568 141 547 107 q 601 231 590 176 q 613 366 613 287 "},"ύ":{"x_min":111,"x_max":741,"ha":834,"o":"m 741 387 q 720 220 741 294 q 659 93 700 146 q 557 13 618 41 q 412 -14 495 -14 q 281 2 338 -14 q 187 56 225 19 q 130 148 149 92 q 111 283 111 205 l 111 734 l 234 734 l 234 279 q 280 130 234 180 q 417 80 326 80 q 505 96 468 80 q 566 150 542 113 q 603 245 591 187 q 616 384 616 302 q 609 480 616 430 q 591 577 602 530 q 566 665 580 624 q 539 734 553 706 l 667 734 q 692 668 679 706 q 716 584 705 630 q 734 488 727 539 q 741 387 741 438 m 336 815 l 336 837 l 389 1035 l 523 1035 l 523 1009 l 407 815 l 336 815 "},"ﬂ":{"x_min":57,"x_max":720,"ha":834,"o":"m 282 645 l 282 0 l 160 0 l 160 645 l 57 645 l 57 734 l 160 734 l 160 816 q 167 890 160 856 q 195 950 174 925 q 249 990 215 975 q 339 1005 284 1005 q 384 1002 361 1005 q 426 996 408 1000 l 426 903 q 399 907 414 905 q 371 909 383 909 q 326 901 344 909 q 299 880 309 894 q 285 846 289 866 q 282 799 282 825 l 282 734 l 426 734 l 426 645 l 282 645 m 598 0 l 598 1006 l 720 1006 l 720 0 l 598 0 "},"ф":{"x_min":48,"x_max":785,"ha":834,"o":"m 785 367 q 763 211 785 279 q 701 96 742 144 q 603 22 661 49 q 470 -11 544 -4 l 470 -288 l 365 -288 l 365 -12 q 233 20 292 -5 q 134 94 175 47 q 70 209 92 141 q 48 367 48 277 q 69 521 48 454 q 130 636 90 588 q 230 711 171 683 q 365 745 289 738 l 365 1006 l 470 1006 l 470 745 q 707 638 629 732 q 785 367 785 544 m 176 367 q 190 240 176 292 q 231 154 205 188 q 291 102 257 120 q 365 79 325 85 l 365 653 q 287 628 322 646 q 228 576 253 610 q 189 491 203 542 q 176 367 176 439 m 657 367 q 643 493 657 441 q 605 579 629 545 q 546 630 580 612 q 470 653 512 648 l 470 80 q 545 104 511 86 q 604 157 580 123 q 643 242 629 190 q 657 367 657 294 "},"Ŋ":{"x_min":120.9375,"x_max":753,"ha":834,"o":"m 753 367 q 742 208 753 279 q 705 88 731 137 q 635 12 679 38 q 522 -14 590 -14 q 450 -5 480 -14 q 397 17 420 2 q 359 50 375 31 q 329 89 343 68 l 417 157 q 438 130 428 142 q 461 109 448 118 q 489 95 473 100 q 525 90 504 90 q 577 109 557 90 q 609 165 597 129 q 625 253 621 201 q 630 370 630 305 l 630 653 q 617 742 630 707 q 583 798 605 777 q 531 826 561 818 q 466 835 501 835 q 381 819 421 835 q 311 775 341 804 q 264 704 281 746 q 247 607 247 662 l 247 0 l 125 0 l 125 759 q 124 807 125 782 q 123 855 124 833 q 122 894 122 878 q 120 916 121 911 l 236 916 q 237 897 236 912 q 239 863 238 882 q 240 823 240 843 q 241 789 241 803 l 243 789 q 341 891 276 854 q 506 929 406 929 q 611 914 565 929 q 688 867 657 899 q 736 787 720 836 q 753 670 753 739 l 753 367 "},"╩":{"x_min":-7,"x_max":841,"ha":834,"o":"m 490 1156 l 588 1156 l 588 597 l 841 597 l 841 499 l 490 499 l 490 1156 m 246 1156 l 344 1156 l 344 499 l -7 499 l -7 597 l 246 597 l 246 1156 m -7 255 l -7 353 l 841 353 l 841 255 l -7 255 "},"Ũ":{"x_min":96,"x_max":736,"ha":834,"o":"m 736 332 q 716 173 736 239 q 656 65 696 107 q 554 5 615 24 q 410 -14 493 -14 q 272 3 331 -14 q 174 61 213 21 q 115 164 135 101 q 96 319 96 228 l 96 915 l 226 915 l 226 337 q 234 224 226 271 q 263 148 242 177 q 319 104 284 118 q 409 91 355 91 q 503 104 465 91 q 564 148 541 118 q 597 227 587 178 q 607 346 607 276 l 607 915 l 736 915 l 736 332 m 523 981 q 466 993 494 981 q 410 1021 437 1006 q 357 1049 383 1036 q 307 1062 331 1062 q 281 1056 291 1062 q 265 1040 272 1051 q 255 1015 259 1030 q 249 981 252 1000 l 174 981 q 184 1041 177 1011 q 206 1095 190 1071 q 246 1134 221 1119 q 311 1149 271 1149 q 369 1136 341 1149 q 425 1108 398 1123 q 477 1080 452 1093 q 525 1068 502 1068 q 550 1073 540 1068 q 567 1089 560 1078 q 577 1114 574 1099 q 584 1149 581 1129 l 660 1149 q 649 1089 656 1119 q 628 1035 643 1059 q 588 996 613 1011 q 523 981 563 981 "},"Щ":{"x_min":58,"x_max":833,"ha":834,"o":"m 737 -288 l 737 0 l 58 0 l 58 915 l 168 915 l 168 95 l 343 95 l 343 915 l 453 915 l 453 95 l 627 95 l 627 915 l 737 915 l 737 95 l 833 95 l 833 -288 l 737 -288 "},"L":{"x_min":161,"x_max":746,"ha":834,"o":"m 161 0 l 161 915 l 291 915 l 291 106 l 746 106 l 746 0 l 161 0 "},";":{"x_min":239,"x_max":533,"ha":834,"o":"m 337 531 l 337 734 l 496 734 l 496 531 l 337 531 m 239 -246 l 353 203 l 533 203 l 322 -246 l 239 -246 "},"ď":{"x_min":21,"x_max":835,"ha":834,"o":"m 450 117 q 371 14 416 46 q 260 -18 326 -18 q 161 5 206 -18 q 86 76 117 28 q 37 194 54 123 q 21 360 21 265 q 38 529 21 457 q 88 649 56 601 q 163 721 120 697 q 260 745 207 745 q 371 715 327 745 q 450 620 416 686 l 451 620 q 451 637 451 623 q 450 668 450 652 q 450 701 450 685 q 450 722 450 716 l 450 1006 l 572 1006 l 572 151 q 572 100 572 124 q 573 55 572 75 q 574 20 574 35 q 576 0 575 6 l 459 0 q 457 14 458 2 q 455 43 456 27 q 453 80 454 60 q 452 117 452 100 l 450 117 m 147 364 q 155 234 147 288 q 179 144 163 179 q 221 92 195 109 q 281 76 246 76 q 345 94 314 76 q 398 149 375 112 q 436 243 422 186 q 450 375 450 299 q 436 501 450 449 q 399 588 422 554 q 345 639 375 623 q 282 655 314 655 q 224 639 249 655 q 181 589 199 623 q 155 499 164 554 q 147 364 147 443 m 648 786 l 648 808 l 701 1006 l 835 1006 l 835 980 l 719 786 l 648 786 "},"Ο":{"x_min":69,"x_max":764,"ha":834,"o":"m 764 461 q 740 255 764 344 q 671 106 716 166 q 562 16 626 46 q 415 -14 497 -14 q 264 17 329 -14 q 155 110 199 49 q 90 259 112 171 q 69 461 69 348 q 92 666 69 578 q 159 812 115 753 q 268 899 203 870 q 417 929 333 929 q 674 811 584 929 q 764 461 764 693 m 628 461 q 574 733 628 644 q 417 823 520 823 q 258 733 311 823 q 205 461 205 644 q 258 184 205 278 q 416 91 312 91 q 577 185 527 91 q 628 461 628 280 "},"Ĭ":{"x_min":138,"x_max":696,"ha":834,"o":"m 138 915 l 696 915 l 696 809 l 482 809 l 482 106 l 696 106 l 696 0 l 138 0 l 138 106 l 352 106 l 352 809 l 138 809 l 138 915 m 416 980 q 329 995 366 980 q 266 1037 291 1011 q 225 1094 240 1062 q 205 1156 210 1125 l 291 1156 q 331 1088 302 1112 q 416 1065 361 1065 q 503 1088 474 1065 q 544 1156 532 1112 l 630 1156 q 608 1094 623 1125 q 568 1037 594 1062 q 505 995 543 1011 q 416 980 468 980 "},"♪":{"x_min":191,"x_max":635,"ha":834,"o":"m 533 184 q 571 249 557 210 q 585 332 585 288 q 573 405 585 371 q 544 464 562 438 q 501 508 525 490 q 450 535 477 526 l 450 129 q 436 83 450 104 q 400 47 422 62 q 352 24 378 32 q 299 16 325 16 q 257 21 277 16 q 222 38 237 27 q 199 64 207 49 q 191 100 191 80 q 204 143 191 123 q 238 179 217 163 q 286 203 260 194 q 340 212 313 212 q 375 208 357 212 q 408 196 393 204 l 408 764 l 433 764 q 457 690 437 730 q 523 601 477 649 q 574 543 553 571 q 608 485 595 514 q 628 425 622 456 q 635 360 635 394 q 628 301 635 328 q 610 252 621 274 q 587 213 600 230 q 564 184 575 195 l 533 184 "},"ŧ":{"x_min":136,"x_max":697,"ha":834,"o":"m 665 439 l 665 349 l 372 349 l 372 195 q 400 115 372 141 q 495 90 429 90 q 551 92 522 90 q 607 98 580 94 q 657 105 633 101 q 697 113 680 109 l 697 20 q 658 10 682 16 q 605 0 634 5 q 540 -7 575 -4 q 469 -11 506 -11 q 304 35 359 -11 q 250 182 250 81 l 250 349 l 136 349 l 136 439 l 250 439 l 250 638 l 136 638 l 136 734 l 251 734 l 290 925 l 372 925 l 372 734 l 665 734 l 665 638 l 372 638 l 372 439 l 665 439 "},"À":{"x_min":0,"x_max":833,"ha":834,"o":"m 701 0 l 607 259 l 226 259 l 132 0 l 0 0 l 346 915 l 493 915 l 833 0 l 701 0 m 475 647 q 457 699 466 672 q 439 749 447 725 q 426 791 432 773 q 417 817 420 809 q 409 790 415 809 q 396 748 404 772 q 380 698 388 725 q 362 647 371 672 l 260 360 l 574 360 l 475 647 m 413 980 l 210 1136 l 210 1156 l 343 1156 l 498 993 l 498 980 l 413 980 "},"Ϊ":{"x_min":138,"x_max":696,"ha":834,"o":"m 138 915 l 696 915 l 696 809 l 482 809 l 482 106 l 696 106 l 696 0 l 138 0 l 138 106 l 352 106 l 352 809 l 138 809 l 138 915 m 496 1008 l 496 1133 l 607 1133 l 607 1008 l 496 1008 m 229 1008 l 229 1133 l 341 1133 l 341 1008 l 229 1008 "},"½":{"x_min":12,"x_max":814,"ha":834,"o":"m 36 399 l 36 472 l 128 472 l 128 820 q 103 789 119 802 q 70 769 87 777 q 36 758 52 761 q 12 755 20 755 l 12 836 q 40 840 24 836 q 74 853 56 844 q 107 877 91 862 q 134 915 123 892 l 217 915 l 217 472 l 296 472 l 296 399 l 36 399 m 206 0 l 126 0 l 604 915 l 682 915 l 206 0 m 460 0 l 460 66 q 501 132 476 103 q 554 185 526 161 q 611 231 583 209 q 663 274 640 252 q 700 320 686 296 q 715 373 715 344 q 697 434 715 412 q 639 456 680 456 q 578 435 598 456 q 553 373 558 414 l 465 376 q 482 435 469 408 q 517 482 495 462 q 570 512 539 501 q 643 524 602 524 q 765 486 724 524 q 807 378 807 448 q 791 310 807 340 q 751 255 775 280 q 698 207 727 229 q 641 164 668 185 q 590 120 613 142 q 556 73 566 98 l 814 73 l 814 0 l 460 0 "},"╛":{"x_min":-7,"x_max":466,"ha":834,"o":"m -7 255 l -7 353 l 368 353 l 368 499 l -7 499 l -7 597 l 368 597 l 368 1156 l 466 1156 l 466 255 l -7 255 "},"╜":{"x_min":-7,"x_max":588,"ha":834,"o":"m 588 377 l -7 377 l -7 475 l 246 475 l 246 1156 l 344 1156 l 344 475 l 490 475 l 490 1156 l 588 1156 l 588 377 "},"'":{"x_min":341,"x_max":493,"ha":834,"o":"m 464 573 l 368 573 l 341 1006 l 493 1006 l 464 573 "},"ĳ":{"x_min":146,"x_max":720,"ha":834,"o":"m 160 734 l 282 734 l 282 0 l 160 0 l 160 734 m 146 876 l 146 1006 l 282 1006 l 282 876 l 146 876 m 598 734 l 720 734 l 720 -18 q 695 -143 720 -92 q 631 -227 671 -195 q 538 -273 591 -259 q 427 -288 485 -288 q 371 -285 399 -288 q 318 -279 343 -283 q 270 -270 292 -275 q 232 -258 248 -264 l 232 -163 q 267 -171 246 -167 q 312 -178 287 -175 q 363 -184 336 -182 q 417 -187 390 -187 q 488 -177 455 -187 q 545 -147 521 -168 q 584 -94 570 -126 q 598 -16 598 -62 l 598 734 m 584 876 l 584 1006 l 720 1006 l 720 876 l 584 876 "},"╟":{"x_min":246,"x_max":841,"ha":834,"o":"m 490 1156 l 588 1156 l 588 475 l 841 475 l 841 377 l 588 377 l 588 -417 l 490 -417 l 490 1156 m 246 1156 l 344 1156 l 344 -417 l 246 -417 l 246 1156 "},"Р":{"x_min":110,"x_max":759,"ha":834,"o":"m 759 641 q 739 531 759 584 q 678 438 719 479 q 575 373 637 397 q 430 349 513 349 l 240 349 l 240 0 l 110 0 l 110 915 l 421 915 q 569 895 506 915 q 674 839 632 875 q 737 753 716 803 q 759 641 759 702 m 629 638 q 573 767 629 723 q 406 811 517 811 l 240 811 l 240 451 l 412 451 q 508 465 467 451 q 576 505 549 480 q 616 564 603 530 q 629 638 629 599 "},"˛":{"x_min":299,"x_max":536,"ha":834,"o":"m 536 -271 q 493 -284 517 -279 q 441 -290 468 -290 q 334 -255 370 -290 q 299 -163 299 -220 q 310 -104 299 -131 q 338 -56 322 -77 q 372 -21 354 -36 q 404 0 391 -7 l 494 0 q 459 -24 477 -9 q 427 -60 442 -40 q 404 -103 413 -80 q 395 -153 395 -127 q 411 -198 395 -182 q 458 -215 428 -215 q 497 -210 477 -215 q 536 -198 517 -206 l 536 -271 "},"♂":{"x_min":111,"x_max":697,"ha":834,"o":"m 111 280 q 126 358 111 322 q 170 422 142 395 q 234 466 197 450 q 313 482 271 482 q 379 470 348 482 q 437 438 411 458 l 611 613 l 458 627 l 457 664 l 681 664 l 697 648 l 697 424 l 660 425 l 646 578 l 471 404 q 503 346 491 378 q 515 280 515 315 q 499 201 515 238 q 455 137 483 164 q 391 93 428 109 q 313 78 355 78 q 234 93 271 78 q 170 137 197 109 q 126 201 142 164 q 111 280 111 238 m 160 280 q 171 220 160 248 q 204 171 183 192 q 253 138 225 150 q 313 127 281 127 q 372 138 344 127 q 420 171 400 150 q 453 220 441 192 q 466 280 466 248 q 453 339 466 311 q 420 387 441 367 q 372 420 400 408 q 313 433 344 433 q 253 420 281 433 q 204 387 225 408 q 171 339 183 367 q 160 280 160 311 "},"╨":{"x_min":-7,"x_max":841,"ha":834,"o":"m -7 377 l -7 475 l 246 475 l 246 1156 l 344 1156 l 344 475 l 490 475 l 490 1156 l 588 1156 l 588 475 l 841 475 l 841 377 l -7 377 "},"Ć":{"x_min":77,"x_max":775,"ha":834,"o":"m 213 461 q 226 303 213 372 q 268 187 240 234 q 341 115 297 139 q 448 91 386 91 q 525 107 491 91 q 586 149 559 123 q 633 210 613 176 q 667 282 652 245 l 775 237 q 728 145 756 190 q 661 64 700 100 q 569 7 621 29 q 447 -14 516 -14 q 282 20 351 -14 q 166 116 212 54 q 99 266 121 179 q 77 461 77 354 q 98 661 77 574 q 165 807 120 748 q 278 898 210 867 q 440 929 347 929 q 560 910 509 929 q 650 860 612 891 q 713 787 687 828 q 757 702 740 746 l 643 658 q 615 718 632 689 q 572 771 597 748 q 514 808 547 794 q 441 823 482 823 q 337 799 380 823 q 266 731 294 776 q 225 617 238 685 q 213 461 213 550 m 362 980 l 362 993 l 516 1156 l 650 1156 l 650 1136 l 446 980 l 362 980 "},"Т":{"x_min":52,"x_max":781,"ha":834,"o":"m 481 809 l 481 0 l 352 0 l 352 809 l 52 809 l 52 915 l 781 915 l 781 809 l 481 809 "},"£":{"x_min":38,"x_max":794,"ha":834,"o":"m 794 162 q 777 104 787 133 q 747 52 766 75 q 702 14 729 29 q 635 0 674 0 l 38 0 l 38 104 q 91 135 67 119 q 133 175 115 151 q 160 233 150 199 q 170 319 170 268 l 170 415 l 44 415 l 44 511 l 170 511 l 170 660 q 187 772 170 722 q 239 857 204 822 q 328 910 275 891 q 456 929 382 929 q 548 919 506 929 q 625 889 591 909 q 684 840 660 869 q 721 772 708 811 q 716 770 721 772 q 704 765 712 768 q 685 759 695 763 q 663 753 674 756 q 603 734 636 744 q 548 798 588 776 q 455 820 508 820 q 332 781 373 820 q 292 657 292 742 l 292 511 l 569 511 l 569 415 l 292 415 l 292 320 q 286 248 292 280 q 269 189 281 215 q 237 142 257 163 q 187 107 216 122 l 593 107 q 653 125 633 107 q 680 179 672 143 l 794 162 "},"ů":{"x_min":125,"x_max":716.078125,"ha":834,"o":"m 247 734 l 247 268 q 254 178 247 214 q 280 120 262 142 q 327 89 298 98 q 399 80 356 80 q 477 95 442 80 q 537 139 512 110 q 575 210 562 168 q 589 308 589 253 l 589 734 l 712 734 l 712 156 q 712 108 712 133 q 713 60 712 82 q 714 21 714 37 q 716 0 715 4 l 600 0 q 599 18 599 3 q 597 52 598 33 q 595 91 596 71 q 595 125 595 111 l 593 125 q 554 67 575 93 q 505 23 533 41 q 441 -4 477 5 q 358 -14 405 -14 q 252 0 296 -14 q 180 47 208 15 q 138 127 151 78 q 125 244 125 176 l 125 734 l 247 734 m 581 914 q 570 863 581 888 q 540 820 560 839 q 489 790 520 801 q 417 779 458 779 q 344 790 375 779 q 293 820 313 801 q 263 863 273 839 q 253 914 253 888 q 263 965 253 941 q 293 1008 273 990 q 344 1038 313 1027 q 417 1050 375 1050 q 489 1038 458 1050 q 540 1008 520 1027 q 570 965 560 990 q 581 914 581 941 m 499 914 q 494 934 499 924 q 480 952 490 944 q 454 965 470 960 q 416 971 439 971 q 378 965 394 971 q 353 952 363 960 q 338 934 342 944 q 334 914 334 924 q 338 894 334 904 q 353 876 342 884 q 378 863 363 868 q 416 858 394 858 q 454 863 439 858 q 480 876 470 868 q 494 894 490 884 q 499 914 499 904 "},"Ō":{"x_min":69,"x_max":764,"ha":834,"o":"m 764 461 q 740 255 764 344 q 671 106 716 166 q 562 16 626 46 q 415 -14 497 -14 q 264 17 329 -14 q 155 110 199 49 q 90 259 112 171 q 69 461 69 348 q 92 666 69 578 q 159 812 115 753 q 268 899 203 870 q 417 929 333 929 q 674 811 584 929 q 764 461 764 693 m 628 461 q 574 733 628 644 q 417 823 520 823 q 258 733 311 823 q 205 461 205 644 q 258 184 205 278 q 416 91 312 91 q 577 185 527 91 q 628 461 628 280 m 604 1019 l 230 1019 l 230 1105 l 604 1105 l 604 1019 "},"а":{"x_min":87,"x_max":787,"ha":834,"o":"m 746 75 q 767 76 757 75 q 787 79 777 77 l 787 3 q 741 -4 763 -1 q 692 -7 718 -7 q 633 2 658 -7 q 592 29 608 11 q 569 75 577 48 q 559 139 561 103 l 555 139 q 512 76 536 104 q 460 27 489 47 q 391 -3 430 7 q 302 -14 352 -14 q 141 44 195 -14 q 87 204 87 102 q 113 323 87 276 q 183 396 140 369 q 282 433 227 422 q 394 444 337 443 l 555 447 l 555 487 q 545 564 555 532 q 518 615 536 596 q 471 644 499 635 q 404 654 442 654 q 343 648 371 654 q 296 630 316 643 q 264 594 276 617 q 247 537 251 571 l 119 548 q 145 628 126 592 q 197 691 163 664 q 282 732 231 717 q 406 747 333 747 q 609 683 541 747 q 678 500 678 620 l 678 184 q 692 102 678 129 q 746 75 706 75 m 333 79 q 431 100 390 79 q 500 154 472 121 q 541 226 527 186 q 555 301 555 265 l 555 362 l 426 359 q 351 353 388 358 q 283 332 313 348 q 234 284 253 315 q 215 202 215 254 q 245 112 215 146 q 333 79 275 79 "},"Ğ":{"x_min":77,"x_max":748,"ha":834,"o":"m 747 89 q 690 55 722 73 q 618 21 658 36 q 533 -3 579 6 q 433 -14 486 -14 q 275 21 342 -14 q 164 120 208 57 q 98 270 120 183 q 77 461 77 357 q 98 662 77 574 q 163 808 119 749 q 274 898 207 867 q 435 929 342 929 q 554 911 503 929 q 643 863 605 893 q 706 792 680 833 q 748 704 731 751 l 632 667 q 559 782 606 741 q 436 823 512 823 q 333 799 375 823 q 263 730 290 776 q 224 617 236 684 q 213 461 213 549 q 270 185 213 279 q 444 91 327 91 q 505 96 477 91 q 556 110 533 102 q 595 126 578 118 q 621 141 612 135 l 621 369 l 422 369 l 422 478 l 747 478 l 747 89 m 417 981 q 330 996 367 981 q 267 1038 292 1012 q 226 1095 241 1063 q 206 1157 211 1126 l 292 1157 q 332 1089 303 1113 q 417 1066 362 1066 q 504 1089 475 1066 q 545 1157 533 1113 l 631 1157 q 609 1095 624 1126 q 569 1038 595 1063 q 506 996 544 1012 q 417 981 469 981 "},"v":{"x_min":47,"x_max":787,"ha":834,"o":"m 485 0 l 341 0 l 47 734 l 183 734 l 366 256 q 377 220 371 241 q 390 175 383 198 q 403 131 397 152 q 412 95 408 109 q 423 131 417 109 q 436 175 429 152 q 450 218 443 197 q 463 255 457 240 l 650 734 l 787 734 l 485 0 "},"Ї":{"x_min":138,"x_max":696,"ha":834,"o":"m 138 915 l 696 915 l 696 809 l 482 809 l 482 106 l 696 106 l 696 0 l 138 0 l 138 106 l 352 106 l 352 809 l 138 809 l 138 915 m 496 980 l 496 1105 l 607 1105 l 607 980 l 496 980 m 229 980 l 229 1105 l 341 1105 l 341 980 l 229 980 "},"û":{"x_min":125,"x_max":716.078125,"ha":834,"o":"m 247 734 l 247 268 q 254 178 247 214 q 280 120 262 142 q 327 89 298 98 q 399 80 356 80 q 477 95 442 80 q 537 139 512 110 q 575 210 562 168 q 589 308 589 253 l 589 734 l 712 734 l 712 156 q 712 108 712 133 q 713 60 712 82 q 714 21 714 37 q 716 0 715 4 l 600 0 q 599 18 599 3 q 597 52 598 33 q 595 91 596 71 q 595 125 595 111 l 593 125 q 554 67 575 93 q 505 23 533 41 q 441 -4 477 5 q 358 -14 405 -14 q 252 0 296 -14 q 180 47 208 15 q 138 127 151 78 q 125 244 125 176 l 125 734 l 247 734 m 641 828 l 641 815 l 569 815 l 421 909 l 419 909 l 262 815 l 192 815 l 192 828 l 364 991 l 475 991 l 641 828 "},"Ź":{"x_min":50,"x_max":784,"ha":834,"o":"m 784 0 l 50 0 l 50 97 l 604 809 l 100 809 l 100 915 l 752 915 l 752 820 l 196 106 l 784 106 l 784 0 m 342 981 l 342 994 l 496 1157 l 630 1157 l 630 1137 l 426 981 l 342 981 "},"╒":{"x_min":368,"x_max":841,"ha":834,"o":"m 368 597 l 841 597 l 841 499 l 466 499 l 466 353 l 841 353 l 841 255 l 466 255 l 466 -417 l 368 -417 l 368 597 "},"ˉ":{"x_min":229,"x_max":603,"ha":834,"o":"m 603 838 l 229 838 l 229 924 l 603 924 l 603 838 "},"Ĺ":{"x_min":161,"x_max":746,"ha":834,"o":"m 161 0 l 161 915 l 291 915 l 291 106 l 746 106 l 746 0 l 161 0 m 207 981 l 207 994 l 361 1157 l 495 1157 l 495 1137 l 291 981 l 207 981 "},"₤":{"x_min":55,"x_max":764,"ha":834,"o":"m 764 210 q 738 116 757 156 q 689 51 719 77 q 619 12 658 25 q 535 0 580 0 l 62 0 l 62 104 q 114 136 91 120 q 151 175 136 153 q 173 226 166 197 q 181 297 181 256 l 181 314 l 55 314 l 55 410 l 181 410 l 181 513 l 55 513 l 55 609 l 181 609 l 181 660 q 197 772 181 722 q 246 857 213 822 q 331 910 280 891 q 453 929 383 929 q 542 919 500 929 q 617 889 583 909 q 674 840 650 869 q 711 772 698 811 l 593 734 q 573 773 586 755 q 541 803 559 790 q 502 822 524 815 q 455 829 480 829 q 340 789 378 829 q 303 666 303 750 l 303 609 l 579 609 l 579 513 l 303 513 l 303 410 l 579 410 l 579 314 l 303 314 l 303 309 q 273 182 303 233 q 188 104 243 132 l 515 104 q 563 110 541 104 q 604 131 586 116 q 635 167 622 145 q 653 223 647 190 l 764 210 "},"┐":{"x_min":-7,"x_max":466,"ha":834,"o":"m -7 377 l -7 475 l 466 475 l 466 -417 l 368 -417 l 368 377 l -7 377 "},"Č":{"x_min":77,"x_max":775,"ha":834,"o":"m 213 461 q 226 303 213 372 q 268 187 240 234 q 341 115 297 139 q 448 91 386 91 q 525 107 491 91 q 586 149 559 123 q 633 210 613 176 q 667 282 652 245 l 775 237 q 728 145 756 190 q 661 64 700 100 q 569 7 621 29 q 447 -14 516 -14 q 282 20 351 -14 q 166 116 212 54 q 99 266 121 179 q 77 461 77 354 q 98 661 77 574 q 165 807 120 748 q 278 898 210 867 q 440 929 347 929 q 560 910 509 929 q 650 860 612 891 q 713 787 687 828 q 757 702 740 746 l 643 658 q 615 718 632 689 q 572 771 597 748 q 514 808 547 794 q 441 823 482 823 q 337 799 380 823 q 266 731 294 776 q 225 617 238 685 q 213 461 213 550 m 487 981 l 376 981 l 204 1143 l 204 1157 l 274 1157 l 431 1063 l 433 1063 l 581 1157 l 653 1157 l 653 1143 l 487 981 "},"x":{"x_min":64,"x_max":769,"ha":834,"o":"m 632 0 l 414 300 l 195 0 l 64 0 l 345 377 l 76 734 l 210 734 l 414 448 l 616 734 l 753 734 l 483 378 l 769 0 l 632 0 "},"è":{"x_min":90,"x_max":742,"ha":834,"o":"m 218 341 q 230 234 218 283 q 269 151 243 186 q 333 97 295 116 q 422 78 372 78 q 491 86 459 78 q 547 109 522 94 q 589 145 572 124 q 615 190 606 165 l 722 159 q 689 98 711 129 q 631 42 667 67 q 544 1 595 17 q 422 -14 492 -14 q 282 10 344 -14 q 178 82 220 34 q 112 203 135 131 q 90 371 90 275 q 116 548 90 477 q 189 664 143 620 q 293 728 234 709 q 418 747 353 747 q 568 718 507 747 q 668 638 630 690 q 724 515 707 587 q 742 357 742 444 l 742 341 l 218 341 m 419 657 q 354 647 388 657 q 290 612 319 637 q 241 544 261 587 q 219 435 221 501 l 616 435 q 592 541 610 498 q 549 609 575 583 q 489 646 522 635 q 419 657 456 657 m 422 815 l 219 971 l 219 991 l 352 991 l 507 828 l 507 815 l 422 815 "},"Ń":{"x_min":110,"x_max":724,"ha":834,"o":"m 567 0 l 214 766 q 219 706 216 737 q 223 650 221 681 q 225 594 225 620 l 225 0 l 110 0 l 110 915 l 260 915 l 619 143 q 613 201 615 170 q 608 261 610 227 q 607 328 607 294 l 607 915 l 724 915 l 724 0 l 567 0 m 356 981 l 356 994 l 510 1157 l 644 1157 l 644 1137 l 440 981 l 356 981 "},"μ":{"x_min":106,"x_max":780,"ha":834,"o":"m 106 -288 l 106 734 l 228 734 l 228 268 q 239 179 228 215 q 270 121 250 143 q 318 89 289 99 q 382 80 346 80 q 518 139 468 80 q 568 308 568 198 l 568 734 l 690 734 l 690 179 q 693 131 690 150 q 704 101 697 111 q 721 85 711 90 q 743 81 730 81 q 761 83 750 81 q 780 86 772 84 l 780 0 q 745 -9 762 -5 q 703 -14 727 -14 q 642 -3 666 -14 q 603 23 618 6 q 581 65 588 41 q 573 117 574 89 l 571 117 q 486 19 536 53 q 368 -14 436 -14 q 286 0 323 -14 q 228 39 249 13 l 228 -288 l 106 -288 "},".":{"x_min":337,"x_max":496,"ha":834,"o":"m 337 0 l 337 203 l 496 203 l 496 0 l 337 0 "},"‘":{"x_min":269,"x_max":563,"ha":834,"o":"m 563 1006 l 449 584 l 269 584 l 480 1006 l 563 1006 "},"π":{"x_min":15,"x_max":804,"ha":834,"o":"m 666 638 l 666 180 q 670 131 666 151 q 682 101 674 112 q 702 86 691 90 q 729 82 714 82 q 752 83 739 82 q 774 87 765 85 l 788 0 q 743 -9 766 -5 q 691 -14 720 -14 q 623 -4 651 -14 q 577 25 595 5 q 552 77 560 45 q 544 153 544 108 l 544 638 l 291 638 l 291 589 q 288 416 291 500 q 281 256 286 331 q 267 115 275 180 q 246 0 258 50 l 118 0 q 140 117 130 51 q 157 258 151 183 q 168 416 164 333 q 172 583 172 498 l 172 638 q 120 635 145 638 q 75 630 96 633 q 39 622 54 626 q 15 612 23 617 l 15 714 q 37 722 23 718 q 69 728 52 725 q 105 732 86 731 q 139 734 123 734 l 804 734 l 804 638 l 666 638 "},"║":{"x_min":246,"x_max":588,"ha":834,"o":"m 246 1156 l 344 1156 l 344 -417 l 246 -417 l 246 1156 m 490 1156 l 588 1156 l 588 -417 l 490 -417 l 490 1156 "},"9":{"x_min":96,"x_max":738,"ha":834,"o":"m 738 476 q 714 264 738 356 q 645 111 690 173 q 536 17 600 49 q 392 -14 472 -14 q 293 -2 337 -14 q 214 32 248 8 q 155 93 179 55 q 116 185 130 132 l 233 204 q 292 112 251 141 q 394 84 332 84 q 485 107 444 84 q 554 174 525 130 q 599 286 583 219 q 617 439 616 352 q 578 383 602 408 q 521 340 553 357 q 453 314 490 323 q 379 305 417 305 q 261 328 314 305 q 172 392 209 351 q 116 491 136 434 q 96 617 96 548 q 117 745 96 687 q 179 843 138 802 q 279 906 220 884 q 414 929 338 929 q 656 816 574 929 q 738 476 738 703 m 605 583 q 592 678 605 633 q 555 756 579 722 q 493 809 530 789 q 410 830 457 830 q 330 814 365 830 q 270 771 295 799 q 233 703 246 742 q 220 617 220 664 q 231 533 220 572 q 267 464 243 494 q 326 418 291 435 q 408 401 361 401 q 477 412 442 401 q 540 446 512 424 q 587 504 569 469 q 605 583 605 538 "},"l":{"x_min":91,"x_max":757,"ha":834,"o":"m 499 96 l 757 96 l 757 0 l 91 0 l 91 96 l 377 96 l 377 910 l 181 910 l 181 1006 l 499 1006 l 499 96 "},"Ъ":{"x_min":0,"x_max":784,"ha":834,"o":"m 358 531 l 447 531 q 595 512 532 531 q 700 459 658 494 q 763 376 742 425 q 784 266 784 327 q 763 158 784 207 q 701 74 742 109 q 598 19 660 39 q 455 0 537 0 l 228 0 l 228 809 l 0 809 l 0 915 l 358 915 l 358 531 m 654 264 q 598 384 654 346 q 431 422 542 422 l 358 422 l 358 102 l 437 102 q 601 141 548 102 q 654 264 654 180 "},"Ś":{"x_min":53,"x_max":765,"ha":834,"o":"m 765 250 q 743 144 765 192 q 679 60 722 95 q 570 5 636 25 q 413 -14 504 -14 q 166 48 254 -14 q 53 228 77 110 l 178 254 q 202 186 186 216 q 247 133 218 155 q 317 99 275 111 q 416 87 358 87 q 506 96 465 87 q 575 125 546 105 q 620 175 604 144 q 637 248 637 205 q 614 325 637 296 q 556 374 592 355 q 475 405 520 393 q 384 429 430 417 q 315 447 350 437 q 249 470 281 457 q 189 501 217 483 q 141 545 162 519 q 109 605 121 570 q 98 684 98 639 q 122 796 98 749 q 189 872 146 842 q 290 915 232 901 q 417 929 349 929 q 551 915 495 929 q 644 873 606 901 q 706 804 683 845 q 743 709 729 763 l 615 687 q 592 748 607 721 q 554 793 578 775 q 496 821 530 812 q 416 831 462 831 q 325 819 361 831 q 266 789 288 808 q 233 743 243 770 q 224 686 224 717 q 241 620 224 646 q 290 578 259 595 q 362 551 321 561 q 450 528 403 540 q 526 508 488 518 q 599 483 564 497 q 664 449 634 469 q 716 402 694 430 q 752 337 739 374 q 765 250 765 300 m 353 981 l 353 994 l 507 1157 l 641 1157 l 641 1137 l 437 981 l 353 981 "},"Ü":{"x_min":96,"x_max":736,"ha":834,"o":"m 736 332 q 716 173 736 239 q 656 65 696 107 q 554 5 615 24 q 410 -14 493 -14 q 272 3 331 -14 q 174 61 213 21 q 115 164 135 101 q 96 319 96 228 l 96 915 l 226 915 l 226 337 q 234 224 226 271 q 263 148 242 177 q 319 104 284 118 q 409 91 355 91 q 503 104 465 91 q 564 148 541 118 q 597 227 587 178 q 607 346 607 276 l 607 915 l 736 915 l 736 332 m 494 980 l 494 1105 l 605 1105 l 605 980 l 494 980 m 227 980 l 227 1105 l 339 1105 l 339 980 l 227 980 "},"à":{"x_min":87,"x_max":787,"ha":834,"o":"m 746 75 q 767 76 757 75 q 787 79 777 77 l 787 3 q 741 -4 763 -1 q 692 -7 718 -7 q 633 2 658 -7 q 592 29 608 11 q 569 75 577 48 q 559 139 561 103 l 555 139 q 512 76 536 104 q 460 27 489 47 q 391 -3 430 7 q 302 -14 352 -14 q 141 44 195 -14 q 87 204 87 102 q 113 323 87 276 q 183 396 140 369 q 282 433 227 422 q 394 444 337 443 l 555 447 l 555 487 q 545 564 555 532 q 518 615 536 596 q 471 644 499 635 q 404 654 442 654 q 343 648 371 654 q 296 630 316 643 q 264 594 276 617 q 247 537 251 571 l 119 548 q 145 628 126 592 q 197 691 163 664 q 282 732 231 717 q 406 747 333 747 q 609 683 541 747 q 678 500 678 620 l 678 184 q 692 102 678 129 q 746 75 706 75 m 333 79 q 431 100 390 79 q 500 154 472 121 q 541 226 527 186 q 555 301 555 265 l 555 362 l 426 359 q 351 353 388 358 q 283 332 313 348 q 234 284 253 315 q 215 202 215 254 q 245 112 215 146 q 333 79 275 79 m 399 815 l 196 971 l 196 991 l 329 991 l 484 828 l 484 815 l 399 815 "},"η":{"x_min":120.9375,"x_max":712,"ha":834,"o":"m 589 -288 l 589 471 q 577 560 589 525 q 546 616 566 595 q 499 644 526 636 q 439 653 472 653 q 364 637 399 653 q 303 593 329 622 q 261 522 276 564 q 247 425 247 480 l 247 0 l 125 0 l 125 577 q 124 625 125 600 q 123 673 124 651 q 122 712 122 696 q 120 734 121 729 l 236 734 q 237 715 236 730 q 239 681 238 700 q 240 641 240 661 q 241 607 241 621 l 243 607 q 282 665 259 639 q 333 709 304 691 q 397 737 361 727 q 478 747 433 747 q 578 732 535 747 q 651 685 622 717 q 696 606 681 654 q 712 488 712 557 l 712 -288 l 589 -288 "},"ó":{"x_min":88,"x_max":744,"ha":834,"o":"m 744 367 q 721 199 744 270 q 655 80 698 127 q 551 9 613 32 q 412 -14 490 -14 q 278 9 339 -14 q 176 79 218 32 q 111 198 134 127 q 88 367 88 270 q 173 651 88 556 q 417 747 259 747 q 663 652 582 747 q 744 367 744 558 m 616 367 q 601 508 616 452 q 560 597 586 564 q 498 643 534 630 q 419 657 462 657 q 337 643 374 657 q 273 595 300 629 q 231 506 246 561 q 216 367 216 450 q 231 225 216 281 q 274 136 247 169 q 337 89 301 103 q 411 76 372 76 q 493 89 455 76 q 558 135 531 102 q 600 225 585 168 q 616 367 616 281 m 341 815 l 341 828 l 495 991 l 629 991 l 629 971 l 425 815 l 341 815 "},"¦":{"x_min":360,"x_max":473,"ha":834,"o":"m 360 458 l 360 986 l 473 986 l 473 458 l 360 458 m 360 -309 l 360 219 l 473 219 l 473 -309 l 360 -309 "},"▒":{"x_min":0,"x_max":834,"ha":834,"o":"m 69 895 l 139 895 l 139 829 l 69 829 l 69 895 m 208 895 l 278 895 l 278 829 l 208 829 l 208 895 m 347 895 l 417 895 l 417 829 l 347 829 l 347 895 m 486 895 l 556 895 l 556 829 l 486 829 l 486 895 m 625 895 l 695 895 l 695 829 l 625 829 l 625 895 m 764 895 l 834 895 l 834 829 l 764 829 l 764 895 m 0 763 l 69 763 l 69 698 l 0 698 l 0 763 m 139 763 l 208 763 l 208 698 l 139 698 l 139 763 m 278 763 l 347 763 l 347 698 l 278 698 l 278 763 m 417 763 l 486 763 l 486 698 l 417 698 l 417 763 m 556 763 l 625 763 l 625 698 l 556 698 l 556 763 m 695 763 l 764 763 l 764 698 l 695 698 l 695 763 m 69 632 l 139 632 l 139 567 l 69 567 l 69 632 m 208 632 l 278 632 l 278 567 l 208 567 l 208 632 m 347 632 l 417 632 l 417 567 l 347 567 l 347 632 m 486 632 l 556 632 l 556 567 l 486 567 l 486 632 m 625 632 l 695 632 l 695 567 l 625 567 l 625 632 m 764 632 l 834 632 l 834 567 l 764 567 l 764 632 m 0 500 l 69 500 l 69 435 l 0 435 l 0 500 m 139 500 l 208 500 l 208 435 l 139 435 l 139 500 m 278 500 l 347 500 l 347 435 l 278 435 l 278 500 m 417 500 l 486 500 l 486 435 l 417 435 l 417 500 m 556 500 l 625 500 l 625 435 l 556 435 l 556 500 m 695 500 l 764 500 l 764 435 l 695 435 l 695 500 m 69 370 l 139 370 l 139 305 l 69 305 l 69 370 m 208 370 l 278 370 l 278 305 l 208 305 l 208 370 m 347 370 l 417 370 l 417 305 l 347 305 l 347 370 m 486 370 l 556 370 l 556 305 l 486 305 l 486 370 m 625 370 l 695 370 l 695 305 l 625 305 l 625 370 m 764 370 l 834 370 l 834 305 l 764 305 l 764 370 m 0 238 l 69 238 l 69 173 l 0 173 l 0 238 m 278 238 l 347 238 l 347 173 l 278 173 l 278 238 m 417 238 l 486 238 l 486 173 l 417 173 l 417 238 m 556 238 l 625 238 l 625 173 l 556 173 l 556 238 m 695 238 l 764 238 l 764 173 l 695 173 l 695 238 m 139 238 l 208 238 l 208 173 l 139 173 l 139 238 m 764 107 l 834 107 l 834 41 l 764 41 l 764 107 m 625 107 l 695 107 l 695 41 l 625 41 l 625 107 m 486 107 l 556 107 l 556 41 l 486 41 l 486 107 m 347 107 l 417 107 l 417 41 l 347 41 l 347 107 m 208 107 l 278 107 l 278 41 l 208 41 l 208 107 m 69 107 l 139 107 l 139 41 l 69 41 l 69 107 m 0 -25 l 69 -25 l 69 -89 l 0 -89 l 0 -25 m 139 -25 l 208 -25 l 208 -89 l 139 -89 l 139 -25 m 278 -25 l 347 -25 l 347 -89 l 278 -89 l 278 -25 m 417 -25 l 486 -25 l 486 -89 l 417 -89 l 417 -25 m 556 -25 l 625 -25 l 625 -89 l 556 -89 l 556 -25 m 695 -25 l 764 -25 l 764 -89 l 695 -89 l 695 -25 m 764 -155 l 834 -155 l 834 -221 l 764 -221 l 764 -155 m 625 -155 l 695 -155 l 695 -221 l 625 -221 l 625 -155 m 486 -155 l 556 -155 l 556 -221 l 486 -221 l 486 -155 m 347 -155 l 417 -155 l 417 -221 l 347 -221 l 347 -155 m 208 -155 l 278 -155 l 278 -221 l 208 -221 l 208 -155 m 69 -155 l 139 -155 l 139 -221 l 69 -221 l 69 -155 m 0 -286 l 69 -286 l 69 -351 l 0 -351 l 0 -286 m 139 -286 l 208 -286 l 208 -351 l 139 -351 l 139 -286 m 278 -286 l 347 -286 l 347 -351 l 278 -351 l 278 -286 m 417 -286 l 486 -286 l 486 -351 l 417 -351 l 417 -286 m 556 -286 l 625 -286 l 625 -351 l 556 -351 l 556 -286 m 695 -286 l 764 -286 l 764 -351 l 695 -351 l 695 -286 m 0 1025 l 69 1025 l 69 959 l 0 959 l 0 1025 m 139 1025 l 208 1025 l 208 959 l 139 959 l 139 1025 m 278 1025 l 347 1025 l 347 959 l 278 959 l 278 1025 m 417 1025 l 486 1025 l 486 959 l 417 959 l 417 1025 m 556 1025 l 625 1025 l 625 959 l 556 959 l 556 1025 m 695 1025 l 764 1025 l 764 959 l 695 959 l 695 1025 m 69 1156 l 139 1156 l 139 1091 l 69 1091 l 69 1156 m 208 1156 l 278 1156 l 278 1091 l 208 1091 l 208 1156 m 347 1156 l 417 1156 l 417 1091 l 347 1091 l 347 1156 m 486 1156 l 556 1156 l 556 1091 l 486 1091 l 486 1156 m 625 1156 l 695 1156 l 695 1091 l 625 1091 l 625 1156 m 764 1156 l 834 1156 l 834 1091 l 764 1091 l 764 1156 "},"Ő":{"x_min":69,"x_max":764,"ha":834,"o":"m 764 461 q 740 255 764 344 q 671 106 716 166 q 562 16 626 46 q 415 -14 497 -14 q 264 17 329 -14 q 155 110 199 49 q 90 259 112 171 q 69 461 69 348 q 92 666 69 578 q 159 812 115 753 q 268 899 203 870 q 417 929 333 929 q 674 811 584 929 q 764 461 764 693 m 628 461 q 574 733 628 644 q 417 823 520 823 q 258 733 311 823 q 205 461 205 644 q 258 184 205 278 q 416 91 312 91 q 577 185 527 91 q 628 461 628 280 m 471 980 l 471 993 l 611 1156 l 738 1156 l 738 1136 l 535 980 l 471 980 m 224 980 l 224 993 l 364 1156 l 491 1156 l 491 1136 l 288 980 l 224 980 "},"Ž":{"x_min":50,"x_max":784,"ha":834,"o":"m 784 0 l 50 0 l 50 97 l 604 809 l 100 809 l 100 915 l 752 915 l 752 820 l 196 106 l 784 106 l 784 0 m 483 980 l 372 980 l 200 1142 l 200 1156 l 270 1156 l 427 1062 l 429 1062 l 577 1156 l 649 1156 l 649 1142 l 483 980 "},"е":{"x_min":90,"x_max":742,"ha":834,"o":"m 218 341 q 230 234 218 283 q 269 151 243 186 q 333 97 295 116 q 422 78 372 78 q 491 86 459 78 q 547 109 522 94 q 589 145 572 124 q 615 190 606 165 l 722 159 q 689 98 711 129 q 631 42 667 67 q 544 1 595 17 q 422 -14 492 -14 q 282 10 344 -14 q 178 82 220 34 q 112 203 135 131 q 90 371 90 275 q 116 548 90 477 q 189 664 143 620 q 293 728 234 709 q 418 747 353 747 q 568 718 507 747 q 668 638 630 690 q 724 515 707 587 q 742 357 742 444 l 742 341 l 218 341 m 419 657 q 354 647 388 657 q 290 612 319 637 q 241 544 261 587 q 219 435 221 501 l 616 435 q 592 541 610 498 q 549 609 575 583 q 489 646 522 635 q 419 657 456 657 "},"Î":{"x_min":138,"x_max":696,"ha":834,"o":"m 138 915 l 696 915 l 696 809 l 482 809 l 482 106 l 696 106 l 696 0 l 138 0 l 138 106 l 352 106 l 352 809 l 138 809 l 138 915 m 642 993 l 642 980 l 570 980 l 422 1074 l 420 1074 l 263 980 l 193 980 l 193 993 l 365 1156 l 476 1156 l 642 993 "},"e":{"x_min":90,"x_max":742,"ha":834,"o":"m 218 341 q 230 234 218 283 q 269 151 243 186 q 333 97 295 116 q 422 78 372 78 q 491 86 459 78 q 547 109 522 94 q 589 145 572 124 q 615 190 606 165 l 722 159 q 689 98 711 129 q 631 42 667 67 q 544 1 595 17 q 422 -14 492 -14 q 282 10 344 -14 q 178 82 220 34 q 112 203 135 131 q 90 371 90 275 q 116 548 90 477 q 189 664 143 620 q 293 728 234 709 q 418 747 353 747 q 568 718 507 747 q 668 638 630 690 q 724 515 707 587 q 742 357 742 444 l 742 341 l 218 341 m 419 657 q 354 647 388 657 q 290 612 319 637 q 241 544 261 587 q 219 435 221 501 l 616 435 q 592 541 610 498 q 549 609 575 583 q 489 646 522 635 q 419 657 456 657 "},"ό":{"x_min":88,"x_max":744,"ha":834,"o":"m 744 367 q 721 199 744 270 q 655 80 698 127 q 551 9 613 32 q 412 -14 490 -14 q 278 9 339 -14 q 176 79 218 32 q 111 198 134 127 q 88 367 88 270 q 173 651 88 556 q 417 747 259 747 q 663 652 582 747 q 744 367 744 558 m 616 367 q 601 508 616 452 q 560 597 586 564 q 498 643 534 630 q 419 657 462 657 q 337 643 374 657 q 273 595 300 629 q 231 506 246 561 q 216 367 216 450 q 231 225 216 281 q 274 136 247 169 q 337 89 301 103 q 411 76 372 76 q 493 89 455 76 q 558 135 531 102 q 600 225 585 168 q 616 367 616 281 m 363 815 l 363 837 l 416 1035 l 550 1035 l 550 1009 l 434 815 l 363 815 "},"Ĕ":{"x_min":110,"x_max":761,"ha":834,"o":"m 110 0 l 110 915 l 733 915 l 733 809 l 240 809 l 240 523 l 693 523 l 693 419 l 240 419 l 240 106 l 761 106 l 761 0 l 110 0 m 415 981 q 328 996 365 981 q 265 1038 290 1012 q 224 1095 239 1063 q 204 1157 209 1126 l 290 1157 q 330 1089 301 1113 q 415 1066 360 1066 q 502 1089 473 1066 q 543 1157 531 1113 l 629 1157 q 607 1095 622 1126 q 567 1038 593 1063 q 504 996 542 1012 q 415 981 467 981 "},"ļ":{"x_min":91,"x_max":757,"ha":834,"o":"m 499 96 l 757 96 l 757 0 l 91 0 l 91 96 l 377 96 l 377 910 l 181 910 l 181 1006 l 499 1006 l 499 96 m 323 -286 l 323 -263 l 376 -66 l 510 -66 l 510 -91 l 394 -286 l 323 -286 "},"Ѓ":{"x_min":152,"x_max":757,"ha":834,"o":"m 282 0 l 152 0 l 152 915 l 757 915 l 757 809 l 282 809 l 282 0 m 354 981 l 354 994 l 508 1157 l 642 1157 l 642 1137 l 438 981 l 354 981 "},"ò":{"x_min":88,"x_max":744,"ha":834,"o":"m 744 367 q 721 199 744 270 q 655 80 698 127 q 551 9 613 32 q 412 -14 490 -14 q 278 9 339 -14 q 176 79 218 32 q 111 198 134 127 q 88 367 88 270 q 173 651 88 556 q 417 747 259 747 q 663 652 582 747 q 744 367 744 558 m 616 367 q 601 508 616 452 q 560 597 586 564 q 498 643 534 630 q 419 657 462 657 q 337 643 374 657 q 273 595 300 629 q 231 506 246 561 q 216 367 216 450 q 231 225 216 281 q 274 136 247 169 q 337 89 301 103 q 411 76 372 76 q 493 89 455 76 q 558 135 531 102 q 600 225 585 168 q 616 367 616 281 m 428 815 l 225 971 l 225 991 l 358 991 l 513 828 l 513 815 l 428 815 "},"^":{"x_min":89.75,"x_max":742.25,"ha":834,"o":"m 637 300 l 414 844 l 192 300 l 89 300 l 346 915 l 484 915 l 742 300 l 637 300 "},"∙":{"x_min":337,"x_max":496,"ha":834,"o":"m 337 285 l 337 488 l 496 488 l 496 285 l 337 285 "},"ⁿ":{"x_min":242.28125,"x_max":610,"ha":834,"o":"m 523 352 l 523 621 q 518 673 523 652 q 504 706 514 694 q 478 724 494 719 q 438 730 462 730 q 360 696 389 730 q 332 598 332 662 l 332 352 l 245 352 l 245 698 q 244 727 245 712 q 243 757 244 743 q 242 780 243 770 q 242 793 242 790 l 323 793 q 323 781 323 790 q 325 761 324 772 q 326 737 325 749 q 327 717 327 725 l 328 717 q 351 752 338 736 q 381 778 364 767 q 419 795 397 789 q 469 801 441 801 q 577 764 544 801 q 610 645 610 727 l 610 352 l 523 352 "},"к":{"x_min":148,"x_max":757,"ha":834,"o":"m 148 734 l 270 734 l 270 412 q 332 417 303 412 q 388 438 361 423 q 442 481 415 454 q 497 551 468 508 l 619 734 l 751 734 l 597 513 q 535 437 561 461 q 495 402 510 412 l 757 0 l 618 0 l 403 344 q 375 334 391 339 q 340 327 358 330 q 304 322 322 324 q 270 321 286 321 l 270 0 l 148 0 l 148 734 "},"ū":{"x_min":125,"x_max":716.078125,"ha":834,"o":"m 247 734 l 247 268 q 254 178 247 214 q 280 120 262 142 q 327 89 298 98 q 399 80 356 80 q 477 95 442 80 q 537 139 512 110 q 575 210 562 168 q 589 308 589 253 l 589 734 l 712 734 l 712 156 q 712 108 712 133 q 713 60 712 82 q 714 21 714 37 q 716 0 715 4 l 600 0 q 599 18 599 3 q 597 52 598 33 q 595 91 596 71 q 595 125 595 111 l 593 125 q 554 67 575 93 q 505 23 533 41 q 441 -4 477 5 q 358 -14 405 -14 q 252 0 296 -14 q 180 47 208 15 q 138 127 151 78 q 125 244 125 176 l 125 734 l 247 734 m 604 838 l 230 838 l 230 924 l 604 924 l 604 838 "},"ˆ":{"x_min":192,"x_max":641,"ha":834,"o":"m 641 828 l 641 815 l 569 815 l 421 909 l 419 909 l 262 815 l 192 815 l 192 828 l 364 991 l 475 991 l 641 828 "},"Ẅ":{"x_min":0,"x_max":833,"ha":834,"o":"m 690 0 l 549 0 l 478 262 q 470 292 475 275 q 460 330 466 310 q 450 371 455 350 q 440 413 445 393 q 417 512 429 460 q 394 412 405 460 q 384 371 389 392 q 374 329 379 349 q 364 292 368 309 q 356 262 359 275 l 284 0 l 142 0 l 0 915 l 128 915 l 202 348 q 211 262 207 304 q 218 187 215 220 q 224 113 221 148 q 246 206 235 160 q 255 246 251 225 q 265 287 260 267 q 275 326 270 307 q 284 360 280 345 l 358 631 l 476 631 l 550 360 q 559 326 554 345 q 569 287 564 307 q 579 247 574 267 q 588 206 584 226 q 610 113 599 161 q 613 137 611 113 q 618 194 615 160 q 626 270 622 229 q 634 348 630 312 l 704 915 l 833 915 l 690 0 m 495 981 l 495 1106 l 606 1106 l 606 981 l 495 981 m 228 981 l 228 1106 l 340 1106 l 340 981 l 228 981 "},"◘":{"x_min":25,"x_max":808,"ha":834,"o":"m 25 0 l 25 783 l 808 783 l 808 0 l 25 0 m 117 391 q 140 275 117 329 q 204 180 163 221 q 299 116 245 139 q 415 93 353 93 q 531 116 476 93 q 626 180 585 139 q 690 275 667 221 q 714 391 714 329 q 690 507 714 452 q 626 602 667 561 q 531 666 585 643 q 415 690 476 690 q 299 666 353 690 q 204 602 245 643 q 140 507 163 561 q 117 391 117 452 "},"⌂":{"x_min":94,"x_max":739,"ha":834,"o":"m 94 0 l 94 430 l 416 735 l 739 430 l 739 0 l 94 0 m 150 58 l 683 58 l 683 405 l 416 656 l 150 405 l 150 58 "},"č":{"x_min":88,"x_max":733,"ha":834,"o":"m 88 367 q 117 550 88 477 q 194 667 146 624 q 303 729 242 711 q 429 747 364 747 q 547 730 495 747 q 637 683 600 713 q 699 613 675 653 q 732 527 723 573 l 602 518 q 547 615 591 579 q 423 651 503 651 q 325 632 365 651 q 261 578 285 613 q 226 489 237 542 q 216 369 216 437 q 226 247 216 301 q 261 156 237 193 q 325 99 285 119 q 422 80 364 80 q 544 115 495 80 q 604 226 592 151 l 733 217 q 703 130 726 172 q 642 56 680 88 q 549 5 603 24 q 428 -14 496 -14 q 270 15 335 -14 q 165 95 205 44 q 106 216 124 146 q 88 367 88 285 m 473 815 l 362 815 l 190 977 l 190 991 l 260 991 l 417 897 l 419 897 l 567 991 l 639 991 l 639 977 l 473 815 "},"’":{"x_min":271,"x_max":565,"ha":834,"o":"m 271 584 l 385 1006 l 565 1006 l 354 584 l 271 584 "},"Ν":{"x_min":110,"x_max":724,"ha":834,"o":"m 567 0 l 214 766 q 219 706 216 737 q 223 650 221 681 q 225 594 225 620 l 225 0 l 110 0 l 110 915 l 260 915 l 619 143 q 613 201 615 170 q 608 261 610 227 q 607 328 607 294 l 607 915 l 724 915 l 724 0 l 567 0 "},"-":{"x_min":227,"x_max":607,"ha":834,"o":"m 227 314 l 227 423 l 607 423 l 607 314 l 227 314 "},"Q":{"x_min":69,"x_max":771,"ha":834,"o":"m 764 461 q 746 282 764 362 q 696 144 729 202 q 614 49 662 85 q 506 -2 567 12 q 579 -126 533 -87 q 693 -165 624 -165 q 733 -162 712 -165 q 771 -156 755 -159 l 771 -247 q 714 -257 745 -253 q 650 -262 683 -262 q 549 -244 592 -262 q 472 -195 505 -227 q 416 -116 439 -163 q 374 -11 392 -69 q 240 31 297 -3 q 145 126 183 66 q 88 271 107 187 q 69 461 69 355 q 92 666 69 579 q 159 812 115 754 q 268 899 203 870 q 417 929 333 929 q 674 811 584 929 q 764 461 764 693 m 628 461 q 574 733 628 644 q 417 823 520 823 q 258 733 311 823 q 205 461 205 644 q 258 184 205 278 q 416 91 312 91 q 577 185 527 91 q 628 461 628 280 "},"▼":{"x_min":10,"x_max":823,"ha":834,"o":"m 823 760 l 417 -18 l 10 760 l 823 760 "},"ј":{"x_min":79,"x_max":567,"ha":834,"o":"m 567 -18 q 542 -143 567 -92 q 478 -227 518 -195 q 385 -273 438 -259 q 274 -288 332 -288 q 218 -285 246 -288 q 165 -279 190 -283 q 117 -270 139 -275 q 79 -258 95 -264 l 79 -163 q 114 -171 93 -167 q 159 -178 134 -175 q 210 -184 183 -182 q 264 -187 237 -187 q 335 -177 302 -187 q 392 -147 368 -168 q 431 -94 417 -126 q 445 -16 445 -62 l 445 638 l 169 638 l 169 734 l 567 734 l 567 -18 m 431 876 l 431 1006 l 567 1006 l 567 876 l 431 876 "},"ě":{"x_min":90,"x_max":742,"ha":834,"o":"m 218 341 q 230 234 218 283 q 269 151 243 186 q 333 97 295 116 q 422 78 372 78 q 491 86 459 78 q 547 109 522 94 q 589 145 572 124 q 615 190 606 165 l 722 159 q 689 98 711 129 q 631 42 667 67 q 544 1 595 17 q 422 -14 492 -14 q 282 10 344 -14 q 178 82 220 34 q 112 203 135 131 q 90 371 90 275 q 116 548 90 477 q 189 664 143 620 q 293 728 234 709 q 418 747 353 747 q 568 718 507 747 q 668 638 630 690 q 724 515 707 587 q 742 357 742 444 l 742 341 l 218 341 m 419 657 q 354 647 388 657 q 290 612 319 637 q 241 544 261 587 q 219 435 221 501 l 616 435 q 592 541 610 498 q 549 609 575 583 q 489 646 522 635 q 419 657 456 657 m 471 815 l 360 815 l 188 977 l 188 991 l 258 991 l 415 897 l 417 897 l 565 991 l 637 991 l 637 977 l 471 815 "},"œ":{"x_min":19,"x_max":817,"ha":834,"o":"m 483 340 q 489 234 483 282 q 509 150 495 185 q 545 96 523 115 q 596 77 566 77 q 667 109 640 77 q 703 190 693 141 l 797 159 q 775 98 789 129 q 739 42 762 67 q 681 1 716 17 q 598 -14 647 -14 q 419 110 474 -14 q 346 16 391 47 q 239 -14 301 -14 q 147 9 188 -14 q 78 79 107 32 q 34 198 49 127 q 19 367 19 270 q 76 651 19 556 q 244 747 134 747 q 424 626 370 747 q 500 718 455 690 q 600 747 545 747 q 703 717 662 747 q 770 634 745 687 q 806 510 795 581 q 817 356 817 439 l 817 340 l 483 340 m 368 367 q 359 508 368 452 q 336 597 351 564 q 300 643 322 630 q 253 657 279 657 q 204 643 226 657 q 166 595 182 629 q 142 506 150 561 q 134 367 134 450 q 143 225 134 281 q 167 136 152 169 q 204 89 183 103 q 248 76 225 76 q 298 89 276 76 q 335 135 319 102 q 359 225 351 168 q 368 367 368 281 m 593 657 q 557 647 576 657 q 523 612 539 637 q 496 543 507 586 q 484 434 485 500 l 704 434 q 671 603 698 550 q 593 657 644 657 "},"#":{"x_min":37,"x_max":789,"ha":834,"o":"m 631 565 l 586 350 l 762 350 l 762 277 l 570 277 l 511 0 l 436 0 l 494 277 l 247 277 l 191 0 l 116 0 l 172 277 l 37 277 l 37 350 l 189 350 l 234 565 l 72 565 l 72 638 l 249 638 l 310 915 l 385 915 l 325 638 l 571 638 l 631 915 l 706 915 l 646 638 l 789 638 l 789 565 l 631 565 m 311 565 l 264 350 l 510 350 l 555 565 l 311 565 "},"Џ":{"x_min":106,"x_max":728,"ha":834,"o":"m 356 -288 l 356 0 l 106 0 l 106 915 l 236 915 l 236 109 l 598 109 l 598 915 l 728 915 l 728 0 l 478 0 l 478 -288 l 356 -288 "},"Å":{"x_min":0,"x_max":833,"ha":834,"o":"m 701 0 l 607 259 l 226 259 l 132 0 l 0 0 l 346 915 l 493 915 l 833 0 l 701 0 m 475 647 q 457 699 466 672 q 439 749 447 725 q 426 791 432 773 q 417 817 420 809 q 409 790 415 809 q 396 748 404 772 q 380 698 388 725 q 362 647 371 672 l 260 360 l 574 360 l 475 647 m 583 972 q 572 921 583 946 q 542 878 562 897 q 491 848 522 859 q 419 837 460 837 q 346 848 377 837 q 295 878 315 859 q 265 921 275 897 q 255 972 255 946 q 265 1023 255 999 q 295 1066 275 1048 q 346 1096 315 1085 q 419 1108 377 1108 q 491 1096 460 1108 q 542 1066 522 1085 q 572 1023 562 1048 q 583 972 583 999 m 501 972 q 496 992 501 982 q 482 1010 492 1002 q 456 1023 472 1018 q 418 1029 441 1029 q 380 1023 396 1029 q 355 1010 365 1018 q 340 992 344 1002 q 336 972 336 982 q 340 952 336 962 q 355 934 344 942 q 380 921 365 926 q 418 916 396 916 q 456 921 441 916 q 482 934 472 926 q 496 952 492 942 q 501 972 501 962 "},"▀":{"x_min":0,"x_max":834,"ha":834,"o":"m 834 425 l 0 425 l 0 1156 l 834 1156 l 834 425 "},"¸":{"x_min":81,"x_max":328,"ha":834,"o":"m 328 -175 q 317 -226 328 -203 q 285 -266 307 -250 q 228 -292 263 -283 q 142 -301 192 -301 q 113 -300 128 -301 q 81 -298 97 -300 l 81 -231 q 139 -236 114 -236 q 186 -231 167 -236 q 217 -219 205 -227 q 233 -201 228 -212 q 239 -177 239 -190 q 218 -136 239 -150 q 148 -122 197 -122 q 129 -122 139 -122 q 110 -123 119 -122 l 154 0 l 226 0 l 200 -68 q 296 -98 264 -70 q 328 -175 328 -126 "},"=":{"x_min":79,"x_max":754,"ha":834,"o":"m 79 581 l 79 681 l 754 681 l 754 581 l 79 581 m 79 233 l 79 333 l 754 333 l 754 233 l 79 233 "},"ρ":{"x_min":106,"x_max":752,"ha":834,"o":"m 752 349 q 730 202 752 269 q 670 87 709 135 q 576 12 631 39 q 455 -14 521 -14 q 379 -7 413 -14 q 319 12 346 0 q 269 42 291 24 q 228 82 247 60 l 225 82 q 227 42 226 62 q 228 0 228 21 l 228 -288 l 106 -288 l 106 394 q 126 540 106 474 q 186 651 146 605 q 283 722 225 697 q 415 748 341 748 q 546 721 485 748 q 653 643 607 694 q 725 518 699 592 q 752 349 752 444 m 621 355 q 606 482 621 425 q 562 577 591 538 q 495 637 534 616 q 406 658 455 658 q 325 640 359 658 q 270 587 291 622 q 238 503 248 553 q 228 391 228 454 l 228 175 q 271 133 247 152 q 323 102 296 114 q 379 82 350 89 q 439 76 409 76 q 519 95 485 76 q 575 151 553 115 q 609 239 598 188 q 621 355 621 291 "},"Ћ":{"x_min":0,"x_max":789,"ha":834,"o":"m 660 0 l 660 370 q 632 489 660 452 q 540 527 605 527 q 432 516 488 527 q 329 493 377 505 l 329 0 l 200 0 l 200 809 l 0 809 l 0 915 l 559 915 l 559 809 l 329 809 l 329 590 q 379 604 353 597 q 434 617 406 612 q 490 627 461 623 q 546 631 518 631 q 657 615 611 631 q 732 567 702 599 q 775 490 761 536 q 789 383 789 443 l 789 0 l 660 0 "},"ú":{"x_min":125,"x_max":716.078125,"ha":834,"o":"m 247 734 l 247 268 q 254 178 247 214 q 280 120 262 142 q 327 89 298 98 q 399 80 356 80 q 477 95 442 80 q 537 139 512 110 q 575 210 562 168 q 589 308 589 253 l 589 734 l 712 734 l 712 156 q 712 108 712 133 q 713 60 712 82 q 714 21 714 37 q 716 0 715 4 l 600 0 q 599 18 599 3 q 597 52 598 33 q 595 91 596 71 q 595 125 595 111 l 593 125 q 554 67 575 93 q 505 23 533 41 q 441 -4 477 5 q 358 -14 405 -14 q 252 0 296 -14 q 180 47 208 15 q 138 127 151 78 q 125 244 125 176 l 125 734 l 247 734 m 334 815 l 334 828 l 488 991 l 622 991 l 622 971 l 418 815 l 334 815 "},"˚":{"x_min":252,"x_max":580,"ha":834,"o":"m 580 914 q 569 863 580 888 q 539 820 559 839 q 488 790 519 801 q 416 779 457 779 q 343 790 374 779 q 292 820 312 801 q 262 863 272 839 q 252 914 252 888 q 262 965 252 941 q 292 1008 272 990 q 343 1038 312 1027 q 416 1050 374 1050 q 488 1038 457 1050 q 539 1008 519 1027 q 569 965 559 990 q 580 914 580 941 m 498 914 q 493 934 498 924 q 479 952 489 944 q 453 965 469 960 q 415 971 438 971 q 377 965 393 971 q 352 952 362 960 q 337 934 341 944 q 333 914 333 924 q 337 894 333 904 q 352 876 341 884 q 377 863 362 868 q 415 858 393 858 q 453 863 438 858 q 479 876 469 868 q 493 894 489 884 q 498 914 498 904 "},"д":{"x_min":15,"x_max":775,"ha":834,"o":"m 564 638 l 350 638 q 316 430 333 517 q 283 280 300 343 q 251 173 267 217 q 220 96 235 129 l 564 96 l 564 638 m 775 -277 l 664 -277 l 664 0 l 126 0 l 126 -277 l 15 -277 l 15 96 l 96 96 q 122 146 109 118 q 149 212 136 174 q 175 297 162 249 q 202 409 189 346 q 227 553 214 472 q 253 734 240 633 l 676 734 l 676 96 l 775 96 l 775 -277 "},"¯":{"x_min":-3,"x_max":836,"ha":834,"o":"m -3 1032 l -3 1097 l 836 1097 l 836 1032 l -3 1032 "},"u":{"x_min":125,"x_max":716.078125,"ha":834,"o":"m 247 734 l 247 268 q 254 178 247 214 q 280 120 262 142 q 327 89 298 98 q 399 80 356 80 q 477 95 442 80 q 537 139 512 110 q 575 210 562 168 q 589 308 589 253 l 589 734 l 712 734 l 712 156 q 712 108 712 133 q 713 60 712 82 q 714 21 714 37 q 716 0 715 4 l 600 0 q 599 18 599 3 q 597 52 598 33 q 595 91 596 71 q 595 125 595 111 l 593 125 q 554 67 575 93 q 505 23 533 41 q 441 -4 477 5 q 358 -14 405 -14 q 252 0 296 -14 q 180 47 208 15 q 138 127 151 78 q 125 244 125 176 l 125 734 l 247 734 "},"З":{"x_min":45,"x_max":771,"ha":834,"o":"m 421 -14 q 281 2 341 -14 q 177 50 222 19 q 101 124 133 81 q 45 221 69 168 l 156 274 q 195 203 173 236 q 248 145 218 170 q 321 104 279 119 q 416 90 362 90 q 510 102 468 90 q 580 137 551 114 q 624 191 609 159 q 640 262 640 223 q 574 384 640 345 q 372 423 509 423 l 324 423 l 324 523 l 372 523 q 553 564 494 523 q 613 677 613 605 q 599 738 613 711 q 562 783 586 765 q 502 812 537 802 q 422 823 466 823 q 331 809 371 823 q 263 772 292 795 q 215 718 235 749 q 183 655 196 688 l 65 696 q 120 795 87 752 q 197 867 152 838 q 299 912 242 897 q 427 928 356 928 q 559 910 501 928 q 658 860 618 892 q 721 784 699 829 q 743 688 743 740 q 729 611 743 645 q 690 551 715 577 q 630 506 666 525 q 552 478 595 488 q 637 454 598 471 q 706 410 677 437 q 753 347 736 384 q 771 264 771 310 q 747 153 771 204 q 679 65 724 101 q 569 7 634 28 q 421 -14 504 -14 "},"Α":{"x_min":0,"x_max":833,"ha":834,"o":"m 701 0 l 607 259 l 226 259 l 132 0 l 0 0 l 346 915 l 493 915 l 833 0 l 701 0 m 475 647 q 457 699 466 672 q 439 749 447 725 q 426 791 432 773 q 417 817 420 809 q 409 790 415 809 q 396 748 404 772 q 380 698 388 725 q 362 647 371 672 l 260 360 l 574 360 l 475 647 "},"⅝":{"x_min":25,"x_max":827,"ha":834,"o":"m 367 566 q 322 439 367 483 q 197 395 277 395 q 25 524 48 395 l 115 535 q 141 482 122 498 q 195 466 161 466 q 226 470 211 466 q 251 487 240 475 q 268 517 262 498 q 275 566 275 537 q 253 637 275 616 q 195 659 231 659 q 151 648 168 659 q 120 618 134 638 l 33 618 l 55 915 l 345 915 l 345 838 l 128 838 l 115 693 q 157 723 134 714 q 206 733 180 733 q 325 690 283 733 q 367 566 367 647 m 222 0 l 142 0 l 620 915 l 698 915 l 222 0 m 722 382 q 719 412 722 399 q 709 436 716 426 q 689 450 701 445 q 656 456 676 456 q 604 436 618 456 q 591 382 591 416 q 593 355 591 369 q 603 330 596 341 q 623 312 611 319 q 656 305 636 305 q 692 312 679 305 q 711 331 705 319 q 720 356 718 342 q 722 382 722 370 m 736 149 q 731 184 736 168 q 718 211 727 200 q 694 229 709 223 q 655 236 679 236 q 618 229 633 236 q 594 211 603 223 q 581 184 585 200 q 578 149 578 168 q 581 114 578 131 q 594 86 585 98 q 619 67 603 74 q 658 61 634 61 q 697 67 681 61 q 721 86 712 74 q 732 114 729 98 q 736 149 736 131 m 827 143 q 817 81 827 109 q 786 33 807 53 q 734 2 766 13 q 657 -8 702 -8 q 580 3 612 -8 q 527 34 548 14 q 496 82 506 54 q 487 143 487 109 q 508 226 487 196 q 569 268 530 256 l 569 270 q 516 318 532 288 q 501 390 501 347 q 510 442 501 418 q 540 484 520 466 q 588 513 559 502 q 656 524 617 524 q 726 513 697 524 q 775 484 756 502 q 803 441 794 466 q 813 389 813 417 q 796 317 813 347 q 743 271 779 287 l 743 269 q 807 226 788 256 q 827 143 827 195 "},"◙":{"x_min":25,"x_max":808,"ha":834,"o":"m 25 0 l 25 783 l 808 783 l 808 0 l 25 0 m 169 391 q 188 486 169 441 q 241 565 208 531 q 320 618 275 598 q 416 638 365 638 q 512 618 467 638 q 591 565 557 598 q 644 486 624 531 q 664 391 664 441 q 644 295 664 340 q 591 216 624 250 q 512 163 557 183 q 416 144 467 144 q 320 163 365 144 q 241 216 275 183 q 188 295 208 250 q 169 391 169 340 m 117 391 q 140 275 117 329 q 204 180 163 221 q 299 116 245 139 q 415 93 353 93 q 531 116 476 93 q 626 180 585 139 q 690 275 667 221 q 714 391 714 329 q 690 507 714 452 q 626 602 667 561 q 531 666 585 643 q 415 690 476 690 q 299 666 353 690 q 204 602 245 643 q 140 507 163 561 q 117 391 117 452 "},"é":{"x_min":90,"x_max":742,"ha":834,"o":"m 218 341 q 230 234 218 283 q 269 151 243 186 q 333 97 295 116 q 422 78 372 78 q 491 86 459 78 q 547 109 522 94 q 589 145 572 124 q 615 190 606 165 l 722 159 q 689 98 711 129 q 631 42 667 67 q 544 1 595 17 q 422 -14 492 -14 q 282 10 344 -14 q 178 82 220 34 q 112 203 135 131 q 90 371 90 275 q 116 548 90 477 q 189 664 143 620 q 293 728 234 709 q 418 747 353 747 q 568 718 507 747 q 668 638 630 690 q 724 515 707 587 q 742 357 742 444 l 742 341 l 218 341 m 419 657 q 354 647 388 657 q 290 612 319 637 q 241 544 261 587 q 219 435 221 501 l 616 435 q 592 541 610 498 q 549 609 575 583 q 489 646 522 635 q 419 657 456 657 m 348 815 l 348 828 l 502 991 l 636 991 l 636 971 l 432 815 l 348 815 "},"Ş":{"x_min":53,"x_max":765,"ha":834,"o":"m 765 250 q 743 144 765 192 q 679 60 722 95 q 570 5 636 25 q 413 -14 504 -14 q 166 48 254 -14 q 53 228 77 110 l 178 254 q 202 186 186 216 q 247 133 218 155 q 317 99 275 111 q 416 87 358 87 q 506 96 465 87 q 575 125 546 105 q 620 175 604 144 q 637 248 637 205 q 614 325 637 296 q 556 374 592 355 q 475 405 520 393 q 384 429 430 417 q 315 447 350 437 q 249 470 281 457 q 189 501 217 483 q 141 545 162 519 q 109 605 121 570 q 98 684 98 639 q 122 796 98 749 q 189 872 146 842 q 290 915 232 901 q 417 929 349 929 q 551 915 495 929 q 644 873 606 901 q 706 804 683 845 q 743 709 729 763 l 615 687 q 592 748 607 721 q 554 793 578 775 q 496 821 530 812 q 416 831 462 831 q 325 819 361 831 q 266 789 288 808 q 233 743 243 770 q 224 686 224 717 q 241 620 224 646 q 290 578 259 595 q 362 551 321 561 q 450 528 403 540 q 526 508 488 518 q 599 483 564 497 q 664 449 634 469 q 716 402 694 430 q 752 337 739 374 q 765 250 765 300 m 552 -175 q 541 -226 552 -203 q 509 -266 531 -250 q 452 -292 487 -283 q 366 -301 416 -301 q 337 -300 352 -301 q 305 -298 321 -300 l 305 -231 q 363 -236 338 -236 q 410 -231 391 -236 q 441 -219 429 -227 q 457 -201 452 -212 q 463 -177 463 -190 q 442 -136 463 -150 q 372 -122 421 -122 q 353 -122 363 -122 q 334 -123 343 -122 l 378 0 l 450 0 l 424 -68 q 520 -98 488 -70 q 552 -175 552 -126 "},"↓":{"x_min":253,"x_max":579,"ha":834,"o":"m 445 110 q 501 149 468 129 q 579 191 534 169 l 579 142 q 494 58 532 102 q 428 -41 456 14 l 403 -41 q 337 58 375 14 q 253 142 299 102 l 253 191 q 330 149 297 169 q 387 110 363 129 l 387 781 l 445 781 l 445 110 "},"B":{"x_min":110,"x_max":782,"ha":834,"o":"m 782 257 q 753 139 782 187 q 676 59 724 90 q 564 14 628 28 q 430 0 500 0 l 110 0 l 110 915 l 389 915 q 531 902 468 915 q 637 862 593 889 q 703 793 680 835 q 726 693 726 751 q 714 620 726 655 q 680 559 703 586 q 624 511 658 531 q 544 482 590 491 q 646 457 602 476 q 720 408 691 438 q 766 340 750 379 q 782 257 782 302 m 596 676 q 544 780 596 749 q 391 811 493 811 l 240 811 l 240 529 l 392 529 q 486 539 447 529 q 549 569 524 550 q 584 615 573 588 q 596 676 596 642 m 651 269 q 633 341 651 312 q 584 391 616 371 q 509 419 553 410 q 410 428 465 428 l 240 428 l 240 104 l 420 104 q 512 111 469 104 q 585 138 554 119 q 633 189 616 157 q 651 269 651 221 "},"…":{"x_min":80,"x_max":754,"ha":834,"o":"m 636 0 l 636 149 l 754 149 l 754 0 l 636 0 m 359 0 l 359 149 l 476 149 l 476 0 l 359 0 m 80 0 l 80 149 l 199 149 l 199 0 l 80 0 "},"H":{"x_min":110,"x_max":724,"ha":834,"o":"m 594 0 l 594 422 l 240 422 l 240 0 l 110 0 l 110 915 l 240 915 l 240 531 l 594 531 l 594 915 l 724 915 l 724 0 l 594 0 "},"î":{"x_min":97,"x_max":763,"ha":834,"o":"m 505 96 l 763 96 l 763 0 l 97 0 l 97 96 l 383 96 l 383 638 l 167 638 l 167 734 l 505 734 l 505 96 m 648 828 l 648 815 l 576 815 l 428 909 l 426 909 l 269 815 l 199 815 l 199 828 l 371 991 l 482 991 l 648 828 "},"ν":{"x_min":62,"x_max":731,"ha":834,"o":"m 731 573 q 708 430 731 504 q 648 281 686 355 q 560 135 610 206 q 455 0 510 63 l 340 0 l 62 734 l 190 734 l 414 104 q 562 343 515 229 q 609 567 609 457 q 599 663 609 622 q 576 734 589 703 l 696 734 q 721 665 712 703 q 731 573 731 626 "},"▪":{"x_min":244,"x_max":589,"ha":834,"o":"m 589 259 l 244 259 l 244 604 l 589 604 l 589 259 "},"Ό":{"x_min":-33,"x_max":811,"ha":834,"o":"m 811 461 q 787 255 811 344 q 718 106 763 166 q 609 16 673 46 q 462 -14 544 -14 q 311 17 376 -14 q 202 110 246 49 q 137 259 159 171 q 116 461 116 348 q 139 666 116 578 q 206 812 162 753 q 315 899 250 870 q 464 929 380 929 q 721 811 631 929 q 811 461 811 693 m 675 461 q 621 733 675 644 q 464 823 567 823 q 305 733 358 823 q 252 461 252 644 q 305 184 252 278 q 463 91 359 91 q 624 185 574 91 q 675 461 675 280 m -33 696 l -33 718 l 20 916 l 154 916 l 154 890 l 38 696 l -33 696 "},"−":{"x_min":79,"x_max":755,"ha":834,"o":"m 79 412 l 79 511 l 755 511 l 755 412 l 79 412 "},"⅜":{"x_min":6,"x_max":827,"ha":834,"o":"m 355 538 q 341 473 355 501 q 305 426 328 445 q 250 396 282 406 q 180 387 218 387 q 106 399 137 387 q 54 432 75 412 q 21 478 33 452 q 6 531 10 504 l 98 540 q 126 478 104 499 q 180 458 148 458 q 239 478 217 458 q 262 542 262 498 q 253 583 262 567 q 231 608 245 599 q 198 620 217 617 q 160 624 180 624 l 133 624 l 133 697 l 158 697 q 226 717 204 697 q 248 781 248 736 q 229 834 248 817 q 183 851 211 851 q 131 829 153 851 q 105 770 109 808 l 13 778 q 32 841 17 814 q 70 887 47 868 q 122 914 93 905 q 183 923 151 923 q 252 912 223 923 q 301 883 282 901 q 331 839 321 864 q 341 786 341 814 q 318 712 341 741 q 248 666 295 683 l 248 664 q 329 618 304 652 q 355 538 355 584 m 214 0 l 134 0 l 612 915 l 690 915 l 214 0 m 722 382 q 719 412 722 399 q 709 436 716 426 q 689 450 701 445 q 656 456 676 456 q 604 436 618 456 q 591 382 591 416 q 593 355 591 369 q 603 330 596 341 q 623 312 611 319 q 656 305 636 305 q 692 312 679 305 q 711 331 705 319 q 720 356 718 342 q 722 382 722 370 m 736 149 q 731 184 736 168 q 718 211 727 200 q 694 229 709 223 q 655 236 679 236 q 618 229 633 236 q 594 211 603 223 q 581 184 585 200 q 578 149 578 168 q 581 114 578 131 q 594 86 585 98 q 619 67 603 74 q 658 61 634 61 q 697 67 681 61 q 721 86 712 74 q 732 114 729 98 q 736 149 736 131 m 827 143 q 817 81 827 109 q 786 33 807 53 q 734 2 766 13 q 657 -8 702 -8 q 580 3 612 -8 q 527 34 548 14 q 496 82 506 54 q 487 143 487 109 q 508 226 487 196 q 569 268 530 256 l 569 270 q 516 318 532 288 q 501 390 501 347 q 510 442 501 418 q 540 484 520 466 q 588 513 559 502 q 656 524 617 524 q 726 513 697 524 q 775 484 756 502 q 803 441 794 466 q 813 389 813 417 q 796 317 813 347 q 743 271 779 287 l 743 269 q 807 226 788 256 q 827 143 827 195 "},"╫":{"x_min":-7,"x_max":841,"ha":834,"o":"m 490 1156 l 588 1156 l 588 475 l 841 475 l 841 377 l 588 377 l 588 -417 l 490 -417 l 490 377 l 344 377 l 344 -417 l 246 -417 l 246 377 l -7 377 l -7 475 l 246 475 l 246 1156 l 344 1156 l 344 475 l 490 475 l 490 1156 "},"ā":{"x_min":87,"x_max":787,"ha":834,"o":"m 746 75 q 767 76 757 75 q 787 79 777 77 l 787 3 q 741 -4 763 -1 q 692 -7 718 -7 q 633 2 658 -7 q 592 29 608 11 q 569 75 577 48 q 559 139 561 103 l 555 139 q 512 76 536 104 q 460 27 489 47 q 391 -3 430 7 q 302 -14 352 -14 q 141 44 195 -14 q 87 204 87 102 q 113 323 87 276 q 183 396 140 369 q 282 433 227 422 q 394 444 337 443 l 555 447 l 555 487 q 545 564 555 532 q 518 615 536 596 q 471 644 499 635 q 404 654 442 654 q 343 648 371 654 q 296 630 316 643 q 264 594 276 617 q 247 537 251 571 l 119 548 q 145 628 126 592 q 197 691 163 664 q 282 732 231 717 q 406 747 333 747 q 609 683 541 747 q 678 500 678 620 l 678 184 q 692 102 678 129 q 746 75 706 75 m 333 79 q 431 100 390 79 q 500 154 472 121 q 541 226 527 186 q 555 301 555 265 l 555 362 l 426 359 q 351 353 388 358 q 283 332 313 348 q 234 284 253 315 q 215 202 215 254 q 245 112 215 146 q 333 79 275 79 m 578 838 l 204 838 l 204 924 l 578 924 l 578 838 "},"ĵ":{"x_min":144,"x_max":710,"ha":834,"o":"m 632 -18 q 607 -143 632 -92 q 543 -227 583 -195 q 450 -273 503 -259 q 339 -288 397 -288 q 283 -285 311 -288 q 230 -279 255 -283 q 182 -270 204 -275 q 144 -258 160 -264 l 144 -163 q 179 -171 158 -167 q 224 -178 199 -175 q 275 -184 248 -182 q 329 -187 302 -187 q 400 -177 367 -187 q 457 -147 433 -168 q 496 -94 482 -126 q 510 -16 510 -62 l 510 638 l 234 638 l 234 734 l 632 734 l 632 -18 m 710 828 l 710 815 l 638 815 l 490 909 l 488 909 l 331 815 l 261 815 l 261 828 l 433 991 l 544 991 l 710 828 "},"Ĩ":{"x_min":138,"x_max":696,"ha":834,"o":"m 138 915 l 696 915 l 696 809 l 482 809 l 482 106 l 696 106 l 696 0 l 138 0 l 138 106 l 352 106 l 352 809 l 138 809 l 138 915 m 524 981 q 467 993 495 981 q 411 1021 438 1006 q 358 1049 384 1036 q 308 1062 332 1062 q 282 1056 292 1062 q 266 1040 273 1051 q 256 1015 260 1030 q 250 981 253 1000 l 175 981 q 185 1041 178 1011 q 207 1095 191 1071 q 247 1134 222 1119 q 312 1149 272 1149 q 370 1136 342 1149 q 426 1108 399 1123 q 478 1080 453 1093 q 526 1068 503 1068 q 551 1073 541 1068 q 568 1089 561 1078 q 578 1114 575 1099 q 585 1149 582 1129 l 661 1149 q 650 1089 657 1119 q 629 1035 644 1059 q 589 996 614 1011 q 524 981 564 981 "},"←":{"x_min":5,"x_max":828,"ha":834,"o":"m 156 202 q 195 145 175 178 q 237 68 215 112 l 188 68 q 104 152 148 114 q 5 218 60 190 l 5 243 q 104 309 60 271 q 188 394 148 347 l 237 394 q 195 316 215 349 q 156 260 175 283 l 828 260 l 828 202 l 156 202 "},"*":{"x_min":169,"x_max":665,"ha":834,"o":"m 455 806 l 634 875 l 665 786 l 473 736 l 599 567 l 518 518 l 416 693 l 311 520 l 231 568 l 359 736 l 169 786 l 199 877 l 380 804 l 372 1006 l 464 1006 l 455 806 "},"ă":{"x_min":87,"x_max":787,"ha":834,"o":"m 746 75 q 767 76 757 75 q 787 79 777 77 l 787 3 q 741 -4 763 -1 q 692 -7 718 -7 q 633 2 658 -7 q 592 29 608 11 q 569 75 577 48 q 559 139 561 103 l 555 139 q 512 76 536 104 q 460 27 489 47 q 391 -3 430 7 q 302 -14 352 -14 q 141 44 195 -14 q 87 204 87 102 q 113 323 87 276 q 183 396 140 369 q 282 433 227 422 q 394 444 337 443 l 555 447 l 555 487 q 545 564 555 532 q 518 615 536 596 q 471 644 499 635 q 404 654 442 654 q 343 648 371 654 q 296 630 316 643 q 264 594 276 617 q 247 537 251 571 l 119 548 q 145 628 126 592 q 197 691 163 664 q 282 732 231 717 q 406 747 333 747 q 609 683 541 747 q 678 500 678 620 l 678 184 q 692 102 678 129 q 746 75 706 75 m 333 79 q 431 100 390 79 q 500 154 472 121 q 541 226 527 186 q 555 301 555 265 l 555 362 l 426 359 q 351 353 388 358 q 283 332 313 348 q 234 284 253 315 q 215 202 215 254 q 245 112 215 146 q 333 79 275 79 m 402 815 q 315 830 352 815 q 252 872 277 846 q 211 929 226 897 q 191 991 196 960 l 277 991 q 317 923 288 947 q 402 900 347 900 q 489 923 460 900 q 530 991 518 947 l 616 991 q 594 929 609 960 q 554 872 580 897 q 491 830 529 846 q 402 815 454 815 "},"Χ":{"x_min":24,"x_max":810,"ha":834,"o":"m 416 567 l 642 915 l 782 915 l 486 478 l 810 0 l 670 0 l 416 389 l 163 0 l 24 0 l 347 478 l 52 915 l 191 915 l 416 567 "},"†":{"x_min":123,"x_max":709,"ha":834,"o":"m 464 671 l 454 -144 l 376 -144 l 367 671 l 123 660 l 123 771 l 367 758 l 350 1006 l 482 1006 l 464 758 l 709 771 l 709 660 l 464 671 "},"°":{"x_min":222,"x_max":611,"ha":834,"o":"m 611 735 q 595 660 611 695 q 554 598 580 624 q 492 557 527 572 q 416 542 456 542 q 341 557 376 542 q 279 598 306 572 q 237 660 253 624 q 222 735 222 695 q 237 811 222 776 q 279 872 253 846 q 341 914 306 899 q 416 929 376 929 q 492 914 456 929 q 554 872 527 899 q 595 811 580 846 q 611 735 611 776 m 537 735 q 527 783 537 761 q 502 822 518 805 q 464 848 486 838 q 416 858 442 858 q 369 848 391 858 q 331 822 347 838 q 305 783 314 805 q 296 735 296 761 q 305 688 296 710 q 331 649 314 666 q 369 622 347 632 q 416 613 391 613 q 464 622 442 613 q 502 649 486 632 q 527 688 518 666 q 537 735 537 710 "},"↨":{"x_min":253,"x_max":579,"ha":834,"o":"m 253 -70 l 579 -70 l 579 -124 l 253 -124 l 253 -70 m 387 629 q 330 590 363 610 q 253 549 297 570 l 253 597 q 337 681 299 637 q 403 781 375 725 l 428 781 q 494 681 456 725 q 579 597 532 637 l 579 549 q 501 590 534 570 q 445 629 468 610 l 445 110 q 501 149 468 129 q 579 191 534 169 l 579 142 q 494 58 532 102 q 428 -41 456 14 l 403 -41 q 337 58 375 14 q 253 142 299 102 l 253 191 q 330 149 297 169 q 387 110 363 129 l 387 629 "},"Ξ":{"x_min":92,"x_max":742,"ha":834,"o":"m 106 809 l 106 915 l 729 915 l 729 809 l 106 809 m 92 0 l 92 106 l 742 106 l 742 0 l 92 0 m 644 523 l 644 419 l 190 419 l 190 523 l 644 523 "},"Ķ":{"x_min":110,"x_max":833.25,"ha":834,"o":"m 681 0 l 350 432 l 240 318 l 240 0 l 110 0 l 110 915 l 240 915 l 240 458 l 628 915 l 781 915 l 438 527 l 833 0 l 681 0 m 323 -286 l 323 -263 l 376 -66 l 510 -66 l 510 -91 l 394 -286 l 323 -286 "},"ŵ":{"x_min":14,"x_max":820,"ha":834,"o":"m 690 0 l 552 0 l 455 319 q 443 361 449 337 q 430 406 436 384 q 416 456 422 431 q 403 407 410 431 q 390 362 396 386 q 376 316 383 337 l 276 0 l 138 0 l 14 734 l 134 734 l 197 322 q 203 277 200 305 q 211 215 207 248 q 217 151 214 183 q 220 101 220 120 q 235 159 227 131 q 248 207 241 183 q 259 246 255 232 l 351 534 l 482 533 l 570 245 q 581 207 574 232 q 593 160 587 183 q 608 101 601 132 q 610 151 608 121 q 617 214 613 182 q 625 276 621 246 q 631 322 629 305 l 700 734 l 820 734 l 690 0 m 639 828 l 639 815 l 567 815 l 419 909 l 417 909 l 260 815 l 190 815 l 190 828 l 362 991 l 473 991 l 639 828 "},"΄":{"x_min":322,"x_max":509,"ha":834,"o":"m 322 815 l 322 837 l 375 1035 l 509 1035 l 509 1009 l 393 815 l 322 815 "},"ǽ":{"x_min":14,"x_max":820,"ha":834,"o":"m 461 340 l 461 328 q 468 227 461 273 q 490 147 475 181 q 529 96 505 114 q 586 77 553 77 q 667 109 636 77 q 708 190 697 141 l 802 159 q 779 98 793 129 q 739 42 764 67 q 678 1 715 17 q 589 -14 641 -14 q 519 -5 550 -14 q 463 20 488 2 q 421 69 439 39 q 391 143 403 99 q 358 81 376 110 q 315 31 340 52 q 259 -1 290 10 q 188 -14 228 -14 q 109 0 142 -14 q 55 44 77 15 q 24 113 34 72 q 14 204 14 153 q 33 323 14 276 q 84 396 52 369 q 155 433 115 422 q 237 444 195 443 l 351 447 l 351 487 q 345 564 351 532 q 329 615 340 596 q 300 644 318 635 q 259 654 283 654 q 220 648 237 654 q 190 630 202 643 q 169 594 177 617 q 159 537 161 571 l 45 548 q 63 628 50 592 q 102 691 77 664 q 165 732 127 717 q 258 747 204 747 q 361 723 320 747 q 425 652 401 699 q 498 724 456 702 q 592 747 541 747 q 701 717 657 747 q 771 634 745 687 q 809 510 798 581 q 820 356 820 439 l 820 340 l 461 340 m 129 202 q 148 112 129 146 q 206 79 167 79 q 271 100 244 79 q 316 154 298 121 q 342 226 334 186 q 351 301 351 265 l 351 362 l 268 359 q 218 353 243 358 q 173 332 193 348 q 141 284 154 315 q 129 202 129 254 m 582 656 q 543 646 564 656 q 504 611 522 637 q 475 543 487 586 q 462 434 463 500 l 707 434 q 671 603 700 550 q 582 656 641 656 m 334 815 l 334 828 l 488 991 l 622 991 l 622 971 l 418 815 l 334 815 "},"Β":{"x_min":110,"x_max":782,"ha":834,"o":"m 782 257 q 753 139 782 187 q 676 59 724 90 q 564 14 628 28 q 430 0 500 0 l 110 0 l 110 915 l 389 915 q 531 902 468 915 q 637 862 593 889 q 703 793 680 835 q 726 693 726 751 q 714 620 726 655 q 680 559 703 586 q 624 511 658 531 q 544 482 590 491 q 646 457 602 476 q 720 408 691 438 q 766 340 750 379 q 782 257 782 302 m 596 676 q 544 780 596 749 q 391 811 493 811 l 240 811 l 240 529 l 392 529 q 486 539 447 529 q 549 569 524 550 q 584 615 573 588 q 596 676 596 642 m 651 269 q 633 341 651 312 q 584 391 616 371 q 509 419 553 410 q 410 428 465 428 l 240 428 l 240 104 l 420 104 q 512 111 469 104 q 585 138 554 119 q 633 189 616 157 q 651 269 651 221 "},"Ļ":{"x_min":161,"x_max":746,"ha":834,"o":"m 161 0 l 161 915 l 291 915 l 291 106 l 746 106 l 746 0 l 161 0 m 330 -286 l 330 -263 l 383 -66 l 517 -66 l 517 -91 l 401 -286 l 330 -286 "},"Õ":{"x_min":69,"x_max":764,"ha":834,"o":"m 764 461 q 740 255 764 344 q 671 106 716 166 q 562 16 626 46 q 415 -14 497 -14 q 264 17 329 -14 q 155 110 199 49 q 90 259 112 171 q 69 461 69 348 q 92 666 69 578 q 159 812 115 753 q 268 899 203 870 q 417 929 333 929 q 674 811 584 929 q 764 461 764 693 m 628 461 q 574 733 628 644 q 417 823 520 823 q 258 733 311 823 q 205 461 205 644 q 258 184 205 278 q 416 91 312 91 q 577 185 527 91 q 628 461 628 280 m 523 980 q 466 992 494 980 q 410 1020 437 1005 q 357 1048 383 1035 q 307 1061 331 1061 q 281 1055 291 1061 q 265 1039 272 1050 q 255 1014 259 1029 q 249 980 252 999 l 174 980 q 184 1040 177 1010 q 206 1094 190 1070 q 246 1133 221 1118 q 311 1148 271 1148 q 369 1135 341 1148 q 425 1107 398 1122 q 477 1079 452 1092 q 525 1067 502 1067 q 550 1072 540 1067 q 567 1088 560 1077 q 577 1113 574 1098 q 584 1148 581 1128 l 660 1148 q 649 1088 656 1118 q 628 1034 643 1058 q 588 995 613 1010 q 523 980 563 980 "},"╠":{"x_min":246,"x_max":841,"ha":834,"o":"m 344 -417 l 246 -417 l 246 1156 l 344 1156 l 344 -417 m 490 353 l 841 353 l 841 255 l 588 255 l 588 -417 l 490 -417 l 490 353 m 490 1156 l 588 1156 l 588 597 l 841 597 l 841 499 l 490 499 l 490 1156 "},"═":{"x_min":-7,"x_max":841,"ha":834,"o":"m -7 499 l -7 597 l 841 597 l 841 499 l -7 499 m -7 255 l -7 353 l 841 353 l 841 255 l -7 255 "},"№":{"x_min":15,"x_max":820,"ha":834,"o":"m 288 0 l 105 712 q 107 652 106 683 q 109 596 109 626 q 110 539 110 566 l 110 0 l 15 0 l 15 915 l 145 915 l 333 197 q 330 255 332 224 q 328 315 329 282 q 328 383 328 348 l 328 915 l 424 915 l 424 0 l 288 0 m 820 467 q 811 354 820 404 q 783 271 803 305 q 731 220 763 238 q 649 203 698 203 q 523 271 563 203 q 484 467 484 339 q 493 578 484 530 q 523 661 503 627 q 576 714 544 696 q 652 732 607 732 q 732 714 700 732 q 783 662 764 696 q 811 579 803 628 q 820 467 820 530 m 719 467 q 715 558 719 522 q 703 616 711 595 q 683 647 695 638 q 654 656 671 656 q 623 646 636 656 q 602 616 610 637 q 590 558 594 594 q 587 467 587 521 q 590 375 587 412 q 601 317 594 339 q 621 287 609 296 q 649 279 633 279 q 681 287 668 279 q 703 317 694 296 q 715 375 711 339 q 719 467 719 412 m 505 0 l 505 92 l 800 92 l 800 0 l 505 0 "},"χ":{"x_min":39,"x_max":791.25,"ha":834,"o":"m 425 161 l 178 -288 l 50 -288 l 370 271 l 241 504 q 169 615 201 577 q 102 653 137 653 q 62 642 81 653 l 39 731 q 79 744 55 739 q 125 749 104 749 q 183 739 158 749 q 232 708 209 730 q 278 652 255 687 q 328 568 301 618 l 438 368 l 638 734 l 765 734 l 495 261 l 791 -288 l 662 -288 l 425 161 "},"ί":{"x_min":102,"x_max":758,"ha":834,"o":"m 440 234 q 467 124 440 158 q 551 90 494 90 q 630 111 595 90 q 694 162 665 132 l 758 80 q 668 11 718 37 q 550 -14 617 -14 q 444 1 488 -14 q 371 48 400 17 q 330 126 343 79 q 318 236 318 173 l 318 638 l 102 638 l 102 734 l 440 734 l 440 234 m 343 815 l 343 837 l 396 1035 l 530 1035 l 530 1009 l 414 815 l 343 815 "},"Ζ":{"x_min":50,"x_max":784,"ha":834,"o":"m 784 0 l 50 0 l 50 97 l 604 809 l 100 809 l 100 915 l 752 915 l 752 820 l 196 106 l 784 106 l 784 0 "},"Ľ":{"x_min":161,"x_max":746,"ha":834,"o":"m 161 0 l 161 915 l 291 915 l 291 106 l 746 106 l 746 0 l 161 0 m 526 695 l 526 717 l 579 915 l 713 915 l 713 889 l 597 695 l 526 695 "},"ť":{"x_min":69,"x_max":828,"ha":834,"o":"m 69 638 l 69 734 l 184 734 l 223 925 l 305 925 l 305 734 l 598 734 l 598 638 l 305 638 l 305 195 q 333 115 305 141 q 428 90 362 90 q 484 92 455 90 q 540 98 513 94 q 590 105 566 101 q 630 113 613 109 l 630 20 q 591 10 615 16 q 538 0 567 5 q 473 -7 508 -4 q 402 -11 439 -11 q 237 35 292 -11 q 183 182 183 82 l 183 638 l 69 638 m 641 786 l 641 808 l 694 1006 l 828 1006 l 828 980 l 712 786 l 641 786 "},"5":{"x_min":87,"x_max":746,"ha":834,"o":"m 746 300 q 724 174 746 232 q 659 75 702 116 q 553 9 617 33 q 406 -14 490 -14 q 275 3 331 -14 q 180 52 219 21 q 119 124 141 82 q 87 212 96 165 l 210 227 q 231 174 217 200 q 268 129 244 149 q 325 97 291 109 q 409 86 360 86 q 495 100 456 86 q 561 142 534 115 q 604 208 589 169 q 619 298 619 248 q 604 373 619 338 q 564 434 590 408 q 499 474 537 459 q 411 489 460 489 q 355 483 381 489 q 307 468 329 478 q 267 446 285 459 q 234 421 249 434 l 115 421 l 146 915 l 690 915 l 690 817 l 259 817 l 239 528 q 320 571 272 553 q 437 589 369 589 q 565 567 508 589 q 662 507 622 545 q 724 416 702 468 q 746 300 746 363 "},"o":{"x_min":88,"x_max":744,"ha":834,"o":"m 744 367 q 721 199 744 270 q 655 80 698 127 q 551 9 613 32 q 412 -14 490 -14 q 278 9 339 -14 q 176 79 218 32 q 111 198 134 127 q 88 367 88 270 q 173 651 88 556 q 417 747 259 747 q 663 652 582 747 q 744 367 744 558 m 616 367 q 601 508 616 452 q 560 597 586 564 q 498 643 534 630 q 419 657 462 657 q 337 643 374 657 q 273 595 300 629 q 231 506 246 561 q 216 367 216 450 q 231 225 216 281 q 274 136 247 169 q 337 89 301 103 q 411 76 372 76 q 493 89 455 76 q 558 135 531 102 q 600 225 585 168 q 616 367 616 281 "},"Ѕ":{"x_min":53,"x_max":765,"ha":834,"o":"m 765 250 q 743 144 765 192 q 679 60 722 95 q 570 5 636 25 q 413 -14 504 -14 q 166 48 254 -14 q 53 228 77 110 l 178 254 q 202 186 186 216 q 247 133 218 155 q 317 99 275 111 q 416 87 358 87 q 506 96 465 87 q 575 125 546 105 q 620 175 604 144 q 637 248 637 205 q 614 325 637 296 q 556 374 592 355 q 475 405 520 393 q 384 429 430 417 q 315 447 350 437 q 249 470 281 457 q 189 501 217 483 q 141 545 162 519 q 109 605 121 570 q 98 684 98 639 q 122 796 98 749 q 189 872 146 842 q 290 915 232 901 q 417 929 349 929 q 551 915 495 929 q 644 873 606 901 q 706 804 683 845 q 743 709 729 763 l 615 687 q 592 748 607 721 q 554 793 578 775 q 496 821 530 812 q 416 831 462 831 q 325 819 361 831 q 266 789 288 808 q 233 743 243 770 q 224 686 224 717 q 241 620 224 646 q 290 578 259 595 q 362 551 321 561 q 450 528 403 540 q 526 508 488 518 q 599 483 564 497 q 664 449 634 469 q 716 402 694 430 q 752 337 739 374 q 765 250 765 300 "},"▓":{"x_min":0,"x_max":834,"ha":834,"o":"m 834 -417 l 0 -417 l 0 -221 l 69 -221 l 69 -155 l 0 -155 l 0 42 l 69 42 l 69 108 l 0 108 l 0 305 l 69 305 l 69 370 l 0 370 l 0 566 l 69 566 l 69 633 l 0 633 l 0 829 l 69 829 l 69 895 l 0 895 l 0 1091 l 69 1091 l 69 1156 l 139 1156 l 139 1091 l 208 1091 l 208 1156 l 278 1156 l 278 1091 l 347 1091 l 347 1156 l 417 1156 l 417 1091 l 486 1091 l 486 1156 l 556 1156 l 556 1091 l 625 1091 l 625 1156 l 695 1156 l 695 1091 l 764 1091 l 764 1156 l 834 1156 l 834 1025 l 764 1025 l 764 959 l 834 959 l 834 763 l 764 763 l 764 698 l 834 698 l 834 500 l 764 500 l 764 435 l 834 435 l 834 238 l 764 238 l 764 173 l 834 173 l 834 -24 l 764 -24 l 764 -89 l 834 -89 l 834 -286 l 764 -286 l 764 -351 l 834 -351 l 834 -417 m 69 763 l 69 698 l 139 698 l 139 763 l 69 763 m 208 763 l 208 698 l 278 698 l 278 763 l 208 763 m 347 763 l 347 698 l 417 698 l 417 763 l 347 763 m 486 763 l 486 698 l 556 698 l 556 763 l 486 763 m 625 633 l 556 633 l 556 566 l 625 566 l 625 633 m 486 633 l 417 633 l 417 566 l 486 566 l 486 633 m 347 633 l 278 633 l 278 566 l 347 566 l 347 633 m 208 633 l 139 633 l 139 566 l 208 566 l 208 633 m 69 500 l 69 435 l 139 435 l 139 500 l 69 500 m 208 500 l 208 435 l 278 435 l 278 500 l 208 500 m 347 500 l 347 435 l 417 435 l 417 500 l 347 500 m 486 500 l 486 435 l 556 435 l 556 500 l 486 500 m 208 370 l 139 370 l 139 305 l 208 305 l 208 370 m 278 370 l 278 305 l 347 305 l 347 370 l 278 370 m 417 370 l 417 305 l 486 305 l 486 370 l 417 370 m 556 370 l 556 305 l 625 305 l 625 370 l 556 370 m 69 238 l 69 173 l 139 173 l 139 238 l 69 238 m 347 238 l 347 173 l 417 173 l 417 238 l 347 238 m 278 173 l 278 238 l 208 238 l 208 173 l 278 173 m 486 238 l 486 173 l 556 173 l 556 238 l 486 238 m 625 42 l 625 108 l 556 108 l 556 42 l 625 42 m 486 42 l 486 108 l 417 108 l 417 42 l 486 42 m 347 42 l 347 108 l 278 108 l 278 42 l 347 42 m 208 42 l 208 108 l 139 108 l 139 42 l 208 42 m 69 -24 l 69 -89 l 139 -89 l 139 -24 l 69 -24 m 208 -24 l 208 -89 l 278 -89 l 278 -24 l 208 -24 m 347 -24 l 347 -89 l 417 -89 l 417 -24 l 347 -24 m 486 -24 l 486 -89 l 556 -89 l 556 -24 l 486 -24 m 625 -221 l 625 -155 l 556 -155 l 556 -221 l 625 -221 m 486 -221 l 486 -155 l 417 -155 l 417 -221 l 486 -221 m 347 -221 l 347 -155 l 278 -155 l 278 -221 l 347 -221 m 208 -221 l 208 -155 l 139 -155 l 139 -221 l 208 -221 m 69 -286 l 69 -351 l 139 -351 l 139 -286 l 69 -286 m 208 -286 l 208 -351 l 278 -351 l 278 -286 l 208 -286 m 347 -286 l 347 -351 l 417 -351 l 417 -286 l 347 -286 m 486 -286 l 486 -351 l 556 -351 l 556 -286 l 486 -286 m 625 895 l 556 895 l 556 829 l 625 829 l 625 895 m 486 895 l 417 895 l 417 829 l 486 829 l 486 895 m 347 895 l 278 895 l 278 829 l 347 829 l 347 895 m 208 895 l 139 895 l 139 829 l 208 829 l 208 895 m 556 1025 l 486 1025 l 486 959 l 556 959 l 556 1025 m 417 1025 l 347 1025 l 347 959 l 417 959 l 417 1025 m 278 1025 l 208 1025 l 208 959 l 278 959 l 278 1025 m 139 1025 l 69 1025 l 69 959 l 139 959 l 139 1025 m 625 763 l 625 698 l 695 698 l 695 763 l 625 763 m 764 633 l 695 633 l 695 566 l 764 566 l 764 633 m 625 500 l 625 435 l 695 435 l 695 500 l 625 500 m 695 370 l 695 305 l 764 305 l 764 370 l 695 370 m 625 238 l 625 173 l 695 173 l 695 238 l 625 238 m 764 42 l 764 108 l 695 108 l 695 42 l 764 42 m 625 -24 l 625 -89 l 695 -89 l 695 -24 l 625 -24 m 764 -221 l 764 -155 l 695 -155 l 695 -221 l 764 -221 m 625 -286 l 625 -351 l 695 -351 l 695 -286 l 625 -286 m 764 895 l 695 895 l 695 829 l 764 829 l 764 895 m 695 1025 l 625 1025 l 625 959 l 695 959 l 695 1025 "},"□":{"x_min":1,"x_max":832,"ha":834,"o":"m 1 831 l 832 831 l 832 0 l 1 0 l 1 831 m 53 779 l 53 52 l 780 52 l 780 779 l 53 779 "},"d":{"x_min":94,"x_max":712.0625,"ha":834,"o":"m 585 117 q 497 14 552 46 q 360 -18 442 -18 q 158 76 222 -18 q 94 360 94 170 q 360 745 94 745 q 497 715 442 745 q 586 620 552 686 l 587 620 q 587 637 587 623 q 586 668 586 652 q 586 701 586 685 q 586 722 586 716 l 586 1006 l 708 1006 l 708 151 q 708 100 708 124 q 709 55 708 75 q 710 20 710 35 q 712 0 711 6 l 595 0 q 593 14 594 2 q 591 43 592 27 q 589 80 590 60 q 588 117 588 100 l 585 117 m 220 364 q 229 234 220 288 q 260 144 239 179 q 313 92 281 109 q 391 76 346 76 q 474 92 438 76 q 536 144 511 108 q 573 237 560 179 q 586 375 586 294 q 573 507 586 454 q 536 593 560 561 q 475 640 511 626 q 393 655 440 655 q 317 639 349 655 q 263 589 284 623 q 230 499 241 554 q 220 364 220 443 "},",":{"x_min":176,"x_max":470,"ha":834,"o":"m 176 -246 l 290 203 l 470 203 l 259 -246 l 176 -246 "},"╢":{"x_min":-7,"x_max":588,"ha":834,"o":"m -7 377 l -7 475 l 246 475 l 246 1156 l 344 1156 l 344 -417 l 246 -417 l 246 377 l -7 377 m 490 1156 l 588 1156 l 588 -417 l 490 -417 l 490 1156 "},"\"":{"x_min":188,"x_max":645,"ha":834,"o":"m 616 573 l 520 573 l 493 1006 l 645 1006 l 616 573 m 311 573 l 215 573 l 188 1006 l 340 1006 l 311 573 "},"ľ":{"x_min":58,"x_max":795,"ha":834,"o":"m 466 96 l 724 96 l 724 0 l 58 0 l 58 96 l 344 96 l 344 910 l 148 910 l 148 1006 l 466 1006 l 466 96 m 608 786 l 608 808 l 661 1006 l 795 1006 l 795 980 l 679 786 l 608 786 "},"ė":{"x_min":90,"x_max":742,"ha":834,"o":"m 218 341 q 230 234 218 283 q 269 151 243 186 q 333 97 295 116 q 422 78 372 78 q 491 86 459 78 q 547 109 522 94 q 589 145 572 124 q 615 190 606 165 l 722 159 q 689 98 711 129 q 631 42 667 67 q 544 1 595 17 q 422 -14 492 -14 q 282 10 344 -14 q 178 82 220 34 q 112 203 135 131 q 90 371 90 275 q 116 548 90 477 q 189 664 143 620 q 293 728 234 709 q 418 747 353 747 q 568 718 507 747 q 668 638 630 690 q 724 515 707 587 q 742 357 742 444 l 742 341 l 218 341 m 419 657 q 354 647 388 657 q 290 612 319 637 q 241 544 261 587 q 219 435 221 501 l 616 435 q 592 541 610 498 q 549 609 575 583 q 489 646 522 635 q 419 657 456 657 m 350 880 l 350 1010 l 486 1010 l 486 880 l 350 880 "}}}
